<svg width="211" height="162" viewBox="0 0 211 162" fill="none" xmlns="http://www.w3.org/2000/svg">
<g opacity="0.5" clip-path="url(#clip0)">
<path d="M106.164 0.867188H12.0372C8.84586 0.870781 5.78622 2.14015 3.52958 4.3968C1.27294 6.65345 0.00357789 9.71309 -7.62939e-06 12.9045V123.428C0.00357856 126.62 1.27294 129.68 3.52958 131.936C5.78623 134.193 8.84586 135.462 12.0372 135.466H106.164C109.355 135.462 112.415 134.193 114.671 131.936C116.928 129.68 118.197 126.62 118.201 123.428V12.9045C118.197 9.71309 116.928 6.65345 114.671 4.3968C112.415 2.14015 109.355 0.870781 106.164 0.867188Z" fill="#F2F2F2"/>
<path d="M106.164 4.33252H12.0372C9.76459 4.33507 7.58574 5.239 5.97873 6.84601C4.37172 8.45302 3.46778 10.6319 3.46523 12.9045V123.429C3.46778 125.701 4.37172 127.88 5.97873 129.487C7.58575 131.094 9.76459 131.998 12.0372 132.001H106.164C108.436 131.998 110.615 131.094 112.222 129.487C113.829 127.88 114.733 125.701 114.736 123.429V12.9045C114.733 10.6319 113.829 8.45306 112.222 6.84605C110.615 5.23904 108.436 4.33509 106.164 4.33252Z" fill="white"/>
<path d="M91.9977 36.47H44.3986C43.867 36.47 43.3571 36.2588 42.9812 35.8829C42.6053 35.507 42.3941 34.9971 42.3941 34.4655C42.3941 33.9338 42.6053 33.424 42.9812 33.0481C43.3571 32.6721 43.867 32.4609 44.3986 32.4609H91.9977C92.261 32.4609 92.5216 32.5128 92.7648 32.6135C93.008 32.7143 93.229 32.8619 93.4151 33.0481C93.6013 33.2342 93.7489 33.4552 93.8497 33.6984C93.9504 33.9416 94.0023 34.2022 94.0023 34.4655C94.0023 34.7287 93.9504 34.9894 93.8497 35.2326C93.7489 35.4758 93.6013 35.6967 93.4151 35.8829C93.229 36.069 93.008 36.2167 92.7648 36.3174C92.5216 36.4181 92.261 36.47 91.9977 36.47Z" fill="#F2F2F2"/>
<path d="M100.266 43.2351H44.3986C43.8674 43.2345 43.3581 43.0231 42.9826 42.6472C42.6072 42.2714 42.3963 41.7619 42.3963 41.2306C42.3963 40.6994 42.6072 40.1898 42.9826 39.814C43.3581 39.4381 43.8674 39.2267 44.3986 39.2261H100.266C100.798 39.2267 101.307 39.4381 101.682 39.814C102.058 40.1898 102.269 40.6994 102.269 41.2306C102.269 41.7619 102.058 42.2714 101.682 42.6472C101.307 43.0231 100.798 43.2345 100.266 43.2351Z" fill="#F2F2F2"/>
<path d="M91.9977 66.7884H44.3986C43.867 66.7884 43.3571 66.5772 42.9812 66.2012C42.6053 65.8253 42.3941 65.3155 42.3941 64.7838C42.3941 64.2522 42.6053 63.7423 42.9812 63.3664C43.3571 62.9905 43.867 62.7793 44.3986 62.7793H91.9977C92.261 62.7793 92.5216 62.8311 92.7648 62.9319C93.008 63.0326 93.229 63.1803 93.4151 63.3664C93.6013 63.5525 93.7489 63.7735 93.8497 64.0167C93.9504 64.2599 94.0023 64.5206 94.0023 64.7838C94.0023 65.0471 93.9504 65.3077 93.8497 65.5509C93.7489 65.7941 93.6013 66.0151 93.4151 66.2012C93.229 66.3874 93.008 66.535 92.7648 66.6358C92.5216 66.7365 92.261 66.7884 91.9977 66.7884Z" fill="#F2F2F2"/>
<path d="M100.266 73.5535H44.3986C43.8674 73.5529 43.3581 73.3414 42.9826 72.9656C42.6072 72.5897 42.3963 72.0802 42.3963 71.549C42.3963 71.0177 42.6072 70.5082 42.9826 70.1323C43.3581 69.7565 43.8674 69.545 44.3986 69.5444H100.266C100.798 69.545 101.307 69.7565 101.682 70.1323C102.058 70.5082 102.269 71.0177 102.269 71.549C102.269 72.0802 102.058 72.5897 101.682 72.9656C101.307 73.3414 100.798 73.5529 100.266 73.5535Z" fill="#F2F2F2"/>
<path d="M91.9977 97.1067H44.3986C43.867 97.1067 43.3571 96.8955 42.9812 96.5196C42.6053 96.1437 42.3941 95.6338 42.3941 95.1022C42.3941 94.5705 42.6053 94.0607 42.9812 93.6848C43.3571 93.3089 43.867 93.0977 44.3986 93.0977H91.9977C92.2612 93.0974 92.5221 93.149 92.7655 93.2496C93.009 93.3502 93.2302 93.4978 93.4166 93.684C93.603 93.8701 93.7508 94.0912 93.8517 94.3346C93.9526 94.5779 94.0045 94.8388 94.0045 95.1022C94.0045 95.3656 93.9526 95.6265 93.8517 95.8698C93.7508 96.1131 93.603 96.3342 93.4166 96.5204C93.2302 96.7066 93.009 96.8542 92.7655 96.9548C92.5221 97.0554 92.2612 97.107 91.9977 97.1067Z" fill="#F2F2F2"/>
<path d="M100.266 103.872H44.3986C43.8674 103.872 43.3581 103.66 42.9826 103.284C42.6072 102.908 42.3963 102.399 42.3963 101.868C42.3963 101.336 42.6072 100.827 42.9826 100.451C43.3581 100.075 43.8674 99.8636 44.3986 99.863H100.266C100.798 99.8636 101.307 100.075 101.682 100.451C102.058 100.827 102.269 101.336 102.269 101.868C102.269 102.399 102.058 102.908 101.682 103.284C101.307 103.66 100.798 103.872 100.266 103.872Z" fill="#F2F2F2"/>
<path d="M33.7361 46.3063H16.8912C16.6364 46.306 16.3921 46.2046 16.2119 46.0244C16.0317 45.8442 15.9303 45.5999 15.9301 45.3451V30.3508C15.9303 30.096 16.0317 29.8517 16.2119 29.6715C16.3921 29.4913 16.6364 29.3899 16.8912 29.3896H33.7361C33.9909 29.3899 34.2353 29.4913 34.4155 29.6715C34.5956 29.8517 34.697 30.096 34.6973 30.3508V45.3451C34.697 45.5999 34.5956 45.8442 34.4155 46.0244C34.2353 46.2046 33.9909 46.306 33.7361 46.3063Z" fill="#E6E6E6"/>
<path d="M33.7361 76.6249H16.8912C16.6364 76.6246 16.3921 76.5232 16.2119 76.343C16.0317 76.1628 15.9303 75.9185 15.9301 75.6637V60.6694C15.9303 60.4146 16.0317 60.1703 16.2119 59.9901C16.3921 59.8099 16.6364 59.7085 16.8912 59.7083H33.7361C33.9909 59.7085 34.2353 59.8099 34.4155 59.9901C34.5956 60.1703 34.697 60.4146 34.6973 60.6694V75.6637C34.697 75.9185 34.5956 76.1629 34.4154 76.3431C34.2353 76.5232 33.9909 76.6246 33.7361 76.6249Z" fill="#E6E6E6"/>
<path d="M33.7361 106.943H16.8912C16.6364 106.943 16.3921 106.842 16.2119 106.661C16.0317 106.481 15.9303 106.237 15.9301 105.982V90.9878C15.9303 90.733 16.0317 90.4886 16.2119 90.3084C16.3921 90.1283 16.6364 90.0269 16.8912 90.0266H33.7361C33.9909 90.0269 34.2353 90.1283 34.4155 90.3084C34.5956 90.4886 34.697 90.733 34.6973 90.9878V105.982C34.697 106.237 34.5956 106.481 34.4155 106.661C34.2353 106.842 33.9909 106.943 33.7361 106.943Z" fill="#E6E6E6"/>
<path d="M189.083 105.397L189.83 98.8664L193.574 66.1232L194.32 59.5928C194.679 56.4216 193.766 53.2376 191.78 50.7392C189.795 48.2408 186.899 46.632 183.729 46.2659L98.7708 36.5511C95.5997 36.1921 92.4156 37.1057 89.9172 39.0913C87.4188 41.077 85.8101 43.9726 85.4439 47.1429L85.442 47.1598L80.2083 92.9301L80.2063 92.947C79.8473 96.1181 80.7609 99.3022 82.7465 101.801C84.7322 104.299 87.6278 105.908 90.7981 106.274L175.756 115.989C178.927 116.348 182.111 115.434 184.61 113.448C187.108 111.463 188.717 108.567 189.083 105.397Z" fill="#E6E6E6"/>
<path d="M185.64 105.003L186.525 97.2684L189.993 66.9338L190.878 59.1991C191.133 56.9409 190.483 54.6734 189.069 52.8943C187.655 51.1151 185.593 49.9695 183.335 49.7087L98.3772 39.994C96.1189 39.7383 93.8515 40.3889 92.0723 41.8029C90.2931 43.2169 89.1475 45.279 88.8868 47.5366L88.8849 47.5535L83.6511 93.3238L83.6492 93.3408C83.3935 95.599 84.0441 97.8665 85.4581 99.6456C86.8722 101.425 88.9342 102.57 91.1918 102.831L176.15 112.546C178.408 112.802 180.675 112.151 182.455 110.737C184.234 109.323 185.379 107.261 185.64 105.003Z" fill="white"/>
<path d="M171.734 63.5023L124.443 58.0947C124.181 58.065 123.928 57.9841 123.697 57.8565C123.467 57.7288 123.264 57.5571 123.1 57.3509C122.936 57.1448 122.814 56.9084 122.742 56.6551C122.669 56.4019 122.647 56.1369 122.677 55.8752C122.707 55.6135 122.788 55.3602 122.916 55.1299C123.044 54.8996 123.216 54.6968 123.422 54.533C123.629 54.3692 123.865 54.2477 124.118 54.1754C124.372 54.1031 124.637 54.0814 124.898 54.1116L172.189 59.5192C172.717 59.5801 173.199 59.8481 173.53 60.2641C173.86 60.6802 174.012 61.2104 173.951 61.7383C173.891 62.2661 173.623 62.7484 173.208 63.0792C172.792 63.41 172.262 63.5622 171.734 63.5023Z" fill="#E6E6E6"/>
<path d="M179.18 71.1634L123.674 64.8164C123.413 64.7867 123.159 64.7057 122.929 64.5781C122.698 64.4505 122.495 64.2787 122.332 64.0725C122.168 63.8664 122.046 63.63 121.973 63.3768C121.901 63.1236 121.879 62.8586 121.909 62.5969C121.939 62.3352 122.02 62.0819 122.148 61.8517C122.275 61.6214 122.447 61.4185 122.654 61.2547C122.86 61.0909 123.097 60.9694 123.35 60.8971C123.603 60.8248 123.868 60.8031 124.13 60.8333L179.636 67.1803C179.897 67.2102 180.151 67.2913 180.381 67.419C180.611 67.5467 180.814 67.7185 180.977 67.9246C181.141 68.1307 181.263 68.367 181.335 68.6201C181.408 68.8732 181.43 69.138 181.4 69.3996C181.37 69.6611 181.289 69.9142 181.161 70.1444C181.033 70.3745 180.861 70.5773 180.655 70.7411C180.449 70.9049 180.213 71.0265 179.96 71.0989C179.707 71.1714 179.442 71.1933 179.18 71.1634Z" fill="#E6E6E6"/>
<path d="M177.633 84.5692L95.7997 75.2117C95.2719 75.1508 94.7899 74.8829 94.4595 74.4668C94.1292 74.0507 93.9775 73.5205 94.0379 72.9926C94.0982 72.4648 94.3657 71.9825 94.7814 71.6517C95.1972 71.3209 95.7272 71.1688 96.2551 71.2286L178.088 80.5861C178.35 80.6157 178.603 80.6967 178.834 80.8243C179.064 80.952 179.267 81.1238 179.431 81.3299C179.595 81.536 179.717 81.7724 179.789 82.0256C179.862 82.2788 179.884 82.5439 179.854 82.8056C179.824 83.0672 179.743 83.3205 179.615 83.5508C179.487 83.7811 179.315 83.9839 179.109 84.1477C178.903 84.3115 178.666 84.433 178.413 84.5053C178.16 84.5776 177.894 84.5993 177.633 84.5692H177.633Z" fill="#E6E6E6"/>
<path d="M177.127 91.3206L95.0311 81.9331C94.5033 81.8722 94.0213 81.6043 93.6909 81.1882C93.3606 80.7721 93.2089 80.2419 93.2693 79.7141C93.3296 79.1862 93.5971 78.7039 94.0128 78.3732C94.4286 78.0424 94.9586 77.8902 95.4865 77.95L177.583 87.3376C178.11 87.3984 178.592 87.6664 178.923 88.0825C179.253 88.4985 179.405 89.0288 179.344 89.5566C179.284 90.0844 179.017 90.5667 178.601 90.8975C178.185 91.2283 177.655 91.3805 177.127 91.3206Z" fill="#E6E6E6"/>
<path d="M176.127 97.74L94.2936 88.3825C94.0319 88.3529 93.7786 88.2719 93.5481 88.1443C93.3177 88.0167 93.1147 87.8449 92.9507 87.6388C92.7867 87.4326 92.6649 87.1962 92.5924 86.943C92.5198 86.6898 92.4978 86.4247 92.5278 86.163C92.5577 85.9013 92.6389 85.6481 92.7668 85.4178C92.8946 85.1875 93.0666 84.9846 93.2729 84.8209C93.4792 84.6571 93.7158 84.5355 93.969 84.4632C94.2223 84.3909 94.4874 84.3692 94.7491 84.3994L176.582 93.7569C177.11 93.8178 177.592 94.0857 177.922 94.5018C178.253 94.9179 178.404 95.4481 178.344 95.976C178.284 96.5038 178.016 96.9861 177.601 97.3169C177.185 97.6476 176.655 97.7998 176.127 97.74V97.74Z" fill="#E6E6E6"/>
<path d="M175.621 104.492L93.525 95.104C92.9973 95.0431 92.5152 94.7752 92.1849 94.3591C91.8545 93.943 91.7029 93.4128 91.7632 92.885C91.8236 92.3571 92.091 91.8748 92.5068 91.5441C92.9225 91.2133 93.4526 91.0611 93.9805 91.1209L176.077 100.508C176.338 100.538 176.592 100.619 176.822 100.747C177.053 100.874 177.256 101.046 177.42 101.252C177.584 101.458 177.705 101.695 177.778 101.948C177.85 102.201 177.872 102.466 177.843 102.728C177.813 102.99 177.731 103.243 177.604 103.473C177.476 103.704 177.304 103.906 177.097 104.07C176.891 104.234 176.655 104.355 176.401 104.428C176.148 104.5 175.883 104.522 175.621 104.492Z" fill="#E6E6E6"/>
<path d="M112.732 66.6561L95.9962 64.7424C95.743 64.7132 95.5118 64.5847 95.3532 64.3852C95.1947 64.1857 95.1217 63.9315 95.1504 63.6783L96.8539 48.7811C96.8831 48.5279 97.0116 48.2967 97.2111 48.1381C97.4106 47.9796 97.6648 47.9066 97.918 47.9353L114.654 49.849C114.907 49.8782 115.138 50.0067 115.297 50.2062C115.455 50.4057 115.528 50.6599 115.5 50.9132L113.796 65.8103C113.767 66.0635 113.638 66.2947 113.439 66.4533C113.239 66.6118 112.985 66.6848 112.732 66.6561Z" fill="#9BAAF2"/>
<path d="M210.75 161.037H155.973C155.906 161.037 155.843 161.01 155.796 160.963C155.749 160.916 155.722 160.853 155.722 160.787C155.722 160.72 155.749 160.657 155.796 160.61C155.843 160.563 155.906 160.536 155.973 160.536H210.75C210.816 160.536 210.88 160.563 210.927 160.61C210.974 160.657 211 160.72 211 160.787C211 160.853 210.974 160.916 210.927 160.963C210.88 161.01 210.816 161.037 210.75 161.037Z" fill="#3F3D56"/>
<path d="M190.181 65.4797C190.097 65.812 190.087 66.1588 190.151 66.4956C190.215 66.8324 190.353 67.151 190.554 67.429C190.754 67.7069 191.014 67.9375 191.313 68.1044C191.613 68.2713 191.945 68.3705 192.287 68.395L193.982 73.4797L197.323 73.2036L194.829 66.0566C194.832 65.4793 194.623 64.9209 194.242 64.4873C193.861 64.0537 193.334 63.7749 192.761 63.7038C192.188 63.6326 191.609 63.7742 191.134 64.1015C190.658 64.4288 190.319 64.9191 190.181 65.4797Z" fill="#FFB8B8"/>
<path d="M192.74 98.7774C193.132 99.1371 193.611 99.387 194.13 99.5021C194.649 99.6172 195.19 99.5933 195.696 99.4329C196.203 99.2725 196.659 98.9812 197.017 98.5884C197.376 98.1956 197.624 97.7153 197.737 97.1958L200.384 85.0716C200.836 82.9983 200.73 80.842 200.075 78.8235L196.978 69.2748C196.933 69.1378 196.86 69.012 196.762 68.906C196.665 68.7999 196.545 68.7163 196.413 68.6606C196.28 68.605 196.136 68.5787 195.992 68.5836C195.848 68.5885 195.707 68.6244 195.578 68.6889L193.557 69.7008C193.348 69.8056 193.182 69.9805 193.088 70.195C192.994 70.4095 192.979 70.6501 193.044 70.8748L193.248 71.5757C194.943 77.4037 195.032 83.5813 193.505 89.4557L191.859 95.7913C191.721 96.3221 191.73 96.8805 191.886 97.4065C192.041 97.9326 192.336 98.4065 192.74 98.7774Z" fill="#9BAAF2"/>
<path d="M182.152 158.421L179.292 158.421L177.932 147.391L182.153 147.391L182.152 158.421Z" fill="#FFB8B8"/>
<path d="M177.249 157.604H182.764V161.076H173.777C173.777 160.62 173.867 160.168 174.041 159.747C174.216 159.326 174.472 158.943 174.794 158.621C175.117 158.298 175.499 158.042 175.921 157.868C176.342 157.693 176.793 157.604 177.249 157.604Z" fill="#2F2E41"/>
<path d="M197.564 158.421L194.705 158.421L193.345 147.391L197.565 147.391L197.564 158.421Z" fill="#FFB8B8"/>
<path d="M192.662 157.604H198.177V161.076H189.19C189.19 160.62 189.28 160.168 189.455 159.747C189.629 159.326 189.885 158.943 190.207 158.621C190.53 158.298 190.912 158.042 191.334 157.868C191.755 157.693 192.206 157.604 192.662 157.604Z" fill="#2F2E41"/>
<path d="M189.19 80.0129C192.583 80.0129 195.333 77.2625 195.333 73.8696C195.333 70.4768 192.583 67.7263 189.19 67.7263C185.797 67.7263 183.047 70.4768 183.047 73.8696C183.047 77.2625 185.797 80.0129 189.19 80.0129Z" fill="#FFB8B8"/>
<path d="M168.184 113.934C168.227 113.594 168.344 113.267 168.527 112.977C168.709 112.687 168.954 112.441 169.242 112.255C169.53 112.07 169.856 111.95 170.196 111.904C170.535 111.858 170.881 111.886 171.209 111.988L174.642 107.873L177.652 109.349L172.722 115.093C172.514 115.632 172.116 116.075 171.603 116.34C171.09 116.605 170.497 116.672 169.938 116.529C169.379 116.386 168.891 116.043 168.568 115.565C168.245 115.087 168.108 114.507 168.184 113.934Z" fill="#FFB8B8"/>
<path d="M190.686 80.0129C191.61 80.0328 192.529 79.8569 193.381 79.4967C194.232 79.1365 194.998 78.6 195.628 77.9227C196.258 77.2454 196.737 76.4425 197.034 75.5668C197.331 74.691 197.44 73.7623 197.353 72.8416C197.265 71.9209 196.984 71.0291 196.528 70.2248C196.071 69.4205 195.45 68.7219 194.704 68.1749C193.959 67.6279 193.106 67.2448 192.201 67.051C191.297 66.8571 190.362 66.8568 189.458 67.0501C188.107 66.2298 186.536 65.6778 184.962 65.8182C183.387 65.9586 181.831 66.8932 181.242 68.36C180.653 69.8268 181.286 71.7602 182.749 72.3563C183.688 72.7385 184.748 72.5531 185.749 72.399C186.751 72.2449 187.843 72.1444 188.715 72.6611C189.586 73.1778 189.978 74.5634 189.197 75.2095C188.784 75.5655 188.488 76.0392 188.35 76.5673C188.213 77.0955 188.239 77.6532 188.426 78.166C188.818 79.1806 189.889 79.9956 190.686 80.0129Z" fill="#2F2E41"/>
<path d="M198.308 113.691L199.398 155.047C199.401 155.185 199.376 155.322 199.324 155.45C199.273 155.577 199.195 155.693 199.096 155.789C198.997 155.886 198.88 155.961 198.751 156.009C198.622 156.058 198.484 156.08 198.346 156.073L194.757 155.889C194.528 155.878 194.309 155.788 194.139 155.634C193.968 155.481 193.855 155.274 193.819 155.047L189.55 128.187C189.531 128.072 189.474 127.967 189.386 127.89C189.299 127.813 189.187 127.769 189.071 127.765C188.955 127.761 188.841 127.799 188.749 127.87C188.657 127.941 188.593 128.042 188.567 128.156L182.788 154.018C182.757 154.156 182.697 154.286 182.612 154.4C182.527 154.513 182.419 154.607 182.295 154.676C182.171 154.744 182.034 154.785 181.893 154.797C181.751 154.809 181.609 154.79 181.476 154.743L177.913 154.525C177.707 154.452 177.531 154.313 177.411 154.13C177.291 153.947 177.235 153.729 177.25 153.511L180.361 113.3L198.308 113.691Z" fill="#2F2E41"/>
<path d="M200.057 94.0488C200.658 87.7819 196.05 82.1134 189.77 81.6675C187.064 81.4754 182.863 81.4067 181.479 84.9533C177.307 95.637 184.61 95.3774 182.094 104.634C179.578 113.89 177.356 114.421 180.808 115.089C184.26 115.757 199.784 119.703 199.146 113.188C198.755 109.183 199.457 100.3 200.057 94.0488Z" fill="#9BAAF2"/>
<path d="M182.718 83.8666C183.214 83.6747 183.751 83.617 184.276 83.6992C184.802 83.7815 185.296 84.0009 185.709 84.3352C186.123 84.6696 186.441 85.1071 186.631 85.6035C186.821 86.1 186.877 86.6378 186.793 87.1628L184.832 99.4167C184.497 101.512 183.611 103.481 182.265 105.121L175.897 112.881C175.805 112.992 175.691 113.083 175.562 113.146C175.432 113.209 175.29 113.243 175.146 113.247C175.002 113.25 174.859 113.222 174.727 113.165C174.595 113.108 174.476 113.023 174.38 112.916L172.867 111.236C172.711 111.062 172.62 110.839 172.611 110.605C172.602 110.371 172.675 110.141 172.818 109.956L173.264 109.378C176.968 104.57 179.306 98.851 180.028 92.8248L180.808 86.3254C180.873 85.7808 181.085 85.2643 181.422 84.8312C181.758 84.398 182.206 84.0646 182.718 83.8666Z" fill="#9BAAF2"/>
</g>
<defs>
<clipPath id="clip0">
<rect width="211" height="160.209" fill="white" transform="translate(0 0.867188)"/>
</clipPath>
</defs>
</svg>
