<svg width="211" height="211" viewBox="0 0 211 211" fill="none" xmlns="http://www.w3.org/2000/svg">
<g opacity="0.5" clip-path="url(#clip0)">
<path d="M139.177 56.2922H104.545C103.787 56.2945 103.038 56.1238 102.356 55.7931C101.673 55.4625 101.075 54.9806 100.607 54.384C100.131 53.7819 99.7981 53.079 99.6343 52.3288C99.4705 51.5786 99.4801 50.8009 99.6622 50.055C102.854 36.6857 102.854 22.7528 99.662 9.38361C99.48 8.63768 99.4705 7.86006 99.6344 7.10993C99.7982 6.3598 100.131 5.65693 100.607 5.05477C101.075 4.45822 101.673 3.97627 102.355 3.64561C103.038 3.31496 103.787 3.1443 104.545 3.14663H139.177C140.373 3.15007 141.528 3.57783 142.438 4.35372C143.348 5.12961 143.953 6.20326 144.145 7.38344C146.424 22.1869 146.424 37.2519 144.145 52.0554C143.953 53.2355 143.348 54.3092 142.438 55.0851C141.528 55.861 140.373 56.2887 139.177 56.2922Z" fill="#E6E6E6"/>
<path d="M104.545 5.75245C104.181 5.75123 103.821 5.83307 103.493 5.99175C103.166 6.15042 102.878 6.38175 102.654 6.66814C102.422 6.96157 102.26 7.30394 102.181 7.66921C102.102 8.03448 102.107 8.41303 102.196 8.77605C105.483 22.5448 105.483 36.894 102.196 50.6627C102.107 51.0257 102.102 51.4041 102.181 51.7693C102.26 52.1345 102.422 52.4768 102.653 52.7702L102.654 52.7704C102.878 53.0569 103.166 53.2883 103.493 53.447C103.821 53.6057 104.181 53.6875 104.545 53.6863H139.177C139.751 53.6865 140.307 53.4829 140.745 53.1117C141.183 52.7405 141.475 52.2259 141.569 51.6594C143.808 37.1184 143.808 22.3204 141.569 7.77935C141.475 7.21289 141.183 6.69825 140.745 6.32707C140.307 5.95588 139.751 5.75225 139.177 5.75245L104.545 5.75245Z" fill="white"/>
<path d="M131.619 18.2825H113.446C112.755 18.2817 112.093 18.007 111.604 17.5184C111.116 17.0299 110.841 16.3676 110.84 15.6768V14.6585C110.841 13.9676 111.116 13.3053 111.604 12.8168C112.093 12.3283 112.755 12.0535 113.446 12.0527H131.619C132.31 12.0535 132.973 12.3283 133.461 12.8168C133.95 13.3053 134.224 13.9676 134.225 14.6585V15.6768C134.224 16.3676 133.95 17.03 133.461 17.5185C132.973 18.007 132.31 18.2817 131.619 18.2825Z" fill="#E6E6E6"/>
<path d="M131.619 31.149H113.446C112.755 31.1483 112.093 30.8735 111.604 30.385C111.116 29.8965 110.841 29.2342 110.84 28.5433V27.525C110.841 26.8342 111.116 26.1718 111.604 25.6833C112.093 25.1948 112.755 24.9201 113.446 24.9193H131.619C132.31 24.9201 132.973 25.1948 133.461 25.6833C133.95 26.1718 134.224 26.8342 134.225 27.525V28.5433C134.224 29.2342 133.95 29.8965 133.461 30.385C132.973 30.8735 132.31 31.1483 131.619 31.149Z" fill="#E6E6E6"/>
<path d="M131.619 44.0157H113.446C112.755 44.015 112.093 43.7402 111.604 43.2517C111.116 42.7632 110.841 42.1009 110.84 41.41V40.3917C110.841 39.7009 111.116 39.0385 111.604 38.55C112.093 38.0615 112.755 37.7868 113.446 37.786H131.619C132.31 37.7868 132.973 38.0615 133.461 38.55C133.95 39.0385 134.224 39.7009 134.225 40.3917V41.41C134.224 42.1009 133.95 42.7632 133.461 43.2517C132.973 43.7402 132.31 44.015 131.619 44.0157Z" fill="#E6E6E6"/>
<path d="M204.323 89.2994H169.69C168.932 89.3017 168.184 89.131 167.501 88.8003C166.819 88.4697 166.221 87.9878 165.753 87.3912C165.277 86.7891 164.944 86.0862 164.78 85.336C164.616 84.5858 164.626 83.8081 164.808 83.0622C168 69.6929 168 55.76 164.808 42.3908C164.626 41.6449 164.616 40.8673 164.78 40.1171C164.944 39.367 165.277 38.6641 165.753 38.062C166.221 37.4654 166.819 36.9835 167.501 36.6528C168.184 36.3222 168.932 36.1515 169.69 36.1538H204.323C205.518 36.1573 206.674 36.585 207.584 37.3609C208.494 38.1368 209.098 39.2105 209.291 40.3906C211.57 55.1941 211.57 70.2591 209.291 85.0625C209.098 86.2427 208.494 87.3164 207.584 88.0923C206.674 88.8682 205.518 89.2959 204.323 89.2994Z" fill="#E6E6E6"/>
<path d="M169.69 38.7597C169.326 38.7584 168.967 38.8403 168.639 38.9989C168.311 39.1576 168.024 39.389 167.799 39.6753C167.568 39.9688 167.406 40.3111 167.327 40.6764C167.248 41.0417 167.253 41.4202 167.342 41.7833C170.629 55.552 170.629 69.9012 167.342 83.6699C167.253 84.0329 167.248 84.4113 167.327 84.7765C167.406 85.1417 167.568 85.4841 167.799 85.7774L167.799 85.7776C168.024 86.0641 168.311 86.2955 168.639 86.4542C168.967 86.6129 169.326 86.6948 169.69 86.6935H204.323C204.897 86.6937 205.452 86.4901 205.891 86.1189C206.329 85.7477 206.621 85.2331 206.715 84.6666C208.954 70.1256 208.954 55.3276 206.715 40.7866C206.621 40.2201 206.329 39.7055 205.891 39.3343C205.452 38.9631 204.897 38.7594 204.323 38.7596L169.69 38.7597Z" fill="white"/>
<path d="M135.268 126.867H100.636C99.8449 126.869 99.0638 126.691 98.352 126.346C97.6402 126.001 97.0164 125.498 96.5282 124.876C96.0313 124.248 95.6842 123.515 95.5134 122.733C95.3426 121.95 95.3524 121.14 95.5423 120.362C98.7261 107.026 98.7261 93.1276 95.5421 79.7917C95.3523 79.0139 95.3425 78.203 95.5134 77.4208C95.6842 76.6386 96.0313 75.9056 96.5281 75.2777C97.0163 74.6554 97.6401 74.1526 98.3519 73.8076C99.0638 73.4626 99.8449 73.2845 100.636 73.2869H135.268C136.516 73.2906 137.721 73.737 138.67 74.5466C139.619 75.3562 140.25 76.4765 140.451 77.7078C142.733 92.5331 142.733 107.62 140.451 122.446C140.25 123.677 139.619 124.797 138.67 125.607C137.721 126.417 136.516 126.863 135.268 126.867Z" fill="#F2F2F2"/>
<path d="M196.765 57.8042H178.592C177.901 57.8034 177.238 57.5287 176.75 57.0402C176.261 56.5517 175.987 55.8893 175.986 55.1985V54.1802C175.987 53.4893 176.261 52.827 176.75 52.3385C177.238 51.85 177.901 51.5752 178.592 51.5745H196.765C197.456 51.5752 198.118 51.85 198.607 52.3385C199.095 52.827 199.37 53.4893 199.371 54.1802V55.1985C199.37 55.8893 199.095 56.5517 198.607 57.0402C198.118 57.5287 197.456 57.8034 196.765 57.8042Z" fill="#E6E6E6"/>
<path d="M196.765 70.6709H178.592C177.901 70.6701 177.238 70.3954 176.75 69.9069C176.261 69.4184 175.987 68.756 175.986 68.0652V67.0469C175.987 66.356 176.261 65.6937 176.75 65.2052C177.238 64.7167 177.901 64.4419 178.592 64.4412H196.765C197.456 64.4419 198.118 64.7167 198.607 65.2052C199.095 65.6937 199.37 66.356 199.371 67.0469V68.0652C199.37 68.756 199.095 69.4184 198.607 69.9069C198.118 70.3954 197.456 70.6701 196.765 70.6709Z" fill="#E6E6E6"/>
<path d="M118.049 109.887C123.566 109.887 128.038 105.414 128.038 99.8976C128.038 94.3808 123.566 89.9086 118.049 89.9086C112.532 89.9086 108.06 94.3808 108.06 99.8976C108.06 105.414 112.532 109.887 118.049 109.887Z" fill="white"/>
<path d="M122.826 98.5947H119.352V95.1203C119.352 94.7747 119.215 94.4433 118.97 94.199C118.726 93.9547 118.394 93.8174 118.049 93.8174C117.703 93.8174 117.372 93.9547 117.128 94.199C116.883 94.4433 116.746 94.7747 116.746 95.1203V98.5947H113.272C112.926 98.5947 112.595 98.732 112.35 98.9764C112.106 99.2207 111.969 99.5521 111.969 99.8977C111.969 100.243 112.106 100.575 112.35 100.819C112.595 101.063 112.926 101.201 113.272 101.201H116.746V104.675C116.746 105.021 116.883 105.352 117.128 105.596C117.372 105.841 117.703 105.978 118.049 105.978C118.394 105.978 118.726 105.841 118.97 105.596C119.215 105.352 119.352 105.021 119.352 104.675V101.201H122.826C123.172 101.201 123.503 101.063 123.748 100.819C123.992 100.575 124.129 100.243 124.129 99.8977C124.129 99.5521 123.992 99.2207 123.748 98.9764C123.503 98.732 123.172 98.5947 122.826 98.5947Z" fill="#E6E6E6"/>
<path d="M130.644 8.04212H112.403C111.885 8.04154 111.388 7.83544 111.022 7.46905C110.655 7.10266 110.449 6.6059 110.449 6.08775V2.61331C110.449 2.09516 110.655 1.59839 111.022 1.232C111.388 0.865613 111.885 0.659519 112.403 0.658936H130.644C131.162 0.659519 131.659 0.865613 132.025 1.232C132.391 1.59839 132.597 2.09516 132.598 2.61331V6.08775C132.597 6.6059 132.391 7.10266 132.025 7.46905C131.659 7.83544 131.162 8.04154 130.644 8.04212Z" fill="#CCCCCC"/>
<path d="M196.658 41.4836H178.417C177.899 41.4831 177.402 41.277 177.036 40.9106C176.67 40.5442 176.463 40.0474 176.463 39.5293V36.0548C176.463 35.5367 176.67 35.0399 177.036 34.6735C177.402 34.3071 177.899 34.101 178.417 34.1005H196.658C197.176 34.101 197.673 34.3071 198.039 34.6735C198.406 35.0399 198.612 35.5367 198.612 36.0548V39.5293C198.612 40.0474 198.406 40.5442 198.039 40.9106C197.673 41.277 197.176 41.4831 196.658 41.4836Z" fill="#CCCCCC"/>
<path d="M38.4777 205.243H43.8023L45.467 184.706H38.4768L38.4777 205.243Z" fill="#FFB8B8"/>
<path d="M37.1197 203.505L47.6055 203.504H47.6059C48.4835 203.504 49.3524 203.677 50.1632 204.013C50.9739 204.349 51.7106 204.841 52.3311 205.462C52.9516 206.082 53.4438 206.819 53.7797 207.629C54.1155 208.44 54.2883 209.309 54.2883 210.187V210.404L37.12 210.404L37.1197 203.505Z" fill="#2F2E41"/>
<path d="M9.81355 205.243H15.1381L17.6714 184.706H9.81269L9.81355 205.243Z" fill="#FFB8B8"/>
<path d="M8.45557 203.505L18.9413 203.504H18.9418C19.8193 203.504 20.6883 203.677 21.499 204.013C22.3098 204.349 23.0465 204.841 23.667 205.462C24.2875 206.082 24.7797 206.819 25.1155 207.629C25.4514 208.44 25.6242 209.309 25.6242 210.187V210.404L8.4559 210.404L8.45557 203.505Z" fill="#2F2E41"/>
<path d="M10.7583 198.755C10.2151 198.755 9.69188 198.551 9.29249 198.183C9.07809 197.987 8.90542 197.75 8.78483 197.486C8.66425 197.222 8.59825 196.937 8.59077 196.646L6.45544 120.116L36.7748 127.696L46.1295 155.759C47.3358 159.37 47.858 163.173 47.6693 166.975L46.5077 194.178C46.4812 194.736 46.2411 195.261 45.8371 195.646C45.4332 196.031 44.8966 196.246 44.3386 196.245H39.2534C38.7285 196.243 38.222 196.052 37.8267 195.706C37.4314 195.361 37.174 194.885 37.1015 194.365L33.4668 164.336C33.1492 161.994 32.3297 159.747 31.0643 157.75L23.9116 146.425C23.8637 146.35 23.7937 146.291 23.7111 146.256C23.6284 146.222 23.5372 146.214 23.4498 146.234C23.3625 146.253 23.2833 146.299 23.2231 146.365C23.1629 146.432 23.1246 146.515 23.1135 146.604L17.5003 196.587C17.44 197.094 17.2028 197.563 16.8305 197.913C16.4581 198.262 15.9744 198.469 15.4647 198.496L10.8819 198.751C10.8407 198.754 10.7995 198.755 10.7583 198.755Z" fill="#2F2E41"/>
<path d="M31.7293 70.5677C37.6205 70.5677 42.3963 65.792 42.3963 59.9007C42.3963 54.0095 37.6205 49.2338 31.7293 49.2338C25.8381 49.2338 21.0623 54.0095 21.0623 59.9007C21.0623 65.792 25.8381 70.5677 31.7293 70.5677Z" fill="#FFB8B8"/>
<path d="M36.6295 130.808C36.446 130.808 36.2632 130.785 36.0854 130.739H36.085L6.00321 123.026C5.46538 122.888 5.00076 122.55 4.70487 122.08C4.40899 121.61 4.30432 121.045 4.41241 120.5L11.321 83.2842C11.7514 81.133 12.6975 79.1183 14.078 77.4133C15.4586 75.7082 17.2323 74.3637 19.2469 73.4952C21.2099 72.6264 23.3566 72.2541 25.4975 72.4113C27.6384 72.5685 29.7077 73.2503 31.5228 74.3964C31.944 74.6592 32.3682 74.9457 32.7834 75.2481C34.455 76.4812 35.8182 78.0848 36.766 79.9331C37.7139 81.7815 38.2206 83.8243 38.2465 85.9013L38.7958 128.606C38.7995 128.893 38.7463 129.178 38.6392 129.445C38.532 129.711 38.3732 129.954 38.1718 130.159C37.9703 130.363 37.7303 130.526 37.4656 130.638C37.2009 130.749 36.9167 130.807 36.6295 130.808Z" fill="#9BAAF2"/>
<path d="M9.09839 131.246C8.73954 130.718 8.50085 130.117 8.39911 129.487C8.29738 128.857 8.3351 128.212 8.50959 127.598C8.68407 126.983 8.9911 126.415 9.40904 125.932C9.82698 125.45 10.3457 125.064 10.9286 124.804L9.59055 109.342L16.681 113.185L16.8646 127.279C17.2373 128.287 17.2273 129.397 16.8364 130.398C16.4454 131.4 15.7008 132.223 14.7435 132.712C13.7862 133.201 12.6828 133.322 11.6424 133.051C10.602 132.781 9.6968 132.139 9.09841 131.246H9.09839Z" fill="#FFB8B8"/>
<path d="M11.6315 122.759C11.4315 122.759 11.2322 122.734 11.0384 122.684C10.6215 122.578 10.2411 122.361 9.93748 122.056C9.63382 121.751 9.41818 121.37 9.31337 120.953L5.82886 107.105C4.61112 102.269 5.19162 97.1552 7.46238 92.7149L14.7625 78.4341C15.224 76.7243 16.339 75.2644 17.8671 74.3692C19.3952 73.474 21.2139 73.2152 22.931 73.6487C23.7869 73.8648 24.5913 74.2487 25.2977 74.7781C26.004 75.3074 26.5983 75.9718 27.046 76.7325C27.5029 77.5042 27.8017 78.359 27.925 79.2473C28.0483 80.1356 27.9937 81.0395 27.7643 81.9064L17.3725 105.144L17.4959 119.058C17.4991 119.548 17.3515 120.028 17.0731 120.433C16.7947 120.837 16.3989 121.146 15.9392 121.318L12.4616 122.609C12.196 122.708 11.9149 122.759 11.6315 122.759Z" fill="#9BAAF2"/>
<path d="M61.375 125.558C60.7406 125.486 60.1299 125.275 59.5858 124.941C59.0417 124.607 58.5775 124.158 58.2258 123.625C57.8742 123.092 57.6436 122.488 57.5504 121.857C57.4572 121.225 57.5036 120.581 57.6864 119.969L45.0945 110.897L52.6325 108.03L63.4344 117.084C64.4417 117.46 65.2764 118.191 65.7804 119.141C66.2843 120.09 66.4224 121.192 66.1686 122.236C65.9147 123.281 65.2865 124.196 64.403 124.808C63.5196 125.42 62.4421 125.687 61.375 125.558H61.375Z" fill="#FFB8B8"/>
<path d="M54.7832 118.933C54.4119 118.933 54.0458 118.847 53.7136 118.681L40.9454 112.289C36.4857 110.057 32.9884 106.281 31.1038 101.664L25.0421 86.8147C24.0473 85.3494 23.6682 83.5519 23.9865 81.8097C24.3048 80.0675 25.295 78.5201 26.7436 77.5013C27.4673 76.9923 28.2852 76.6326 29.1494 76.4429C30.0136 76.2533 30.9069 76.2375 31.7773 76.3966C32.6579 76.555 33.4983 76.8865 34.2498 77.372C35.0014 77.8575 35.6491 78.4873 36.1555 79.2249L46.9892 102.26L57.6148 111.243C57.989 111.561 58.2566 111.985 58.3814 112.46C58.5062 112.935 58.4822 113.437 58.3126 113.897L57.0229 117.375C56.8545 117.831 56.5503 118.225 56.1513 118.503C55.7502 118.783 55.2726 118.934 54.7832 118.933Z" fill="#9BAAF2"/>
<path d="M29.4894 70.731C30.0561 70.979 31.2168 66.463 30.6969 65.5597C29.9237 64.2164 29.9694 64.2261 29.4561 63.3374C28.9429 62.4487 28.828 61.2322 29.4927 60.4503C30.1574 59.6683 31.6955 59.772 31.9988 60.7525C31.8037 58.8903 33.6457 57.3933 35.4702 56.9727C37.2948 56.552 39.2193 56.8132 41.0539 56.4388C43.1831 56.0044 45.3984 54.2196 44.5489 51.8783C44.4031 51.4885 44.1848 51.1298 43.9056 50.8212C42.9241 49.7176 41.5512 49.2464 40.2088 48.7908C37.4162 47.843 34.5472 46.8832 31.6 46.9878C29.1716 47.1148 26.8329 47.9469 24.8701 49.3824C22.9073 50.8178 21.4055 52.7943 20.5485 55.0699C20.3454 55.6392 20.1881 56.2238 20.078 56.8182C19.0664 62.2575 22.225 67.6228 27.3553 69.6941L29.4894 70.731Z" fill="#2F2E41"/>
<path opacity="0.2" d="M16.8945 119.373L17.1364 105.072L24.712 89.8405L18.6317 105.475L16.8945 119.373Z" fill="black"/>
<path d="M85.5916 155.264L53.6101 141.976C52.9091 141.687 52.2832 141.242 51.78 140.675C51.2768 140.108 50.9096 139.434 50.7063 138.703C50.4973 137.964 50.4597 137.188 50.5963 136.432C50.7328 135.676 51.04 134.962 51.4944 134.343C59.5715 123.221 64.9172 110.355 67.0991 96.7842C67.2173 96.0256 67.5069 95.3039 67.946 94.674C68.3851 94.0441 68.9621 93.5227 69.633 93.1494C70.2941 92.7781 71.0311 92.5624 71.7881 92.5189C72.545 92.4753 73.3019 92.605 74.0012 92.898L105.983 106.186C107.086 106.648 107.989 107.486 108.531 108.552C109.074 109.617 109.22 110.841 108.945 112.005C105.37 126.549 99.5896 140.462 91.805 153.257C91.1747 154.274 90.2042 155.033 89.0664 155.4C87.9285 155.768 86.6971 155.719 85.5916 155.264Z" fill="#E6E6E6"/>
<path d="M73.0014 95.3045C72.6656 95.1637 72.3021 95.1013 71.9386 95.1221C71.5751 95.1429 71.2211 95.2463 70.9036 95.4245C70.5772 95.6066 70.2966 95.8608 70.0833 96.1677C69.8699 96.4746 69.7293 96.8261 69.6722 97.1955C67.4251 111.172 61.9196 124.423 53.6012 135.876C53.3796 136.177 53.2297 136.525 53.1628 136.893C53.0958 137.26 53.1136 137.638 53.2149 137.998L53.215 137.998C53.3126 138.349 53.4891 138.673 53.7308 138.945C53.9725 139.218 54.2732 139.431 54.6099 139.57L86.5914 152.858C87.1216 153.078 87.7129 153.103 88.2599 152.928C88.8069 152.754 89.2742 152.391 89.5785 151.904C97.2251 139.335 102.903 125.669 106.415 111.382C106.545 110.823 106.473 110.235 106.21 109.725C105.948 109.214 105.513 108.812 104.983 108.592L73.0014 95.3045Z" fill="white"/>
<path d="M90.0302 124.884L73.2476 117.911C72.6099 117.645 72.1037 117.137 71.84 116.499C71.5763 115.86 71.5767 115.143 71.8411 114.505L72.2318 113.565C72.4975 112.927 73.0054 112.421 73.644 112.157C74.2825 111.893 74.9996 111.894 75.6379 112.158L92.4204 119.131C93.0581 119.397 93.5643 119.905 93.828 120.543C94.0917 121.182 94.0913 121.899 93.8269 122.537L93.4362 123.477C93.1705 124.115 92.6626 124.621 92.0241 124.885C91.3855 125.149 90.6685 125.148 90.0302 124.884Z" fill="#9BAAF2"/>
<path d="M85.0935 136.766L68.3109 129.793C67.6732 129.527 67.167 129.019 66.9033 128.381C66.6396 127.742 66.64 127.025 66.9043 126.387L67.295 125.446C67.5608 124.809 68.0687 124.302 68.7072 124.039C69.3458 123.775 70.0629 123.775 70.7011 124.04L87.4837 131.013C88.1214 131.279 88.6276 131.786 88.8913 132.425C89.155 133.063 89.1546 133.781 88.8902 134.419L88.4995 135.359C88.2338 135.997 87.7259 136.503 87.0874 136.767C86.4488 137.03 85.7317 137.03 85.0935 136.766Z" fill="#9BAAF2"/>
<path d="M96.755 108.185C96.5038 108.185 96.2549 108.136 96.0222 108.042L79.1112 101.204C78.6311 101.01 78.2478 100.632 78.0455 100.155C77.8431 99.6784 77.8382 99.1406 78.0318 98.6601L79.3342 95.4388C79.5286 94.9583 79.9058 94.5747 80.383 94.3723C80.8601 94.1699 81.3981 94.1654 81.8787 94.3596L98.7896 101.197C99.2698 101.392 99.653 101.769 99.8554 102.246C100.058 102.723 100.063 103.26 99.869 103.741L98.5666 106.962C98.4203 107.323 98.1699 107.632 97.8472 107.85C97.5245 108.068 97.1443 108.184 96.755 108.185Z" fill="#CCCCCC"/>
<path d="M61.237 210.645H0.434301C0.319116 210.645 0.208655 210.6 0.127207 210.518C0.0457595 210.437 -3.8147e-06 210.326 -3.8147e-06 210.211C-3.8147e-06 210.096 0.0457595 209.985 0.127207 209.904C0.208655 209.822 0.319116 209.777 0.434301 209.777H61.237C61.3522 209.777 61.4627 209.822 61.5441 209.904C61.6256 209.985 61.6713 210.096 61.6713 210.211C61.6713 210.326 61.6256 210.437 61.5441 210.518C61.4627 210.6 61.3522 210.645 61.237 210.645Z" fill="#CCCCCC"/>
</g>
<defs>
<clipPath id="clip0">
<rect width="211" height="209.986" fill="white" transform="translate(0 0.658936)"/>
</clipPath>
</defs>
</svg>
