<svg width="211" height="159" viewBox="0 0 211 159" fill="none" xmlns="http://www.w3.org/2000/svg">
<g opacity="0.5" clip-path="url(#clip0)">
<path d="M210.906 153.602H147.19V153.081H211L210.906 153.602Z" fill="#3F3D56"/>
<path d="M10.2239 4.3186C11.2382 4.3186 12.0604 3.49637 12.0604 2.48211C12.0604 1.46785 11.2382 0.64563 10.2239 0.64563C9.20968 0.64563 8.38745 1.46785 8.38745 2.48211C8.38745 3.49637 9.20968 4.3186 10.2239 4.3186Z" fill="#E6E6E6"/>
<path d="M19.5202 4.3186C20.5344 4.3186 21.3567 3.49637 21.3567 2.48211C21.3567 1.46785 20.5344 0.64563 19.5202 0.64563C18.5059 0.64563 17.6837 1.46785 17.6837 2.48211C17.6837 3.49637 18.5059 4.3186 19.5202 4.3186Z" fill="#E6E6E6"/>
<path d="M28.8164 4.3186C29.8307 4.3186 30.6529 3.49637 30.6529 2.48211C30.6529 1.46785 29.8307 0.64563 28.8164 0.64563C27.8022 0.64563 26.9799 1.46785 26.9799 2.48211C26.9799 3.49637 27.8022 4.3186 28.8164 4.3186Z" fill="#E6E6E6"/>
<path d="M38.1127 4.3186C39.1269 4.3186 39.9492 3.49637 39.9492 2.48211C39.9492 1.46785 39.1269 0.64563 38.1127 0.64563C37.0984 0.64563 36.2762 1.46785 36.2762 2.48211C36.2762 3.49637 37.0984 4.3186 38.1127 4.3186Z" fill="#E6E6E6"/>
<path d="M47.4089 4.3186C48.4232 4.3186 49.2454 3.49637 49.2454 2.48211C49.2454 1.46785 48.4232 0.64563 47.4089 0.64563C46.3947 0.64563 45.5724 1.46785 45.5724 2.48211C45.5724 3.49637 46.3947 4.3186 47.4089 4.3186Z" fill="#E6E6E6"/>
<path d="M56.7052 4.3186C57.7194 4.3186 58.5417 3.49637 58.5417 2.48211C58.5417 1.46785 57.7194 0.64563 56.7052 0.64563C55.6909 0.64563 54.8687 1.46785 54.8687 2.48211C54.8687 3.49637 55.6909 4.3186 56.7052 4.3186Z" fill="#E6E6E6"/>
<path d="M66.0014 4.3186C67.0157 4.3186 67.8379 3.49637 67.8379 2.48211C67.8379 1.46785 67.0157 0.64563 66.0014 0.64563C64.9872 0.64563 64.1649 1.46785 64.1649 2.48211C64.1649 3.49637 64.9872 4.3186 66.0014 4.3186Z" fill="#E6E6E6"/>
<path d="M75.2977 4.3186C76.3119 4.3186 77.1342 3.49637 77.1342 2.48211C77.1342 1.46785 76.3119 0.64563 75.2977 0.64563C74.2834 0.64563 73.4612 1.46785 73.4612 2.48211C73.4612 3.49637 74.2834 4.3186 75.2977 4.3186Z" fill="#E6E6E6"/>
<path d="M84.5939 4.3186C85.6082 4.3186 86.4304 3.49637 86.4304 2.48211C86.4304 1.46785 85.6082 0.64563 84.5939 0.64563C83.5797 0.64563 82.7574 1.46785 82.7574 2.48211C82.7574 3.49637 83.5797 4.3186 84.5939 4.3186Z" fill="#E6E6E6"/>
<path d="M93.8902 4.3186C94.9045 4.3186 95.7267 3.49637 95.7267 2.48211C95.7267 1.46785 94.9045 0.64563 93.8902 0.64563C92.8759 0.64563 92.0537 1.46785 92.0537 2.48211C92.0537 3.49637 92.8759 4.3186 93.8902 4.3186Z" fill="#E6E6E6"/>
<path d="M10.2239 13.7314C11.2382 13.7314 12.0604 12.9092 12.0604 11.895C12.0604 10.8807 11.2382 10.0585 10.2239 10.0585C9.20968 10.0585 8.38745 10.8807 8.38745 11.895C8.38745 12.9092 9.20968 13.7314 10.2239 13.7314Z" fill="#E6E6E6"/>
<path d="M19.5202 13.7314C20.5344 13.7314 21.3567 12.9092 21.3567 11.895C21.3567 10.8807 20.5344 10.0585 19.5202 10.0585C18.5059 10.0585 17.6837 10.8807 17.6837 11.895C17.6837 12.9092 18.5059 13.7314 19.5202 13.7314Z" fill="#E6E6E6"/>
<path d="M28.8164 13.7314C29.8307 13.7314 30.6529 12.9092 30.6529 11.895C30.6529 10.8807 29.8307 10.0585 28.8164 10.0585C27.8022 10.0585 26.9799 10.8807 26.9799 11.895C26.9799 12.9092 27.8022 13.7314 28.8164 13.7314Z" fill="#E6E6E6"/>
<path d="M38.1127 13.7314C39.1269 13.7314 39.9492 12.9092 39.9492 11.895C39.9492 10.8807 39.1269 10.0585 38.1127 10.0585C37.0984 10.0585 36.2762 10.8807 36.2762 11.895C36.2762 12.9092 37.0984 13.7314 38.1127 13.7314Z" fill="#9BAAF2"/>
<path d="M47.4089 13.7314C48.4232 13.7314 49.2454 12.9092 49.2454 11.895C49.2454 10.8807 48.4232 10.0585 47.4089 10.0585C46.3947 10.0585 45.5724 10.8807 45.5724 11.895C45.5724 12.9092 46.3947 13.7314 47.4089 13.7314Z" fill="#E6E6E6"/>
<path d="M56.7052 13.7314C57.7194 13.7314 58.5417 12.9092 58.5417 11.895C58.5417 10.8807 57.7194 10.0585 56.7052 10.0585C55.6909 10.0585 54.8687 10.8807 54.8687 11.895C54.8687 12.9092 55.6909 13.7314 56.7052 13.7314Z" fill="#E6E6E6"/>
<path d="M66.0014 13.7314C67.0157 13.7314 67.8379 12.9092 67.8379 11.895C67.8379 10.8807 67.0157 10.0585 66.0014 10.0585C64.9872 10.0585 64.1649 10.8807 64.1649 11.895C64.1649 12.9092 64.9872 13.7314 66.0014 13.7314Z" fill="#E6E6E6"/>
<path d="M75.2977 13.7314C76.3119 13.7314 77.1342 12.9092 77.1342 11.895C77.1342 10.8807 76.3119 10.0585 75.2977 10.0585C74.2834 10.0585 73.4612 10.8807 73.4612 11.895C73.4612 12.9092 74.2834 13.7314 75.2977 13.7314Z" fill="#E6E6E6"/>
<path d="M84.5939 13.7314C85.6082 13.7314 86.4304 12.9092 86.4304 11.895C86.4304 10.8807 85.6082 10.0585 84.5939 10.0585C83.5797 10.0585 82.7574 10.8807 82.7574 11.895C82.7574 12.9092 83.5797 13.7314 84.5939 13.7314Z" fill="#E6E6E6"/>
<path d="M93.8902 13.7314C94.9045 13.7314 95.7267 12.9092 95.7267 11.895C95.7267 10.8807 94.9045 10.0585 93.8902 10.0585C92.8759 10.0585 92.0537 10.8807 92.0537 11.895C92.0537 12.9092 92.8759 13.7314 93.8902 13.7314Z" fill="#E6E6E6"/>
<path d="M10.2239 23.1444C11.2382 23.1444 12.0604 22.3222 12.0604 21.3079C12.0604 20.2937 11.2382 19.4714 10.2239 19.4714C9.20968 19.4714 8.38745 20.2937 8.38745 21.3079C8.38745 22.3222 9.20968 23.1444 10.2239 23.1444Z" fill="#E6E6E6"/>
<path d="M19.5202 23.1444C20.5344 23.1444 21.3567 22.3222 21.3567 21.3079C21.3567 20.2937 20.5344 19.4714 19.5202 19.4714C18.5059 19.4714 17.6837 20.2937 17.6837 21.3079C17.6837 22.3222 18.5059 23.1444 19.5202 23.1444Z" fill="#E6E6E6"/>
<path d="M28.8164 23.1444C29.8307 23.1444 30.6529 22.3222 30.6529 21.3079C30.6529 20.2937 29.8307 19.4714 28.8164 19.4714C27.8022 19.4714 26.9799 20.2937 26.9799 21.3079C26.9799 22.3222 27.8022 23.1444 28.8164 23.1444Z" fill="#E6E6E6"/>
<path d="M38.1127 23.1444C39.1269 23.1444 39.9492 22.3222 39.9492 21.3079C39.9492 20.2937 39.1269 19.4714 38.1127 19.4714C37.0984 19.4714 36.2762 20.2937 36.2762 21.3079C36.2762 22.3222 37.0984 23.1444 38.1127 23.1444Z" fill="#E6E6E6"/>
<path d="M47.4089 23.1444C48.4232 23.1444 49.2454 22.3222 49.2454 21.3079C49.2454 20.2937 48.4232 19.4714 47.4089 19.4714C46.3947 19.4714 45.5724 20.2937 45.5724 21.3079C45.5724 22.3222 46.3947 23.1444 47.4089 23.1444Z" fill="#E6E6E6"/>
<path d="M56.7052 23.1444C57.7194 23.1444 58.5417 22.3222 58.5417 21.3079C58.5417 20.2937 57.7194 19.4714 56.7052 19.4714C55.6909 19.4714 54.8687 20.2937 54.8687 21.3079C54.8687 22.3222 55.6909 23.1444 56.7052 23.1444Z" fill="#E6E6E6"/>
<path d="M66.0014 23.1444C67.0157 23.1444 67.8379 22.3222 67.8379 21.3079C67.8379 20.2937 67.0157 19.4714 66.0014 19.4714C64.9872 19.4714 64.1649 20.2937 64.1649 21.3079C64.1649 22.3222 64.9872 23.1444 66.0014 23.1444Z" fill="#E6E6E6"/>
<path d="M75.2977 23.1444C76.3119 23.1444 77.1342 22.3222 77.1342 21.3079C77.1342 20.2937 76.3119 19.4714 75.2977 19.4714C74.2834 19.4714 73.4612 20.2937 73.4612 21.3079C73.4612 22.3222 74.2834 23.1444 75.2977 23.1444Z" fill="#E6E6E6"/>
<path d="M84.5939 23.1444C85.6082 23.1444 86.4304 22.3222 86.4304 21.3079C86.4304 20.2937 85.6082 19.4714 84.5939 19.4714C83.5797 19.4714 82.7574 20.2937 82.7574 21.3079C82.7574 22.3222 83.5797 23.1444 84.5939 23.1444Z" fill="#E6E6E6"/>
<path d="M93.8902 23.1444C94.9045 23.1444 95.7267 22.3222 95.7267 21.3079C95.7267 20.2937 94.9045 19.4714 93.8902 19.4714C92.8759 19.4714 92.0537 20.2937 92.0537 21.3079C92.0537 22.3222 92.8759 23.1444 93.8902 23.1444Z" fill="#E6E6E6"/>
<path d="M10.2239 32.5574C11.2382 32.5574 12.0604 31.7351 12.0604 30.7209C12.0604 29.7066 11.2382 28.8844 10.2239 28.8844C9.20968 28.8844 8.38745 29.7066 8.38745 30.7209C8.38745 31.7351 9.20968 32.5574 10.2239 32.5574Z" fill="#E6E6E6"/>
<path d="M19.5202 32.5574C20.5344 32.5574 21.3567 31.7351 21.3567 30.7209C21.3567 29.7066 20.5344 28.8844 19.5202 28.8844C18.5059 28.8844 17.6837 29.7066 17.6837 30.7209C17.6837 31.7351 18.5059 32.5574 19.5202 32.5574Z" fill="#E6E6E6"/>
<path d="M28.8164 32.5574C29.8307 32.5574 30.6529 31.7351 30.6529 30.7209C30.6529 29.7066 29.8307 28.8844 28.8164 28.8844C27.8022 28.8844 26.9799 29.7066 26.9799 30.7209C26.9799 31.7351 27.8022 32.5574 28.8164 32.5574Z" fill="#E6E6E6"/>
<path d="M38.1127 32.5574C39.1269 32.5574 39.9492 31.7351 39.9492 30.7209C39.9492 29.7066 39.1269 28.8844 38.1127 28.8844C37.0984 28.8844 36.2762 29.7066 36.2762 30.7209C36.2762 31.7351 37.0984 32.5574 38.1127 32.5574Z" fill="#E6E6E6"/>
<path d="M47.4089 32.5574C48.4232 32.5574 49.2454 31.7351 49.2454 30.7209C49.2454 29.7066 48.4232 28.8844 47.4089 28.8844C46.3947 28.8844 45.5724 29.7066 45.5724 30.7209C45.5724 31.7351 46.3947 32.5574 47.4089 32.5574Z" fill="#E6E6E6"/>
<path d="M56.7052 32.5574C57.7194 32.5574 58.5417 31.7351 58.5417 30.7209C58.5417 29.7066 57.7194 28.8844 56.7052 28.8844C55.6909 28.8844 54.8687 29.7066 54.8687 30.7209C54.8687 31.7351 55.6909 32.5574 56.7052 32.5574Z" fill="#E6E6E6"/>
<path d="M66.0014 32.5574C67.0157 32.5574 67.8379 31.7351 67.8379 30.7209C67.8379 29.7066 67.0157 28.8844 66.0014 28.8844C64.9872 28.8844 64.1649 29.7066 64.1649 30.7209C64.1649 31.7351 64.9872 32.5574 66.0014 32.5574Z" fill="#E6E6E6"/>
<path d="M75.2977 32.5574C76.3119 32.5574 77.1342 31.7351 77.1342 30.7209C77.1342 29.7066 76.3119 28.8844 75.2977 28.8844C74.2834 28.8844 73.4612 29.7066 73.4612 30.7209C73.4612 31.7351 74.2834 32.5574 75.2977 32.5574Z" fill="#E6E6E6"/>
<path d="M84.5939 32.5574C85.6082 32.5574 86.4304 31.7351 86.4304 30.7209C86.4304 29.7066 85.6082 28.8844 84.5939 28.8844C83.5797 28.8844 82.7574 29.7066 82.7574 30.7209C82.7574 31.7351 83.5797 32.5574 84.5939 32.5574Z" fill="#E6E6E6"/>
<path d="M93.8902 32.5574C94.9045 32.5574 95.7267 31.7351 95.7267 30.7209C95.7267 29.7066 94.9045 28.8844 93.8902 28.8844C92.8759 28.8844 92.0537 29.7066 92.0537 30.7209C92.0537 31.7351 92.8759 32.5574 93.8902 32.5574Z" fill="#E6E6E6"/>
<path d="M10.2239 41.9703C11.2382 41.9703 12.0604 41.1481 12.0604 40.1338C12.0604 39.1196 11.2382 38.2974 10.2239 38.2974C9.20968 38.2974 8.38745 39.1196 8.38745 40.1338C8.38745 41.1481 9.20968 41.9703 10.2239 41.9703Z" fill="#E6E6E6"/>
<path d="M19.5202 41.9703C20.5344 41.9703 21.3567 41.1481 21.3567 40.1338C21.3567 39.1196 20.5344 38.2974 19.5202 38.2974C18.5059 38.2974 17.6837 39.1196 17.6837 40.1338C17.6837 41.1481 18.5059 41.9703 19.5202 41.9703Z" fill="#9BAAF2"/>
<path d="M28.8164 41.9703C29.8307 41.9703 30.6529 41.1481 30.6529 40.1338C30.6529 39.1196 29.8307 38.2974 28.8164 38.2974C27.8022 38.2974 26.9799 39.1196 26.9799 40.1338C26.9799 41.1481 27.8022 41.9703 28.8164 41.9703Z" fill="#E6E6E6"/>
<path d="M38.1127 41.9703C39.1269 41.9703 39.9492 41.1481 39.9492 40.1338C39.9492 39.1196 39.1269 38.2974 38.1127 38.2974C37.0984 38.2974 36.2762 39.1196 36.2762 40.1338C36.2762 41.1481 37.0984 41.9703 38.1127 41.9703Z" fill="#E6E6E6"/>
<path d="M47.4089 41.9703C48.4232 41.9703 49.2454 41.1481 49.2454 40.1338C49.2454 39.1196 48.4232 38.2974 47.4089 38.2974C46.3947 38.2974 45.5724 39.1196 45.5724 40.1338C45.5724 41.1481 46.3947 41.9703 47.4089 41.9703Z" fill="#E6E6E6"/>
<path d="M56.7052 41.9703C57.7194 41.9703 58.5417 41.1481 58.5417 40.1338C58.5417 39.1196 57.7194 38.2974 56.7052 38.2974C55.6909 38.2974 54.8687 39.1196 54.8687 40.1338C54.8687 41.1481 55.6909 41.9703 56.7052 41.9703Z" fill="#E6E6E6"/>
<path d="M66.0014 41.9703C67.0157 41.9703 67.8379 41.1481 67.8379 40.1338C67.8379 39.1196 67.0157 38.2974 66.0014 38.2974C64.9872 38.2974 64.1649 39.1196 64.1649 40.1338C64.1649 41.1481 64.9872 41.9703 66.0014 41.9703Z" fill="#E6E6E6"/>
<path d="M75.2977 41.9703C76.3119 41.9703 77.1342 41.1481 77.1342 40.1338C77.1342 39.1196 76.3119 38.2974 75.2977 38.2974C74.2834 38.2974 73.4612 39.1196 73.4612 40.1338C73.4612 41.1481 74.2834 41.9703 75.2977 41.9703Z" fill="#E6E6E6"/>
<path d="M84.5939 41.9703C85.6082 41.9703 86.4304 41.1481 86.4304 40.1338C86.4304 39.1196 85.6082 38.2974 84.5939 38.2974C83.5797 38.2974 82.7574 39.1196 82.7574 40.1338C82.7574 41.1481 83.5797 41.9703 84.5939 41.9703Z" fill="#E6E6E6"/>
<path d="M93.8902 41.9703C94.9045 41.9703 95.7267 41.1481 95.7267 40.1338C95.7267 39.1196 94.9045 38.2974 93.8902 38.2974C92.8759 38.2974 92.0537 39.1196 92.0537 40.1338C92.0537 41.1481 92.8759 41.9703 93.8902 41.9703Z" fill="#E6E6E6"/>
<path d="M10.2239 51.3832C11.2382 51.3832 12.0604 50.5609 12.0604 49.5467C12.0604 48.5324 11.2382 47.7102 10.2239 47.7102C9.20968 47.7102 8.38745 48.5324 8.38745 49.5467C8.38745 50.5609 9.20968 51.3832 10.2239 51.3832Z" fill="#E6E6E6"/>
<path d="M19.5202 51.3832C20.5344 51.3832 21.3567 50.5609 21.3567 49.5467C21.3567 48.5324 20.5344 47.7102 19.5202 47.7102C18.5059 47.7102 17.6837 48.5324 17.6837 49.5467C17.6837 50.5609 18.5059 51.3832 19.5202 51.3832Z" fill="#E6E6E6"/>
<path d="M28.8164 51.3832C29.8307 51.3832 30.6529 50.5609 30.6529 49.5467C30.6529 48.5324 29.8307 47.7102 28.8164 47.7102C27.8022 47.7102 26.9799 48.5324 26.9799 49.5467C26.9799 50.5609 27.8022 51.3832 28.8164 51.3832Z" fill="#E6E6E6"/>
<path d="M38.1127 51.3832C39.1269 51.3832 39.9492 50.5609 39.9492 49.5467C39.9492 48.5324 39.1269 47.7102 38.1127 47.7102C37.0984 47.7102 36.2762 48.5324 36.2762 49.5467C36.2762 50.5609 37.0984 51.3832 38.1127 51.3832Z" fill="#E6E6E6"/>
<path d="M47.4089 51.3832C48.4232 51.3832 49.2454 50.5609 49.2454 49.5467C49.2454 48.5324 48.4232 47.7102 47.4089 47.7102C46.3947 47.7102 45.5724 48.5324 45.5724 49.5467C45.5724 50.5609 46.3947 51.3832 47.4089 51.3832Z" fill="#E6E6E6"/>
<path d="M56.7052 51.3832C57.7194 51.3832 58.5417 50.5609 58.5417 49.5467C58.5417 48.5324 57.7194 47.7102 56.7052 47.7102C55.6909 47.7102 54.8687 48.5324 54.8687 49.5467C54.8687 50.5609 55.6909 51.3832 56.7052 51.3832Z" fill="#E6E6E6"/>
<path d="M66.0014 51.3832C67.0157 51.3832 67.8379 50.5609 67.8379 49.5467C67.8379 48.5324 67.0157 47.7102 66.0014 47.7102C64.9872 47.7102 64.1649 48.5324 64.1649 49.5467C64.1649 50.5609 64.9872 51.3832 66.0014 51.3832Z" fill="#E6E6E6"/>
<path d="M75.2977 51.3832C76.3119 51.3832 77.1342 50.5609 77.1342 49.5467C77.1342 48.5324 76.3119 47.7102 75.2977 47.7102C74.2834 47.7102 73.4612 48.5324 73.4612 49.5467C73.4612 50.5609 74.2834 51.3832 75.2977 51.3832Z" fill="#E6E6E6"/>
<path d="M84.5939 51.3832C85.6082 51.3832 86.4304 50.5609 86.4304 49.5467C86.4304 48.5324 85.6082 47.7102 84.5939 47.7102C83.5797 47.7102 82.7574 48.5324 82.7574 49.5467C82.7574 50.5609 83.5797 51.3832 84.5939 51.3832Z" fill="#E6E6E6"/>
<path d="M93.8902 51.3832C94.9045 51.3832 95.7267 50.5609 95.7267 49.5467C95.7267 48.5324 94.9045 47.7102 93.8902 47.7102C92.8759 47.7102 92.0537 48.5324 92.0537 49.5467C92.0537 50.5609 92.8759 51.3832 93.8902 51.3832Z" fill="#E6E6E6"/>
<path d="M10.2239 60.7961C11.2382 60.7961 12.0604 59.9739 12.0604 58.9596C12.0604 57.9454 11.2382 57.1232 10.2239 57.1232C9.20968 57.1232 8.38745 57.9454 8.38745 58.9596C8.38745 59.9739 9.20968 60.7961 10.2239 60.7961Z" fill="#E6E6E6"/>
<path d="M19.5202 60.7961C20.5344 60.7961 21.3567 59.9739 21.3567 58.9596C21.3567 57.9454 20.5344 57.1232 19.5202 57.1232C18.5059 57.1232 17.6837 57.9454 17.6837 58.9596C17.6837 59.9739 18.5059 60.7961 19.5202 60.7961Z" fill="#E6E6E6"/>
<path d="M28.8164 60.7961C29.8307 60.7961 30.6529 59.9739 30.6529 58.9596C30.6529 57.9454 29.8307 57.1232 28.8164 57.1232C27.8022 57.1232 26.9799 57.9454 26.9799 58.9596C26.9799 59.9739 27.8022 60.7961 28.8164 60.7961Z" fill="#9BAAF2"/>
<path d="M38.1127 60.7961C39.1269 60.7961 39.9492 59.9739 39.9492 58.9596C39.9492 57.9454 39.1269 57.1232 38.1127 57.1232C37.0984 57.1232 36.2762 57.9454 36.2762 58.9596C36.2762 59.9739 37.0984 60.7961 38.1127 60.7961Z" fill="#E6E6E6"/>
<path d="M47.4089 60.7961C48.4232 60.7961 49.2454 59.9739 49.2454 58.9596C49.2454 57.9454 48.4232 57.1232 47.4089 57.1232C46.3947 57.1232 45.5724 57.9454 45.5724 58.9596C45.5724 59.9739 46.3947 60.7961 47.4089 60.7961Z" fill="#E6E6E6"/>
<path d="M56.7052 60.7961C57.7194 60.7961 58.5417 59.9739 58.5417 58.9596C58.5417 57.9454 57.7194 57.1232 56.7052 57.1232C55.6909 57.1232 54.8687 57.9454 54.8687 58.9596C54.8687 59.9739 55.6909 60.7961 56.7052 60.7961Z" fill="#E6E6E6"/>
<path d="M66.0014 60.7961C67.0157 60.7961 67.8379 59.9739 67.8379 58.9596C67.8379 57.9454 67.0157 57.1232 66.0014 57.1232C64.9872 57.1232 64.1649 57.9454 64.1649 58.9596C64.1649 59.9739 64.9872 60.7961 66.0014 60.7961Z" fill="#E6E6E6"/>
<path d="M75.2977 60.7961C76.3119 60.7961 77.1342 59.9739 77.1342 58.9596C77.1342 57.9454 76.3119 57.1232 75.2977 57.1232C74.2834 57.1232 73.4612 57.9454 73.4612 58.9596C73.4612 59.9739 74.2834 60.7961 75.2977 60.7961Z" fill="#E6E6E6"/>
<path d="M84.5939 60.7961C85.6082 60.7961 86.4304 59.9739 86.4304 58.9596C86.4304 57.9454 85.6082 57.1232 84.5939 57.1232C83.5797 57.1232 82.7574 57.9454 82.7574 58.9596C82.7574 59.9739 83.5797 60.7961 84.5939 60.7961Z" fill="#E6E6E6"/>
<path d="M93.8902 60.7961C94.9045 60.7961 95.7267 59.9739 95.7267 58.9596C95.7267 57.9454 94.9045 57.1232 93.8902 57.1232C92.8759 57.1232 92.0537 57.9454 92.0537 58.9596C92.0537 59.9739 92.8759 60.7961 93.8902 60.7961Z" fill="#E6E6E6"/>
<path d="M10.2239 70.2091C11.2382 70.2091 12.0604 69.3869 12.0604 68.3726C12.0604 67.3584 11.2382 66.5361 10.2239 66.5361C9.20968 66.5361 8.38745 67.3584 8.38745 68.3726C8.38745 69.3869 9.20968 70.2091 10.2239 70.2091Z" fill="#E6E6E6"/>
<path d="M19.5202 70.2091C20.5344 70.2091 21.3567 69.3869 21.3567 68.3726C21.3567 67.3584 20.5344 66.5361 19.5202 66.5361C18.5059 66.5361 17.6837 67.3584 17.6837 68.3726C17.6837 69.3869 18.5059 70.2091 19.5202 70.2091Z" fill="#E6E6E6"/>
<path d="M28.8164 70.2091C29.8307 70.2091 30.6529 69.3869 30.6529 68.3726C30.6529 67.3584 29.8307 66.5361 28.8164 66.5361C27.8022 66.5361 26.9799 67.3584 26.9799 68.3726C26.9799 69.3869 27.8022 70.2091 28.8164 70.2091Z" fill="#E6E6E6"/>
<path d="M38.1127 70.2091C39.1269 70.2091 39.9492 69.3869 39.9492 68.3726C39.9492 67.3584 39.1269 66.5361 38.1127 66.5361C37.0984 66.5361 36.2762 67.3584 36.2762 68.3726C36.2762 69.3869 37.0984 70.2091 38.1127 70.2091Z" fill="#E6E6E6"/>
<path d="M47.4089 70.2091C48.4232 70.2091 49.2454 69.3869 49.2454 68.3726C49.2454 67.3584 48.4232 66.5361 47.4089 66.5361C46.3947 66.5361 45.5724 67.3584 45.5724 68.3726C45.5724 69.3869 46.3947 70.2091 47.4089 70.2091Z" fill="#E6E6E6"/>
<path d="M56.7052 70.2091C57.7194 70.2091 58.5417 69.3869 58.5417 68.3726C58.5417 67.3584 57.7194 66.5361 56.7052 66.5361C55.6909 66.5361 54.8687 67.3584 54.8687 68.3726C54.8687 69.3869 55.6909 70.2091 56.7052 70.2091Z" fill="#E6E6E6"/>
<path d="M66.0014 70.2091C67.0157 70.2091 67.8379 69.3869 67.8379 68.3726C67.8379 67.3584 67.0157 66.5361 66.0014 66.5361C64.9872 66.5361 64.1649 67.3584 64.1649 68.3726C64.1649 69.3869 64.9872 70.2091 66.0014 70.2091Z" fill="#E6E6E6"/>
<path d="M75.2977 70.2091C76.3119 70.2091 77.1342 69.3869 77.1342 68.3726C77.1342 67.3584 76.3119 66.5361 75.2977 66.5361C74.2834 66.5361 73.4612 67.3584 73.4612 68.3726C73.4612 69.3869 74.2834 70.2091 75.2977 70.2091Z" fill="#E6E6E6"/>
<path d="M84.5939 70.2091C85.6082 70.2091 86.4304 69.3869 86.4304 68.3726C86.4304 67.3584 85.6082 66.5361 84.5939 66.5361C83.5797 66.5361 82.7574 67.3584 82.7574 68.3726C82.7574 69.3869 83.5797 70.2091 84.5939 70.2091Z" fill="#E6E6E6"/>
<path d="M93.8902 70.2091C94.9045 70.2091 95.7267 69.3869 95.7267 68.3726C95.7267 67.3584 94.9045 66.5361 93.8902 66.5361C92.8759 66.5361 92.0537 67.3584 92.0537 68.3726C92.0537 69.3869 92.8759 70.2091 93.8902 70.2091Z" fill="#E6E6E6"/>
<path d="M10.2239 79.6219C11.2382 79.6219 12.0604 78.7997 12.0604 77.7855C12.0604 76.7712 11.2382 75.949 10.2239 75.949C9.20968 75.949 8.38745 76.7712 8.38745 77.7855C8.38745 78.7997 9.20968 79.6219 10.2239 79.6219Z" fill="#E6E6E6"/>
<path d="M19.5202 79.6219C20.5344 79.6219 21.3567 78.7997 21.3567 77.7855C21.3567 76.7712 20.5344 75.949 19.5202 75.949C18.5059 75.949 17.6837 76.7712 17.6837 77.7855C17.6837 78.7997 18.5059 79.6219 19.5202 79.6219Z" fill="#E6E6E6"/>
<path d="M28.8164 79.6219C29.8307 79.6219 30.6529 78.7997 30.6529 77.7855C30.6529 76.7712 29.8307 75.949 28.8164 75.949C27.8022 75.949 26.9799 76.7712 26.9799 77.7855C26.9799 78.7997 27.8022 79.6219 28.8164 79.6219Z" fill="#E6E6E6"/>
<path d="M38.1127 79.6219C39.1269 79.6219 39.9492 78.7997 39.9492 77.7855C39.9492 76.7712 39.1269 75.949 38.1127 75.949C37.0984 75.949 36.2762 76.7712 36.2762 77.7855C36.2762 78.7997 37.0984 79.6219 38.1127 79.6219Z" fill="#E6E6E6"/>
<path d="M47.4089 79.6219C48.4232 79.6219 49.2454 78.7997 49.2454 77.7855C49.2454 76.7712 48.4232 75.949 47.4089 75.949C46.3947 75.949 45.5724 76.7712 45.5724 77.7855C45.5724 78.7997 46.3947 79.6219 47.4089 79.6219Z" fill="#E6E6E6"/>
<path d="M56.7052 79.6219C57.7194 79.6219 58.5417 78.7997 58.5417 77.7855C58.5417 76.7712 57.7194 75.949 56.7052 75.949C55.6909 75.949 54.8687 76.7712 54.8687 77.7855C54.8687 78.7997 55.6909 79.6219 56.7052 79.6219Z" fill="#E6E6E6"/>
<path d="M66.0014 79.6219C67.0157 79.6219 67.8379 78.7997 67.8379 77.7855C67.8379 76.7712 67.0157 75.949 66.0014 75.949C64.9872 75.949 64.1649 76.7712 64.1649 77.7855C64.1649 78.7997 64.9872 79.6219 66.0014 79.6219Z" fill="#E6E6E6"/>
<path d="M75.2977 79.6219C76.3119 79.6219 77.1342 78.7997 77.1342 77.7855C77.1342 76.7712 76.3119 75.949 75.2977 75.949C74.2834 75.949 73.4612 76.7712 73.4612 77.7855C73.4612 78.7997 74.2834 79.6219 75.2977 79.6219Z" fill="#E6E6E6"/>
<path d="M84.5939 79.6219C85.6082 79.6219 86.4304 78.7997 86.4304 77.7855C86.4304 76.7712 85.6082 75.949 84.5939 75.949C83.5797 75.949 82.7574 76.7712 82.7574 77.7855C82.7574 78.7997 83.5797 79.6219 84.5939 79.6219Z" fill="#E6E6E6"/>
<path d="M93.8902 79.6219C94.9045 79.6219 95.7267 78.7997 95.7267 77.7855C95.7267 76.7712 94.9045 75.949 93.8902 75.949C92.8759 75.949 92.0537 76.7712 92.0537 77.7855C92.0537 78.7997 92.8759 79.6219 93.8902 79.6219Z" fill="#E6E6E6"/>
<path d="M10.2239 89.035C11.2382 89.035 12.0604 88.2128 12.0604 87.1985C12.0604 86.1843 11.2382 85.3621 10.2239 85.3621C9.20968 85.3621 8.38745 86.1843 8.38745 87.1985C8.38745 88.2128 9.20968 89.035 10.2239 89.035Z" fill="#E6E6E6"/>
<path d="M19.5202 89.035C20.5344 89.035 21.3567 88.2128 21.3567 87.1985C21.3567 86.1843 20.5344 85.3621 19.5202 85.3621C18.5059 85.3621 17.6837 86.1843 17.6837 87.1985C17.6837 88.2128 18.5059 89.035 19.5202 89.035Z" fill="#E6E6E6"/>
<path d="M28.8164 89.035C29.8307 89.035 30.6529 88.2128 30.6529 87.1985C30.6529 86.1843 29.8307 85.3621 28.8164 85.3621C27.8022 85.3621 26.9799 86.1843 26.9799 87.1985C26.9799 88.2128 27.8022 89.035 28.8164 89.035Z" fill="#E6E6E6"/>
<path d="M38.1127 89.035C39.1269 89.035 39.9492 88.2128 39.9492 87.1985C39.9492 86.1843 39.1269 85.3621 38.1127 85.3621C37.0984 85.3621 36.2762 86.1843 36.2762 87.1985C36.2762 88.2128 37.0984 89.035 38.1127 89.035Z" fill="#E6E6E6"/>
<path d="M47.4089 89.035C48.4232 89.035 49.2454 88.2128 49.2454 87.1985C49.2454 86.1843 48.4232 85.3621 47.4089 85.3621C46.3947 85.3621 45.5724 86.1843 45.5724 87.1985C45.5724 88.2128 46.3947 89.035 47.4089 89.035Z" fill="#E6E6E6"/>
<path d="M56.7052 89.035C57.7194 89.035 58.5417 88.2128 58.5417 87.1985C58.5417 86.1843 57.7194 85.3621 56.7052 85.3621C55.6909 85.3621 54.8687 86.1843 54.8687 87.1985C54.8687 88.2128 55.6909 89.035 56.7052 89.035Z" fill="#E6E6E6"/>
<path d="M66.0014 89.035C67.0157 89.035 67.8379 88.2128 67.8379 87.1985C67.8379 86.1843 67.0157 85.3621 66.0014 85.3621C64.9872 85.3621 64.1649 86.1843 64.1649 87.1985C64.1649 88.2128 64.9872 89.035 66.0014 89.035Z" fill="#E6E6E6"/>
<path d="M75.2977 89.035C76.3119 89.035 77.1342 88.2128 77.1342 87.1985C77.1342 86.1843 76.3119 85.3621 75.2977 85.3621C74.2834 85.3621 73.4612 86.1843 73.4612 87.1985C73.4612 88.2128 74.2834 89.035 75.2977 89.035Z" fill="#E6E6E6"/>
<path d="M84.5939 89.035C85.6082 89.035 86.4304 88.2128 86.4304 87.1985C86.4304 86.1843 85.6082 85.3621 84.5939 85.3621C83.5797 85.3621 82.7574 86.1843 82.7574 87.1985C82.7574 88.2128 83.5797 89.035 84.5939 89.035Z" fill="#E6E6E6"/>
<path d="M93.8902 89.035C94.9045 89.035 95.7267 88.2128 95.7267 87.1985C95.7267 86.1843 94.9045 85.3621 93.8902 85.3621C92.8759 85.3621 92.0537 86.1843 92.0537 87.1985C92.0537 88.2128 92.8759 89.035 93.8902 89.035Z" fill="#E6E6E6"/>
<path d="M76.3376 73.5231L98.1337 35.3301H54.5182L32.6991 73.1221L54.5182 110.914H98.1568L119.935 73.1928L76.3376 73.5231Z" fill="#3F3D56"/>
<path d="M125.349 69.9848L125.389 69.914L103.57 32.1221H103.547L81.7508 70.3151L125.349 69.9848Z" fill="#9BAAF2"/>
<path d="M156.914 33.673C156.559 33.2576 156.381 32.6495 156.381 31.8486C156.381 31.0553 156.559 30.4508 156.914 30.0353C157.098 29.8268 157.326 29.6625 157.581 29.5546C157.837 29.4467 158.114 29.398 158.391 29.4122C158.67 29.3976 158.95 29.446 159.208 29.5539C159.467 29.6617 159.698 29.8262 159.884 30.0353C160.243 30.4508 160.423 31.0552 160.423 31.8486C160.423 32.6496 160.243 33.2577 159.884 33.673C159.698 33.8821 159.467 34.0466 159.208 34.1545C158.95 34.2623 158.67 34.3108 158.391 34.2962C158.114 34.3104 157.837 34.2617 157.581 34.1538C157.326 34.0458 157.098 33.8815 156.914 33.673ZM159.031 33.0275C159.191 32.6562 159.26 32.252 159.233 31.8486C159.259 31.4501 159.188 31.0511 159.025 30.6865C158.965 30.5718 158.873 30.4765 158.761 30.4119C158.649 30.3473 158.52 30.316 158.391 30.3216C158.264 30.3167 158.138 30.3485 158.028 30.4132C157.919 30.4779 157.83 30.5728 157.773 30.6865C157.615 31.0523 157.545 31.4507 157.571 31.8486C157.545 32.2502 157.614 32.6522 157.773 33.0218C157.83 33.1355 157.919 33.2305 158.028 33.2952C158.138 33.36 158.264 33.3917 158.391 33.3867C158.521 33.3942 158.65 33.3643 158.763 33.3006C158.877 33.237 158.97 33.1422 159.031 33.0275ZM158.312 37.5184L162.938 29.5245H164.184L159.547 37.5184H158.312ZM162.607 36.9739C162.251 36.5584 162.073 35.9465 162.074 35.1382C162.074 34.3449 162.251 33.7424 162.607 33.3305C162.802 33.1348 163.034 32.9795 163.289 32.8736C163.544 32.7676 163.818 32.7131 164.094 32.7131C164.371 32.7131 164.645 32.7676 164.9 32.8736C165.155 32.9795 165.387 33.1348 165.582 33.3305C165.937 33.7423 166.115 34.3486 166.115 35.1494C166.115 35.9504 165.938 36.5586 165.582 36.9739C165.388 37.1712 165.156 37.3279 164.901 37.4349C164.646 37.5419 164.371 37.597 164.094 37.597C163.818 37.597 163.543 37.5419 163.288 37.4349C163.033 37.3279 162.801 37.1712 162.607 36.9739ZM164.723 36.3227C164.882 35.9531 164.952 35.551 164.925 35.1494C164.952 34.751 164.88 34.3521 164.717 33.9874C164.655 33.8766 164.564 33.7845 164.454 33.7204C164.344 33.6562 164.219 33.6225 164.092 33.6225C163.964 33.6225 163.839 33.6562 163.729 33.7204C163.619 33.7845 163.528 33.8766 163.466 33.9874C163.307 34.3532 163.238 34.7515 163.264 35.1494C163.237 35.551 163.306 35.9531 163.466 36.3227C163.529 36.4335 163.62 36.5257 163.731 36.5897C163.841 36.6538 163.967 36.6875 164.094 36.6875C164.222 36.6875 164.347 36.6538 164.458 36.5897C164.568 36.5257 164.66 36.4335 164.723 36.3227Z" fill="#3F3D56"/>
<path d="M0.533336 102.629C0.177781 102.214 3.8147e-06 101.606 3.8147e-06 100.805C3.8147e-06 100.012 0.177781 99.4072 0.533336 98.9917C0.716482 98.7833 0.944411 98.6189 1.20006 98.511C1.45571 98.4031 1.73246 98.3544 2.00959 98.3686C2.2893 98.354 2.56871 98.4024 2.82721 98.5103C3.0857 98.6181 3.31667 98.7827 3.50307 98.9917C3.86215 99.4072 4.04176 100.012 4.04189 100.805C4.04189 101.606 3.86228 102.214 3.50307 102.629C3.31669 102.838 3.08573 103.003 2.82723 103.111C2.56873 103.219 2.28931 103.267 2.00959 103.253C1.73245 103.267 1.45569 103.218 1.20004 103.11C0.944386 103.002 0.716461 102.838 0.533336 102.629ZM2.64982 101.984C2.81005 101.613 2.87932 101.208 2.85188 100.805C2.87826 100.406 2.80688 100.008 2.64395 99.6429C2.58374 99.5282 2.49211 99.4329 2.37978 99.3683C2.26745 99.3037 2.13905 99.2724 2.00959 99.2781C1.88251 99.2731 1.75669 99.3049 1.6472 99.3696C1.53772 99.4343 1.4492 99.5292 1.39227 99.6429C1.23351 100.009 1.16419 100.407 1.19002 100.805C1.16359 101.207 1.23291 101.609 1.39227 101.978C1.44915 102.092 1.53764 102.187 1.64714 102.252C1.75664 102.316 1.88249 102.348 2.00959 102.343C2.13946 102.351 2.26876 102.321 2.3822 102.257C2.49564 102.193 2.58851 102.099 2.64982 101.984ZM1.93128 106.475L6.55681 98.4809H7.80301L3.16612 106.475H1.93128ZM6.22572 105.93C5.86997 105.515 5.6922 104.903 5.69239 104.095C5.69239 103.301 5.87017 102.699 6.22572 102.287C6.42088 102.091 6.65273 101.936 6.90801 101.83C7.16328 101.724 7.43695 101.67 7.71333 101.67C7.98972 101.67 8.26339 101.724 8.51866 101.83C8.77393 101.936 9.00579 102.091 9.20094 102.287C9.5563 102.699 9.73408 103.305 9.73427 104.106C9.73427 104.907 9.5565 105.515 9.20094 105.93C9.00671 106.128 8.77515 106.284 8.51975 106.391C8.26435 106.498 7.99023 106.553 7.71333 106.553C7.43644 106.553 7.16231 106.498 6.90692 106.391C6.65152 106.284 6.41996 106.128 6.22572 105.93ZM8.34182 105.279C8.50116 104.91 8.57048 104.507 8.54407 104.106C8.57041 103.707 8.4991 103.308 8.33634 102.944C8.27363 102.833 8.18265 102.741 8.07268 102.677C7.96271 102.613 7.83769 102.579 7.71039 102.579C7.5831 102.579 7.45808 102.613 7.34811 102.677C7.23814 102.741 7.14716 102.833 7.08446 102.944C6.92587 103.31 6.85661 103.708 6.8824 104.106C6.85604 104.507 6.92529 104.909 7.08446 105.279C7.14778 105.39 7.23929 105.482 7.34969 105.546C7.4601 105.61 7.58548 105.644 7.71314 105.644C7.84079 105.644 7.96617 105.61 8.07658 105.546C8.18698 105.482 8.27849 105.39 8.34182 105.279Z" fill="#3F3D56"/>
<path d="M104.671 56.6076L104.388 56.5325L110.549 33.3585H146.281V33.6506H110.773L104.671 56.6076Z" fill="#2F2E41"/>
<path d="M149.2 36.5703C148.594 36.5703 148.001 36.3905 147.497 36.0536C146.993 35.7168 146.6 35.238 146.368 34.6778C146.136 34.1176 146.075 33.5012 146.194 32.9065C146.312 32.3119 146.604 31.7656 147.033 31.3369C147.461 30.9081 148.008 30.6162 148.602 30.4979C149.197 30.3796 149.813 30.4403 150.374 30.6723C150.934 30.9044 151.413 31.2973 151.749 31.8014C152.086 32.3056 152.266 32.8983 152.266 33.5046C152.265 34.3174 151.942 35.0966 151.367 35.6714C150.792 36.2461 150.013 36.5694 149.2 36.5703ZM149.2 30.7309C148.652 30.7309 148.116 30.8936 147.659 31.1984C147.203 31.5032 146.848 31.9364 146.638 32.4432C146.428 32.95 146.373 33.5077 146.48 34.0457C146.587 34.5838 146.851 35.078 147.239 35.4659C147.627 35.8538 148.121 36.118 148.659 36.225C149.197 36.332 149.755 36.2771 150.262 36.0672C150.769 35.8572 151.202 35.5017 151.507 35.0456C151.811 34.5895 151.974 34.0532 151.974 33.5046C151.973 32.7693 151.681 32.0642 151.161 31.5443C150.641 31.0243 149.936 30.7318 149.2 30.7309Z" fill="#2F2E41"/>
<path d="M149.2 34.6724C149.845 34.6724 150.368 34.1495 150.368 33.5045C150.368 32.8595 149.845 32.3367 149.2 32.3367C148.555 32.3367 148.033 32.8595 148.033 33.5045C148.033 34.1495 148.555 34.6724 149.2 34.6724Z" fill="#9BAAF2"/>
<path d="M59.5585 79.3582L59.8408 79.4332L53.6805 102.607H17.9484V102.315H53.456L59.5585 79.3582Z" fill="#2F2E41"/>
<path d="M15.0287 99.3954C15.635 99.3954 16.2277 99.5752 16.7319 99.912C17.236 100.249 17.6289 100.728 17.861 101.288C18.093 101.848 18.1537 102.464 18.0354 103.059C17.9171 103.654 17.6252 104.2 17.1964 104.629C16.7677 105.058 16.2214 105.35 15.6268 105.468C15.0321 105.586 14.4157 105.525 13.8555 105.293C13.2953 105.061 12.8165 104.668 12.4797 104.164C12.1428 103.66 11.963 103.067 11.963 102.461C11.9639 101.648 12.2872 100.869 12.8619 100.294C13.4367 99.7196 14.2159 99.3963 15.0287 99.3954ZM15.0287 105.235C15.5773 105.235 16.1135 105.072 16.5697 104.767C17.0258 104.462 17.3813 104.029 17.5912 103.522C17.8012 103.016 17.8561 102.458 17.7491 101.92C17.642 101.382 17.3779 100.888 16.99 100.5C16.6021 100.112 16.1078 99.8477 15.5698 99.7406C15.0318 99.6336 14.4741 99.6885 13.9672 99.8985C13.4604 100.108 13.0272 100.464 12.7224 100.92C12.4177 101.376 12.255 101.912 12.255 102.461C12.2558 103.196 12.5483 103.901 13.0683 104.421C13.5883 104.941 14.2933 105.234 15.0287 105.235Z" fill="#2F2E41"/>
<path d="M15.0287 103.629C15.6737 103.629 16.1965 103.106 16.1965 102.461C16.1965 101.816 15.6737 101.293 15.0287 101.293C14.3837 101.293 13.8608 101.816 13.8608 102.461C13.8608 103.106 14.3837 103.629 15.0287 103.629Z" fill="#9BAAF2"/>
<path d="M175.79 148.682H171.357V154.71H175.79V148.682Z" fill="#A0616A"/>
<path d="M198.308 148.682H193.876V154.71H198.308V148.682Z" fill="#A0616A"/>
<path d="M201.384 98.6788C201.004 98.6788 200.628 98.5965 200.283 98.4376C199.938 98.2787 199.632 98.0469 199.385 97.7582C199.138 97.4695 198.956 97.1307 198.853 96.7652C198.749 96.3996 198.726 96.016 198.785 95.6407L199.511 91.0122L199.727 89.6357H203.096L203.273 91.5862L203.975 95.5949C204.041 95.973 204.024 96.361 203.924 96.7316C203.824 97.1023 203.645 97.4466 203.398 97.7405C203.151 98.0343 202.843 98.2706 202.495 98.4327C202.147 98.5948 201.767 98.6788 201.384 98.6788Z" fill="#A0616A"/>
<path d="M168.403 98.1468C168.023 98.1468 167.648 98.0645 167.303 97.9056C166.958 97.7467 166.651 97.5149 166.404 97.2262C166.157 96.9375 165.976 96.5987 165.872 96.2332C165.769 95.8677 165.746 95.484 165.805 95.1087L166.531 90.4803L166.746 89.1038H170.115L170.293 91.0542L170.994 95.0629C171.06 95.441 171.043 95.829 170.943 96.1996C170.844 96.5703 170.664 96.9146 170.417 97.2085C170.17 97.5024 169.862 97.7386 169.514 97.9007C169.166 98.0628 168.787 98.1468 168.403 98.1468Z" fill="#A0616A"/>
<path d="M198.84 149.923L193.521 149.745L184.833 97.2603L176.144 149.923L171.002 149.745L169.584 89.1036H199.372L198.84 149.923Z" fill="#2F2E41"/>
<path d="M175.678 158.896C171.165 159.026 167.632 157.806 165.316 154.91C165.072 154.605 164.928 154.233 164.902 153.843C164.876 153.454 164.97 153.066 165.171 152.731C165.361 152.416 165.637 152.161 165.967 151.999C166.298 151.836 166.668 151.773 167.033 151.815L168.5 151.987L171.554 150.461C170.929 154.094 172.629 154.162 176.693 152.945L177.426 156.698C177.477 156.96 177.471 157.23 177.408 157.489C177.345 157.749 177.226 157.991 177.06 158.201C176.894 158.41 176.684 158.58 176.446 158.7C176.207 158.82 175.945 158.887 175.678 158.896Z" fill="#2F2E41"/>
<path d="M198.197 158.896C193.684 159.026 190.151 157.806 187.835 154.91C187.591 154.605 187.447 154.233 187.421 153.843C187.395 153.454 187.489 153.066 187.69 152.731C187.879 152.416 188.156 152.161 188.486 151.999C188.817 151.836 189.187 151.773 189.552 151.815L191.019 151.987L194.05 150.708C193.425 154.341 195.148 154.162 199.212 152.945L199.945 156.698C199.996 156.96 199.99 157.23 199.927 157.489C199.864 157.749 199.745 157.991 199.579 158.201C199.413 158.41 199.203 158.58 198.965 158.7C198.726 158.82 198.464 158.887 198.197 158.896Z" fill="#2F2E41"/>
<path d="M183.059 33.6042C186.977 33.6042 190.152 30.4288 190.152 26.5117C190.152 22.5945 186.977 19.4191 183.059 19.4191C179.142 19.4191 175.967 22.5945 175.967 26.5117C175.967 30.4288 179.142 33.6042 183.059 33.6042Z" fill="#A0616A"/>
<path d="M190.152 39.4557L182.527 39.8103L182.173 31.8311L188.734 29.3488L190.152 39.4557Z" fill="#A0616A"/>
<path d="M201.146 91.5861C190.748 89.6187 178.902 88.9139 171.002 91.5861L173.484 39.4556L181.818 36.9732L182.439 35.998L189.443 34.8455L192.812 35.9093L194.94 39.101L204.16 44.2431C199.621 61.8001 198.277 77.7517 201.146 91.5861Z" fill="#2F2E41"/>
<path d="M206.11 91.2315L198.486 90.345C200.075 82.6017 199.425 72.53 199.816 62.4179C200.063 56.0046 201.393 50.1679 201.855 43.002C204.746 43.756 206.243 46.441 206.261 49.6054C206.342 64.6136 207.76 78.676 206.11 91.2315Z" fill="#2F2E41"/>
<path d="M172.952 90.5223L165.505 89.9903L169.938 64.8116L171.439 43.859C171.205 40.8035 172.838 39.028 175.258 38.9237C180.542 45.1812 181.154 53.805 179.513 63.5704L172.952 90.5223Z" fill="#2F2E41"/>
<path d="M185.36 31.7266L184.445 29.1228C183.932 27.6619 183.031 26.3679 181.839 25.3795C180.647 24.391 179.209 23.7452 177.678 23.5111L171.946 23.3797L173.538 20.822C174.305 19.5886 175.403 18.5948 176.706 17.9532C178.01 17.3116 179.467 17.0479 180.912 17.192L186.641 17.7631C188.005 17.8991 189.26 18.569 190.131 19.6268C191.003 20.6845 191.421 22.0442 191.294 23.4089L190.768 29.0431C190.712 29.6454 190.503 30.2233 190.16 30.722C189.818 31.2207 189.354 31.6236 188.812 31.8925C188.27 32.1614 187.669 32.2873 187.064 32.2582C186.46 32.2292 185.873 32.0462 185.36 31.7266Z" fill="#2F2E41"/>
</g>
<defs>
<clipPath id="clip0">
<rect width="211" height="158.26" fill="white" transform="translate(0 0.645386)"/>
</clipPath>
</defs>
</svg>
