<svg width="36" height="57" viewBox="0 0 36 57" fill="none" xmlns="http://www.w3.org/2000/svg">
<path d="M2.66029 55.2817C2.29515 55.6266 2.06042 55.7744 1.9561 55.7251C1.85177 55.6758 1.85177 55.5527 1.9561 55.3556C2.06042 55.2078 2.13867 55.0846 2.19083 54.9861C2.60813 54.5426 2.9211 54.2224 3.12975 54.0253C3.39057 53.7789 3.67746 53.5326 3.99044 53.2862C2.73854 51.7096 1.82569 50.0344 1.2519 48.2606C0.678114 46.4376 0.339057 44.5653 0.234731 42.6438C0.130406 40.7222 0.20865 38.776 0.469463 36.8052C0.782439 34.8344 1.17366 32.9128 1.64312 31.0405C2.58205 27.3452 3.65138 23.7485 4.85112 20.2502C6.10302 16.7028 7.14627 13.3031 7.98087 10.0512C6.31167 10.3468 4.79896 10.741 3.44273 11.2337C2.13867 11.7264 1.27798 12.2684 0.860683 12.8596C0.704195 13.106 0.547707 13.2045 0.391219 13.1553C0.286894 13.106 0.339057 12.8843 0.547707 12.4901C0.965008 11.6525 1.72136 10.9135 2.81678 10.2729C3.91219 9.58314 5.1641 9.01653 6.57248 8.57309C7.98087 8.12966 9.49359 7.78477 11.1106 7.53841C12.7798 7.29206 14.3708 7.19352 15.8835 7.24279C19.2741 7.34133 22.0909 7.95721 24.3338 9.09044C26.629 10.2237 27.8027 11.8989 27.8548 14.116C27.8548 15.4956 27.3332 16.8752 26.2899 18.2548C25.2988 19.6344 24.073 20.94 22.6125 22.1718C21.2041 23.3543 19.6914 24.4383 18.0743 25.4237C16.4573 26.3598 15.075 27.0989 13.9274 27.6408L13.6144 28.6755C14.3969 28.035 15.4401 27.5177 16.7442 27.1235C18.0483 26.7293 19.4045 26.5323 20.8129 26.5323C22.2734 26.5323 23.6818 26.7786 25.038 27.2713C26.4464 27.7148 27.6722 28.4538 28.7155 29.4885C30.1239 30.9666 31.0107 32.6665 31.3758 34.588C31.7931 36.4603 31.6888 38.3079 31.0628 40.131C30.489 41.954 29.524 43.4567 28.1678 44.6392C26.8116 45.7724 25.4293 46.6347 24.0209 47.2259C23.8644 47.3245 23.5775 47.4476 23.1602 47.5955C22.7429 47.694 22.4821 47.6694 22.3777 47.5216C22.3256 47.423 22.456 47.2506 22.769 47.0042C23.0819 46.7086 23.3167 46.5115 23.4732 46.413C24.8815 45.5261 26.0813 44.319 27.0724 42.7916C28.0635 41.2642 28.6633 39.6875 28.872 38.0616C29.1328 36.3864 28.9502 34.7851 28.3243 33.2577C27.6983 31.7303 26.4725 30.5478 24.6468 29.7102C23.9165 29.3653 22.9515 29.119 21.7518 28.9712C20.5521 28.7741 19.3523 28.7248 18.1526 28.8233C16.9528 28.8726 15.8313 29.119 14.7881 29.5624C13.797 30.0058 13.0928 30.6956 12.6755 31.6318C13.6144 31.0898 14.6838 30.671 15.8835 30.3754C17.0832 30.0797 18.283 29.9566 19.4827 30.0058C20.7346 30.0058 21.9083 30.2276 23.0037 30.671C24.0991 31.0652 25.012 31.681 25.7422 32.5186C26.629 33.5533 27.1245 34.6373 27.2289 35.7705C27.3854 36.9037 27.2549 38.0123 26.8376 39.0963C26.4725 40.1802 25.8466 41.1903 24.9598 42.1264C24.1252 43.0626 23.1602 43.8509 22.0648 44.4914C20.6042 45.329 18.9872 46.1666 17.2136 47.0042C15.4401 47.7925 13.6666 48.6301 11.8931 49.517C10.1195 50.3546 8.42426 51.2661 6.80722 52.2515C5.19018 53.1877 3.80787 54.1977 2.66029 55.2817ZM12.0496 34.1446C11.1106 36.3617 10.3282 38.6036 9.70224 40.87C9.12845 43.0872 8.47642 45.1319 7.74614 47.0042C7.48533 47.6447 7.30276 47.9404 7.19844 47.8911C7.04195 47.8418 6.9637 47.7186 6.9637 47.5216C6.9637 47.2752 6.9637 47.0288 6.9637 46.7825C7.12019 43.0379 7.69398 39.3426 8.68507 35.6966C9.67616 32.0013 10.7455 28.2814 11.8931 24.5368C12.6233 22.2211 13.3015 19.8561 13.9274 17.4418C14.6055 14.9783 14.9967 12.3423 15.1011 9.53387H13.7709C13.8231 10.8642 13.7709 12.1945 13.6144 13.5248C13.5101 14.8058 13.3275 15.9144 13.0667 16.8506C12.3365 19.5112 11.4497 22.2703 10.4064 25.128C9.36318 27.9857 8.26777 30.6956 7.12019 33.2577C7.06803 33.3562 6.93762 33.6026 6.72897 33.9968C6.57248 34.3417 6.416 34.4895 6.25951 34.4402C6.15518 34.3909 6.07694 34.1692 6.02478 33.775C6.02478 33.3809 6.05086 33.1099 6.10302 32.9621C6.15518 32.3708 6.25951 31.6318 6.416 30.7449C6.62465 29.858 6.80722 28.9465 6.9637 28.0104C7.17235 27.0742 7.381 26.1627 7.58965 25.2759C7.85047 24.389 8.0852 23.6253 8.29385 22.9848C8.34601 22.7384 8.47642 22.1718 8.68507 21.2849C8.94588 20.3981 9.2067 19.3387 9.46751 18.107C9.72832 16.8259 9.98913 15.471 10.2499 14.0421C10.5629 12.564 10.8237 11.1352 11.0324 9.75559C10.6151 9.75559 10.3021 9.78023 10.0935 9.8295C9.83265 11.6525 9.44143 13.5002 8.9198 15.3724C8.45034 17.2447 7.90263 19.1417 7.27668 21.0632C6.65073 22.9848 6.02478 24.9063 5.39883 26.8279C4.77288 28.7002 4.22517 30.5971 3.75571 32.5186C3.3384 34.1446 3.02543 35.8444 2.81678 37.6182C2.60813 39.3919 2.5038 41.1656 2.5038 42.9394C2.5038 44.6639 2.66029 46.3637 2.97327 48.0389C3.28624 49.7141 3.78179 51.3154 4.4599 52.8428L5.16409 52.1776C5.00761 51.8327 4.85112 51.4139 4.69463 50.9212C4.53815 50.4285 4.40774 49.8373 4.30341 49.1475C4.19909 48.6055 4.12084 47.9157 4.06868 47.0781C4.06868 46.2405 4.09476 45.4276 4.14692 44.6392C4.19909 43.8509 4.27733 43.1857 4.38166 42.6438C4.48598 42.1018 4.64247 41.8308 4.85112 41.8308C4.90328 41.8308 4.95544 41.954 5.00761 42.2003C5.11193 42.4467 5.19018 42.7423 5.24234 43.0872C5.2945 43.4321 5.34666 43.7523 5.39883 44.048C5.45099 44.3436 5.47707 44.5653 5.47707 44.7131C5.52923 45.1566 5.5814 45.6493 5.63356 46.1912C5.68572 46.7332 5.73788 47.2998 5.79005 47.8911C5.89437 48.4823 5.97262 49.0736 6.02478 49.6648C6.1291 50.2068 6.25951 50.6749 6.416 51.069C7.61574 50.0344 8.89372 49.1228 10.2499 48.3345C11.6062 47.4969 12.9363 46.7332 14.2404 46.0434C15.5966 45.3536 16.9007 44.6885 18.1526 44.048C19.4045 43.4075 20.4999 42.7669 21.4388 42.1264C23.0559 41.0917 24.0991 39.7861 24.5686 38.2094C25.038 36.5835 24.7511 35.13 23.7079 33.8489C23.0298 33.0113 22.0909 32.4201 20.8911 32.0752C19.7435 31.7303 18.5438 31.6071 17.2919 31.7057C16.0922 31.7549 14.9967 32.0013 14.0057 32.4447C13.0146 32.8882 12.3625 33.4548 12.0496 34.1446ZM24.4903 22.837C24.5947 22.8862 24.4643 23.1572 24.0991 23.6499C23.7861 24.0934 23.5775 24.4136 23.4732 24.6107C25.2467 24.3643 26.8116 23.7731 28.1678 22.837C29.5762 21.9008 30.6977 20.7922 31.5323 19.5112C32.3669 18.1809 32.8885 16.752 33.0972 15.2246C33.3058 13.648 33.1493 12.0713 32.6277 10.4947C32.1061 8.91799 31.2454 7.58768 30.0456 6.50373C28.8459 5.41978 27.4636 4.5329 25.8987 3.84311C24.3338 3.15333 22.6386 2.66062 20.8129 2.36499C18.9872 2.06937 17.1615 1.94619 15.3358 1.99546C13.5101 1.99546 11.7627 2.14327 10.0935 2.4389C8.42426 2.73452 6.9637 3.15332 5.7118 3.6953C5.45099 3.79384 5.2945 3.84311 5.24234 3.84311C5.24234 3.84311 5.21626 3.81848 5.16409 3.76921C5.11193 3.6214 5.24234 3.44895 5.55532 3.25187C6.85938 2.16791 8.5025 1.35494 10.4847 0.812969C12.519 0.27099 14.6316 0 16.8224 0C19.0654 0 21.3084 0.295625 23.5514 0.886874C25.7944 1.42885 27.8027 2.29109 29.5762 3.47358C31.4019 4.60681 32.8885 6.08493 34.0361 7.90794C35.2358 9.68169 35.8879 11.7757 35.9922 14.19C36.0443 15.6681 35.8357 17.023 35.3662 18.2548C34.8968 19.4373 34.2708 20.4966 33.4884 21.4327C32.7059 22.3689 31.7931 23.1819 30.7498 23.8716C29.7588 24.5122 28.7155 25.0541 27.6201 25.4976C29.3414 26.2366 30.8281 27.3945 32.08 28.9712C33.3319 30.4985 34.2187 32.0259 34.7403 33.5533C35.3662 35.5734 35.4966 37.495 35.1315 39.318C34.8185 41.141 34.2447 42.7916 33.4101 44.2697C32.6277 45.7478 31.7148 47.0288 30.6716 48.1128C29.6805 49.1475 28.8198 49.8865 28.0896 50.33C26.5768 51.2661 25.038 52.0052 23.4732 52.5472C21.9083 53.0399 20.3695 53.434 18.8568 53.7297C17.3441 53.976 15.8835 54.1485 14.4751 54.247C13.1189 54.3455 11.8931 54.4194 10.7977 54.4687C9.96305 54.5673 9.54575 54.5426 9.54575 54.3948C9.49359 54.2963 9.624 54.1977 9.93697 54.0992C10.3021 54.0499 10.6151 54.0006 10.8759 53.9514C12.9102 53.6065 14.9185 53.1384 16.9007 52.5472C18.8829 51.9559 20.8911 51.1676 22.9255 50.1822C23.9165 49.6895 24.9337 49.1229 25.977 48.4823C27.0724 47.7925 28.0635 47.0042 28.9502 46.1173C29.8892 45.1812 30.6716 44.1465 31.2975 43.0133C31.9757 41.8801 32.419 40.6237 32.6277 39.2441C32.8885 37.5196 32.8363 35.8198 32.4712 34.1446C32.1582 32.4201 31.2975 30.7695 29.8892 29.1929C28.5329 27.6655 27.0985 26.6308 25.5857 26.0888C24.1252 25.5468 22.5342 25.3251 20.8129 25.4237C20.3956 25.4237 20.1869 25.399 20.1869 25.3498C20.1869 25.2512 20.4738 25.0788 21.0476 24.8324C21.6214 24.5861 21.9865 24.4136 22.143 24.3151C22.6125 24.0194 23.108 23.6746 23.6296 23.2804C24.1513 22.8862 24.4382 22.7384 24.4903 22.837ZM25.4293 14.4117C25.4293 12.835 24.5425 11.7018 22.769 11.012C20.9954 10.2729 18.5438 9.78023 15.414 9.53387C15.7792 11.0613 16.0139 12.4655 16.1182 13.7465C16.2226 15.0276 16.1965 16.3086 16.04 17.5896C15.9357 18.8214 15.7009 20.1271 15.3358 21.5066C15.0228 22.837 14.6577 24.3151 14.2404 25.941C15.3358 25.4483 16.5355 24.7092 17.8396 23.7238C19.1437 22.6891 20.3434 21.6298 21.4388 20.5459C22.5864 19.4126 23.5253 18.3041 24.2556 17.2201C25.038 16.0869 25.4293 15.1507 25.4293 14.4117ZM14.6316 3.10405C16.4051 3.00551 18.4134 3.20259 20.6564 3.6953C22.9515 4.13874 25.012 4.8778 26.8376 5.91248C27.7766 6.45446 28.559 7.11961 29.185 7.90794C29.8109 8.69627 30.2804 9.53387 30.5934 10.4207C30.9585 11.2583 31.1671 12.1206 31.2193 13.0075C31.2715 13.8943 31.1671 14.7073 30.9063 15.4464C30.8542 15.5449 30.802 15.6927 30.7498 15.8898C30.6977 16.0376 30.6194 16.2101 30.5151 16.4071C30.4108 16.5549 30.3065 16.7028 30.2021 16.8506C30.0978 16.9491 29.9935 16.9737 29.8892 16.9245C29.7327 16.9245 29.6544 16.752 29.6544 16.4071C29.7066 16.0622 29.7848 15.6927 29.8892 15.2985C30.15 13.919 30.0196 12.7118 29.4979 11.6772C29.0285 10.6425 28.2982 9.78023 27.3071 9.09044C26.316 8.35138 25.1684 7.76013 23.8644 7.3167C22.5603 6.87326 21.2041 6.52836 19.7957 6.28201C18.4395 6.03566 17.1093 5.91248 15.8053 5.91248C14.5012 5.86321 13.3797 5.88784 12.4408 5.98639C11.1367 6.1342 9.83265 6.38055 8.52858 6.72545C7.27668 7.02107 6.10302 7.36596 5.00761 7.76013C3.91219 8.1543 2.97327 8.5731 2.19083 9.01653C1.40839 9.45997 0.860682 9.87877 0.547707 10.2729C0.234732 10.6671 0.0521626 10.7903 0 10.6425C0 10.4947 0.0521626 10.2729 0.156488 9.97731C0.521626 8.9919 1.19974 8.10503 2.19083 7.3167C3.18192 6.47909 4.32949 5.76467 5.63356 5.17342C6.93762 4.58217 8.37209 4.1141 9.93697 3.76921C11.5018 3.42431 13.0667 3.20259 14.6316 3.10405ZM10.7977 52.9167C9.07629 53.5572 7.69398 54.1238 6.65073 54.6165C5.65964 55.1092 4.66855 55.7498 3.67746 56.5381C3.57314 56.5874 3.46881 56.6859 3.36449 56.8337C3.26016 56.9815 3.15584 57.0308 3.05151 56.9815C2.94719 56.9323 2.94719 56.7844 3.05151 56.5381C3.15584 56.341 3.26016 56.1932 3.36449 56.0947C3.88611 55.4049 4.56423 54.7397 5.39883 54.0992C6.23343 53.4094 7.40709 52.7689 8.9198 52.1776C9.44143 51.9805 10.0152 51.7835 10.6412 51.5864C11.3193 51.34 11.9452 51.1429 12.519 50.9951C13.145 50.8473 13.6405 50.7488 14.0057 50.6995C14.423 50.6502 14.6838 50.6995 14.7881 50.8473C14.8403 50.9459 14.6838 51.0937 14.3186 51.2908C13.9535 51.4878 13.5362 51.7096 13.0667 51.9559C12.5973 52.153 12.1278 52.3501 11.6583 52.5472C11.241 52.7442 10.9541 52.8674 10.7977 52.9167Z" fill="#9BAAF2"/>
</svg>
