<svg width="509" height="157" fill="none" xmlns="http://www.w3.org/2000/svg">
  <path d="M232.44 78.072c2.56.81 4.565 2.176 6.016 4.096 1.45 1.877 2.176 4.203 2.176 6.976 0 3.925-1.536 6.955-4.608 9.088-3.03 2.091-7.467 3.136-13.312 3.136h-23.168v-44.8h21.888c5.461 0 9.642 1.045 12.544 3.136 2.944 2.09 4.416 4.928 4.416 8.512 0 2.176-.534 4.117-1.6 5.824-1.024 1.707-2.475 3.05-4.352 4.032zm-22.592-13.696v10.56h10.304c2.56 0 4.501-.448 5.824-1.344 1.322-.896 1.984-2.219 1.984-3.968 0-1.75-.662-3.05-1.984-3.904-1.323-.896-3.264-1.344-5.824-1.344h-10.304zm12.096 29.184c2.73 0 4.778-.448 6.144-1.344 1.408-.896 2.112-2.283 2.112-4.16 0-3.712-2.752-5.568-8.256-5.568h-12.096V93.56h12.096zM264.161 101.88c-3.627 0-6.891-.747-9.792-2.24-2.859-1.536-5.099-3.648-6.72-6.336-1.621-2.688-2.432-5.739-2.432-9.152 0-3.413.811-6.464 2.432-9.152 1.621-2.688 3.861-4.779 6.72-6.272 2.901-1.536 6.165-2.304 9.792-2.304s6.869.768 9.728 2.304c2.859 1.493 5.099 3.584 6.72 6.272 1.621 2.688 2.432 5.739 2.432 9.152 0 3.413-.811 6.464-2.432 9.152-1.621 2.688-3.861 4.8-6.72 6.336-2.859 1.493-6.101 2.24-9.728 2.24zm0-8.192c2.56 0 4.651-.853 6.272-2.56 1.664-1.75 2.496-4.075 2.496-6.976s-.832-5.205-2.496-6.912c-1.621-1.75-3.712-2.624-6.272-2.624s-4.672.875-6.336 2.624c-1.664 1.707-2.496 4.01-2.496 6.912 0 2.901.832 5.227 2.496 6.976 1.664 1.707 3.776 2.56 6.336 2.56zM306.099 101.88c-3.627 0-6.891-.747-9.792-2.24-2.859-1.536-5.099-3.648-6.72-6.336-1.622-2.688-2.432-5.739-2.432-9.152 0-3.413.81-6.464 2.432-9.152 1.621-2.688 3.861-4.779 6.72-6.272 2.901-1.536 6.165-2.304 9.792-2.304 3.626 0 6.869.768 9.728 2.304 2.858 1.493 5.098 3.584 6.72 6.272 1.621 2.688 2.432 5.739 2.432 9.152 0 3.413-.811 6.464-2.432 9.152-1.622 2.688-3.862 4.8-6.72 6.336-2.859 1.493-6.102 2.24-9.728 2.24zm0-8.192c2.56 0 4.65-.853 6.272-2.56 1.664-1.75 2.496-4.075 2.496-6.976s-.832-5.205-2.496-6.912c-1.622-1.75-3.712-2.624-6.272-2.624s-4.672.875-6.336 2.624c-1.664 1.707-2.496 4.01-2.496 6.912 0 2.901.832 5.227 2.496 6.976 1.664 1.707 3.776 2.56 6.336 2.56zM346.436 87.864l-4.8 4.736v8.768h-9.984V53.88h9.984v26.88l14.592-13.824h11.904l-14.336 14.592 15.616 19.84h-12.096l-10.88-13.504z" fill="#9BAAF2"/>
  <path d="M371.342 114.296c-3.499 0-6.165-.64-8-1.92l2.688-7.232c1.152.811 2.56 1.216 4.224 1.216 1.28 0 2.283-.427 3.008-1.28.725-.811 1.088-2.048 1.088-3.712V66.936h9.984v34.368c0 4.011-1.152 7.168-3.456 9.472-2.261 2.347-5.44 3.52-9.536 3.52zm8-52.16c-1.835 0-3.328-.533-4.48-1.6-1.152-1.067-1.728-2.39-1.728-3.968 0-1.579.576-2.901 1.728-3.968 1.152-1.067 2.645-1.6 4.48-1.6 1.835 0 3.328.512 4.48 1.536 1.152 1.024 1.728 2.304 1.728 3.84 0 1.664-.576 3.05-1.728 4.16-1.152 1.067-2.645 1.6-4.48 1.6zM407.415 66.424c5.333 0 9.429 1.28 12.288 3.84 2.859 2.517 4.288 6.336 4.288 11.456v19.648h-9.344V97.08c-1.877 3.2-5.376 4.8-10.496 4.8-2.645 0-4.949-.448-6.912-1.344-1.92-.896-3.392-2.133-4.416-3.712-1.024-1.579-1.536-3.37-1.536-5.376 0-3.2 1.195-5.717 3.584-7.552 2.432-1.835 6.165-2.752 11.2-2.752h7.936c0-2.176-.661-3.84-1.984-4.992-1.323-1.195-3.307-1.792-5.952-1.792-1.835 0-3.648.299-5.44.896-1.749.555-3.243 1.323-4.48 2.304l-3.584-6.976c1.877-1.323 4.117-2.347 6.72-3.072a30.6 30.6 0 018.128-1.088zm-.768 28.736c1.707 0 3.221-.384 4.544-1.152 1.323-.81 2.261-1.984 2.816-3.52v-3.52h-6.848c-4.096 0-6.144 1.344-6.144 4.032 0 1.28.491 2.304 1.472 3.072 1.024.725 2.411 1.088 4.16 1.088zM450.042 101.88c-3.669 0-6.976-.747-9.92-2.24-2.901-1.536-5.184-3.648-6.848-6.336-1.621-2.688-2.432-5.739-2.432-9.152 0-3.413.811-6.464 2.432-9.152 1.664-2.688 3.947-4.779 6.848-6.272 2.944-1.536 6.251-2.304 9.92-2.304 3.627 0 6.784.768 9.472 2.304 2.731 1.493 4.715 3.648 5.952 6.464l-7.744 4.16c-1.792-3.157-4.373-4.736-7.744-4.736-2.603 0-4.757.853-6.464 2.56-1.707 1.707-2.56 4.032-2.56 6.976s.853 5.27 2.56 6.976c1.707 1.707 3.861 2.56 6.464 2.56 3.413 0 5.995-1.579 7.744-4.736l7.744 4.224c-1.237 2.73-3.221 4.864-5.952 6.4-2.688 1.536-5.845 2.304-9.472 2.304zM485.749 87.864l-4.8 4.736v8.768h-9.984V53.88h9.984v26.88l14.592-13.824h11.904l-14.336 14.592 15.616 19.84h-12.096l-10.88-13.504zM147.448 13h2.096v130h-2.096zM7.201 152.267c-.988.95-1.624 1.357-1.906 1.221-.282-.135-.282-.474 0-1.017.282-.407.494-.747.635-1.018 1.13-1.222 1.977-2.104 2.542-2.647a34.344 34.344 0 012.33-2.035c-3.39-4.343-5.86-8.957-7.413-13.843a63.619 63.619 0 01-2.754-15.471 88.073 88.073 0 01.636-16.081 186.574 186.574 0 013.177-15.878 385.204 385.204 0 018.683-29.721c3.39-9.771 6.213-19.135 8.472-28.092-4.518.814-8.613 1.9-12.284 3.257-3.53 1.357-5.86 2.85-6.99 4.478-.423.679-.846.95-1.27.815-.282-.136-.141-.747.424-1.832 1.13-2.307 3.177-4.343 6.142-6.107 2.965-1.9 6.354-3.461 10.166-4.682 3.812-1.222 7.907-2.172 12.284-2.85 4.518-.679 8.825-.95 12.92-.815 9.178.272 16.802 1.968 22.874 5.09 6.213 3.12 9.39 7.735 9.53 13.842 0 3.8-1.411 7.6-4.235 11.4-2.683 3.8-6.001 7.396-9.955 10.789a100.022 100.022 0 01-12.284 8.957c-4.377 2.578-8.119 4.614-11.225 6.107l-.847 2.85c2.118-1.765 4.942-3.19 8.472-4.275 3.53-1.086 7.2-1.629 11.013-1.629 3.954 0 7.766.679 11.437 2.036a24.222 24.222 0 019.954 6.107c3.813 4.071 6.213 8.753 7.202 14.046 1.13 5.157.847 10.246-.848 15.267-1.553 5.021-4.165 9.161-7.836 12.418-3.671 3.121-7.413 5.496-11.225 7.124-.424.272-1.2.611-2.33 1.018-1.13.272-1.836.204-2.118-.203-.141-.272.212-.747 1.059-1.425.847-.815 1.482-1.357 1.906-1.629 3.813-2.443 7.06-5.767 9.743-9.975 2.683-4.207 4.306-8.549 4.871-13.028.706-4.614.212-9.024-1.483-13.231-1.694-4.208-5.012-7.465-9.954-9.772-1.977-.95-4.589-1.628-7.836-2.035a39.114 39.114 0 00-9.743-.407c-3.248.135-6.283.814-9.107 2.035-2.683 1.222-4.59 3.122-5.719 5.7 2.542-1.493 5.436-2.646 8.684-3.46a34.024 34.024 0 019.742-1.018c3.39 0 6.566.61 9.531 1.832 2.966 1.085 5.436 2.782 7.413 5.089 2.4 2.85 3.742 5.835 4.024 8.957.424 3.121.071 6.175-1.059 9.16-.988 2.986-2.682 5.768-5.083 8.346a32.34 32.34 0 01-7.836 6.515c-3.954 2.307-8.33 4.614-13.132 6.921a347.124 347.124 0 00-14.402 6.921 146.58 146.58 0 00-13.767 7.532c-4.377 2.578-8.118 5.36-11.225 8.346zm25.416-58.22a151.345 151.345 0 00-6.354 18.525c-1.553 6.107-3.318 11.739-5.295 16.896-.706 1.764-1.2 2.578-1.483 2.443-.423-.136-.635-.475-.635-1.018v-2.036a140.264 140.264 0 014.66-30.535 917.082 917.082 0 018.683-30.738A397.953 397.953 0 0037.7 48.04c1.835-6.785 2.894-14.045 3.177-21.781h-3.6a71.58 71.58 0 01-.424 10.992c-.283 3.529-.777 6.582-1.483 9.161-1.977 7.328-4.377 14.928-7.201 22.8-2.824 7.87-5.79 15.335-8.896 22.392l-1.058 2.035c-.424.95-.848 1.357-1.271 1.222-.283-.136-.494-.747-.636-1.832 0-1.086.071-1.833.212-2.24.141-1.628.424-3.664.847-6.107a119.245 119.245 0 001.483-7.532c.565-2.578 1.13-5.089 1.694-7.531a235.915 235.915 0 011.907-6.311c.14-.679.494-2.24 1.058-4.682.706-2.443 1.413-5.36 2.118-8.753.706-3.529 1.412-7.26 2.118-11.197a208.454 208.454 0 002.118-11.806c-1.13 0-1.976.068-2.541.203-.706 5.021-1.765 10.11-3.177 15.268a238.904 238.904 0 01-4.448 15.674l-5.083 15.878a199.097 199.097 0 00-4.448 15.675c-1.13 4.478-1.977 9.16-2.541 14.046a127.517 127.517 0 00-.847 14.657c0 4.749.423 9.432 1.27 14.046a60.115 60.115 0 004.024 13.231l1.907-1.832c-.424-.95-.848-2.103-1.271-3.46-.424-1.357-.777-2.986-1.06-4.886-.282-1.493-.493-3.393-.635-5.7 0-2.307.071-4.546.212-6.717.141-2.172.353-4.004.636-5.497.282-1.492.706-2.239 1.27-2.239.142 0 .283.339.424 1.018.282.679.494 1.493.635 2.443.142.95.283 1.832.424 2.646.141.814.212 1.425.212 1.832.141 1.222.282 2.579.423 4.072.142 1.492.283 3.053.424 4.682.282 1.628.494 3.257.635 4.885.283 1.493.636 2.782 1.06 3.868a68.806 68.806 0 0110.377-7.532 186.174 186.174 0 0110.802-6.311c3.671-1.9 7.201-3.732 10.59-5.496 3.389-1.764 6.354-3.528 8.895-5.293 4.378-2.85 7.202-6.446 8.472-10.789 1.271-4.478.495-8.481-2.33-12.01-1.835-2.307-4.377-3.936-7.624-4.886-3.106-.95-6.354-1.289-9.743-1.017-3.247.135-6.213.814-8.895 2.035-2.683 1.222-4.448 2.782-5.295 4.682zm33.676-31.145c.282.136-.071.882-1.06 2.239-.847 1.221-1.412 2.103-1.694 2.646 4.8-.678 9.037-2.307 12.708-4.885 3.812-2.579 6.848-5.632 9.107-9.16 2.26-3.665 3.671-7.6 4.236-11.807.565-4.343.141-8.686-1.27-13.029-1.413-4.342-3.742-8.007-6.99-10.992-3.248-2.986-6.99-5.429-11.225-7.329-4.236-1.9-8.825-3.257-13.767-4.07a77.85 77.85 0 00-14.826-1.019c-4.942 0-9.672.407-14.19 1.222-4.518.814-8.472 1.967-11.86 3.46-.707.272-1.13.407-1.272.407l-.211-.203c-.142-.407.211-.882 1.059-1.425 3.53-2.986 7.977-5.225 13.343-6.718C33.888.746 39.606 0 45.536 0c6.072 0 12.143.814 18.215 2.443 6.071 1.493 11.508 3.868 16.308 7.125 4.942 3.12 8.966 7.192 12.073 12.214 3.247 4.885 5.012 10.653 5.295 17.303.14 4.07-.424 7.803-1.695 11.196-1.27 3.257-2.965 6.175-5.083 8.753a34.33 34.33 0 01-7.413 6.718 50.14 50.14 0 01-8.472 4.478c4.66 2.036 8.684 5.225 12.073 9.568 3.389 4.207 5.789 8.414 7.2 12.62 1.695 5.565 2.048 10.858 1.06 15.879-.847 5.021-2.4 9.568-4.66 13.639-2.118 4.071-4.589 7.6-7.412 10.585-2.683 2.85-5.013 4.886-6.99 6.107-4.095 2.579-8.26 4.614-12.496 6.107a113.543 113.543 0 01-12.496 3.257 128.097 128.097 0 01-11.86 1.425c-3.672.272-6.99.475-9.955.611-2.26.271-3.389.203-3.389-.204-.141-.271.212-.543 1.06-.814a49.14 49.14 0 002.54-.407 135.21 135.21 0 0016.31-3.868c5.365-1.628 10.8-3.8 16.307-6.514a105.61 105.61 0 008.26-4.682 46.108 46.108 0 008.049-6.514 37.863 37.863 0 006.354-8.55c1.835-3.121 3.036-6.582 3.6-10.382.706-4.75.565-9.431-.423-14.046-.847-4.75-3.177-9.296-6.99-13.639-3.67-4.207-7.554-7.056-11.648-8.55-3.954-1.492-8.26-2.103-12.92-1.831-1.13 0-1.694-.068-1.694-.204 0-.271.776-.746 2.33-1.425 1.553-.678 2.541-1.153 2.965-1.425a57.872 57.872 0 004.024-2.85c1.412-1.086 2.188-1.493 2.33-1.221zm2.541-23.207c0-4.342-2.4-7.464-7.201-9.364-4.8-2.035-11.437-3.392-19.909-4.071.988 4.207 1.624 8.075 1.906 11.603a53.068 53.068 0 01-.212 10.586c-.282 3.392-.917 6.989-1.906 10.789a637.775 637.775 0 01-2.965 12.213c2.965-1.357 6.213-3.392 9.743-6.106 3.53-2.85 6.777-5.768 9.742-8.754 3.107-3.121 5.648-6.175 7.625-9.16 2.118-3.121 3.177-5.7 3.177-7.736zM39.606 8.55c4.8-.272 10.237.271 16.308 1.628 6.213 1.222 11.79 3.257 16.732 6.107 2.542 1.493 4.66 3.325 6.354 5.497 1.695 2.17 2.966 4.478 3.813 6.92a21.056 21.056 0 011.694 7.126c.141 2.442-.141 4.682-.847 6.717-.141.272-.283.679-.424 1.222a10.94 10.94 0 01-.635 1.425l-.847 1.221c-.283.271-.565.34-.848.204-.423 0-.635-.475-.635-1.425.141-.95.353-1.968.635-3.054.706-3.8.353-7.125-1.059-9.975-1.27-2.85-3.247-5.224-5.93-7.124-2.683-2.036-5.789-3.665-9.319-4.886a72.446 72.446 0 00-11.013-2.85c-3.672-.678-7.272-1.018-10.802-1.018-3.53-.136-6.566-.068-9.107.204a72.816 72.816 0 00-10.59 2.035c-3.389.815-6.566 1.765-9.531 2.85-2.965 1.086-5.507 2.24-7.625 3.461-2.118 1.221-3.6 2.375-4.447 3.46C.635 29.382.14 29.722 0 29.314c0-.407.141-1.017.424-1.832.988-2.714 2.824-5.157 5.506-7.328 2.683-2.307 5.79-4.275 9.32-5.903 3.53-1.629 7.412-2.918 11.648-3.868A81.947 81.947 0 0139.606 8.55zM29.228 145.753c-4.66 1.764-8.401 3.325-11.225 4.682-2.683 1.357-5.366 3.121-8.049 5.293-.282.135-.564.407-.847.814-.282.407-.565.543-.847.407-.282-.136-.282-.543 0-1.221.282-.543.565-.95.847-1.222 1.412-1.9 3.248-3.732 5.507-5.496 2.26-1.9 5.436-3.664 9.53-5.293a87.022 87.022 0 014.66-1.628 54.856 54.856 0 015.084-1.629c1.694-.407 3.035-.678 4.024-.814 1.13-.136 1.835 0 2.118.407.14.272-.283.679-1.271 1.222a357.6 357.6 0 01-3.389 1.832l-3.812 1.628c-1.13.543-1.906.882-2.33 1.018z" fill="#9BAAF2"/>
</svg>