<svg width="211" height="94" viewBox="0 0 211 94" fill="none" xmlns="http://www.w3.org/2000/svg">
<g opacity="0.5">
<path d="M207.636 67.7699H3.36446C2.47246 67.7689 1.61728 67.4141 0.986533 66.7834C0.355791 66.1526 0.00100118 65.2975 0 64.4054V3.36446C0.00100118 2.47246 0.355791 1.61728 0.986533 0.986533C1.61728 0.355791 2.47246 0.00100118 3.36446 0H207.636C208.528 0.00099991 209.383 0.355791 210.013 0.986533C210.644 1.61728 210.999 2.47246 211 3.36446V64.4054C210.999 65.2975 210.644 66.1526 210.013 66.7834C209.383 67.4141 208.528 67.7689 207.636 67.7699ZM3.36446 0.961275C2.72732 0.962013 2.1165 1.21544 1.66597 1.66597C1.21545 2.11649 0.962013 2.72732 0.961275 3.36446V64.4054C0.962013 65.0426 1.21545 65.6534 1.66597 66.1039C2.1165 66.5545 2.72732 66.8079 3.36446 66.8086H207.636C208.273 66.8079 208.884 66.5545 209.334 66.104C209.785 65.6534 210.038 65.0426 210.039 64.4054V3.36446C210.038 2.72732 209.785 2.11649 209.334 1.66596C208.884 1.21543 208.273 0.962003 207.636 0.961275H3.36446Z" fill="#3F3D56"/>
<path d="M92.7511 93.4721C92.3507 93.4705 91.9612 93.3415 91.6389 93.1038L88.9587 91.1566C88.7363 90.9942 88.4681 90.9067 88.1927 90.9067C87.9173 90.9067 87.6491 90.9942 87.4267 91.1566L84.7465 93.1038C84.4232 93.3387 84.0339 93.4652 83.6344 93.4652C83.2349 93.4652 82.8456 93.3387 82.5223 93.1039C82.199 92.8691 81.9584 92.538 81.8349 92.158C81.7114 91.778 81.7113 91.3687 81.8348 90.9887L82.8586 87.8379C82.9442 87.5762 82.9444 87.294 82.8594 87.0321C82.7743 86.7702 82.6083 86.5421 82.3852 86.3806L79.705 84.4333C79.3817 84.1985 79.1411 83.8673 79.0176 83.4873C78.8941 83.1073 78.8941 82.698 79.0176 82.318C79.1411 81.938 79.3817 81.6068 79.7049 81.372C80.0282 81.1371 80.4175 81.0106 80.817 81.0106H84.1301C84.4054 81.0111 84.6738 80.9242 84.8965 80.7624C85.1192 80.6005 85.2849 80.3722 85.3695 80.1102L86.3931 76.9594C86.5166 76.5794 86.7572 76.2482 87.0805 76.0133C87.4037 75.7784 87.7931 75.6519 88.1927 75.6519C88.5923 75.6519 88.9816 75.7784 89.3049 76.0133C89.6282 76.2482 89.8688 76.5794 89.9922 76.9594L91.0159 80.1102C91.1005 80.3722 91.2661 80.6005 91.4889 80.7624C91.7116 80.9242 91.98 81.0111 92.2553 81.0106H95.5683C95.9679 81.0106 96.3572 81.1371 96.6804 81.372C97.0036 81.6068 97.2442 81.938 97.3677 82.318C97.4912 82.698 97.4912 83.1073 97.3677 83.4873C97.2442 83.8673 97.0036 84.1985 96.6804 84.4333L94.0002 86.3806C93.7771 86.5421 93.6111 86.7702 93.526 87.0321C93.4409 87.294 93.4412 87.5762 93.5268 87.8379L94.5506 90.9887C94.6785 91.3683 94.6808 91.779 94.557 92.16C94.4332 92.541 94.1899 92.872 93.8632 93.1038C93.541 93.3415 93.1515 93.4705 92.7511 93.4721Z" fill="#9BAAF2"/>
<path d="M119.911 93.4721C119.511 93.4705 119.121 93.3415 118.799 93.1038L116.119 91.1566C115.896 90.9942 115.628 90.9067 115.353 90.9067C115.077 90.9067 114.809 90.9942 114.587 91.1566L111.907 93.1038C111.583 93.3387 111.194 93.4652 110.794 93.4652C110.395 93.4652 110.006 93.3387 109.682 93.1039C109.359 92.8691 109.118 92.538 108.995 92.158C108.871 91.778 108.871 91.3687 108.995 90.9887L110.019 87.8379C110.104 87.5762 110.105 87.294 110.019 87.0321C109.934 86.7702 109.768 86.5421 109.545 86.3806L106.865 84.4333C106.542 84.1985 106.301 83.8673 106.178 83.4873C106.054 83.1073 106.054 82.698 106.178 82.318C106.301 81.938 106.542 81.6068 106.865 81.372C107.188 81.1371 107.578 81.0106 107.977 81.0106H111.29C111.565 81.0111 111.834 80.9242 112.057 80.7624C112.279 80.6005 112.445 80.3722 112.53 80.1102L113.553 76.9594C113.677 76.5794 113.917 76.2482 114.241 76.0133C114.564 75.7784 114.953 75.6519 115.353 75.6519C115.752 75.6519 116.142 75.7784 116.465 76.0133C116.788 76.2482 117.029 76.5794 117.152 76.9594L118.176 80.1102C118.261 80.3722 118.426 80.6005 118.649 80.7624C118.872 80.9242 119.14 81.0111 119.416 81.0106H122.728C123.128 81.0106 123.517 81.1371 123.84 81.372C124.164 81.6068 124.404 81.938 124.528 82.318C124.651 82.698 124.651 83.1073 124.528 83.4873C124.404 83.8673 124.164 84.1985 123.841 84.4333L121.16 86.3806C120.937 86.542 120.771 86.7702 120.686 87.0321C120.601 87.294 120.601 87.5762 120.687 87.8379L121.711 90.9887C121.839 91.3683 121.841 91.779 121.717 92.16C121.593 92.541 121.35 92.872 121.023 93.1038C120.701 93.3415 120.312 93.4705 119.911 93.4721Z" fill="#9BAAF2"/>
<path d="M147.071 93.4721C146.671 93.4705 146.281 93.3415 145.959 93.1038L143.279 91.1566C143.056 90.9946 142.788 90.9073 142.513 90.9073C142.238 90.9073 141.969 90.9946 141.747 91.1566L139.067 93.1038C138.743 93.3387 138.354 93.4652 137.955 93.4652C137.555 93.4652 137.166 93.3388 136.842 93.1039C136.519 92.8691 136.279 92.538 136.155 92.158C136.032 91.778 136.032 91.3687 136.155 90.9887L137.179 87.8379C137.264 87.5762 137.265 87.294 137.18 87.0321C137.094 86.7702 136.928 86.5421 136.705 86.3806L134.025 84.4333C133.702 84.1985 133.461 83.8673 133.338 83.4873C133.214 83.1073 133.214 82.698 133.338 82.318C133.461 81.938 133.702 81.6068 134.025 81.372C134.348 81.1371 134.738 81.0106 135.137 81.0106H138.45C138.726 81.0111 138.994 80.9242 139.217 80.7624C139.439 80.6005 139.605 80.3722 139.69 80.1102L140.713 76.9594C140.837 76.5794 141.077 76.2482 141.401 76.0133C141.724 75.7784 142.113 75.6519 142.513 75.6519C142.913 75.6519 143.302 75.7784 143.625 76.0133C143.948 76.2482 144.189 76.5794 144.312 76.9594L145.336 80.1102C145.421 80.3722 145.586 80.6005 145.809 80.7624C146.032 80.9242 146.3 81.0111 146.576 81.0106H149.889C150.288 81.0106 150.677 81.1371 151.001 81.372C151.324 81.6068 151.564 81.938 151.688 82.318C151.811 82.698 151.811 83.1073 151.688 83.4873C151.564 83.8673 151.324 84.1985 151.001 84.4333L148.32 86.3806C148.097 86.5421 147.931 86.7702 147.846 87.0321C147.761 87.294 147.761 87.5762 147.847 87.8379L148.871 90.9887C148.999 91.3683 149.001 91.779 148.877 92.16C148.753 92.541 148.51 92.872 148.183 93.1038C147.861 93.3415 147.472 93.4705 147.071 93.4721Z" fill="#9BAAF2"/>
<path d="M192.275 93.6589C191.835 93.6571 191.407 93.5156 191.053 93.2547C190.694 93 190.427 92.6363 190.291 92.2178C190.155 91.7992 190.158 91.3479 190.298 90.9309L191.322 87.7802C191.395 87.5559 191.396 87.3141 191.323 87.0897C191.25 86.8653 191.107 86.6698 190.916 86.5314L188.236 84.584C187.881 84.326 187.616 83.9623 187.481 83.5448C187.345 83.1274 187.345 82.6778 187.481 82.2603C187.617 81.8429 187.881 81.4791 188.236 81.2212C188.591 80.9632 189.019 80.8243 189.458 80.8243H192.771C193.006 80.8248 193.237 80.7502 193.427 80.6115C193.618 80.4728 193.76 80.277 193.833 80.0524L194.857 76.9017C194.992 76.4843 195.257 76.1206 195.612 75.8626C195.967 75.6046 196.394 75.4657 196.833 75.4657C197.272 75.4657 197.7 75.6046 198.055 75.8626C198.41 76.1206 198.674 76.4843 198.81 76.9017L199.834 80.0524C199.906 80.277 200.048 80.4728 200.239 80.6115C200.43 80.7502 200.66 80.8247 200.896 80.8243H204.209C204.648 80.8243 205.075 80.9633 205.43 81.2213C205.785 81.4792 206.05 81.843 206.185 82.2604C206.321 82.6778 206.321 83.1274 206.185 83.5448C206.05 83.9622 205.785 84.326 205.43 84.584L202.75 86.5314C202.559 86.6697 202.417 86.8652 202.344 87.0896C202.271 87.3141 202.271 87.5559 202.344 87.7802L203.368 90.9309C203.504 91.3483 203.504 91.7979 203.368 92.2153C203.232 92.6327 202.968 92.9965 202.613 93.2545C202.258 93.5124 201.83 93.6514 201.391 93.6514C200.953 93.6514 200.525 93.5124 200.17 93.2545L197.49 91.3073C197.299 91.1682 197.069 91.0932 196.833 91.0932C196.597 91.0932 196.367 91.1682 196.177 91.3073L193.496 93.2545C193.142 93.5155 192.715 93.6572 192.275 93.6589ZM196.833 90.1315C197.272 90.1316 197.7 90.271 198.055 90.5296L200.735 92.4767C200.926 92.6155 201.155 92.6902 201.391 92.6902C201.627 92.6903 201.857 92.6156 202.048 92.4769C202.239 92.3383 202.381 92.1428 202.454 91.9184C202.527 91.694 202.527 91.4523 202.454 91.228L201.43 88.0773C201.294 87.66 201.293 87.21 201.429 86.7924C201.565 86.3748 201.829 86.0111 202.185 85.7537L204.865 83.8063C205.056 83.6676 205.198 83.4721 205.271 83.2478C205.344 83.0234 205.344 82.7818 205.271 82.5574C205.198 82.3331 205.056 82.1376 204.865 81.9989C204.674 81.8603 204.445 81.7856 204.209 81.7856H200.896C200.457 81.7864 200.029 81.6478 199.673 81.3897C199.318 81.1316 199.054 80.7674 198.919 80.3496L197.895 77.1989C197.823 76.9745 197.681 76.779 197.49 76.6403C197.299 76.5017 197.069 76.427 196.833 76.427C196.597 76.427 196.367 76.5017 196.176 76.6403C195.986 76.779 195.844 76.9745 195.771 77.1989L194.747 80.3496C194.612 80.7674 194.348 81.1316 193.993 81.3897C193.638 81.6478 193.21 81.7864 192.77 81.7856H189.458C189.222 81.7856 188.992 81.8603 188.801 81.9989C188.61 82.1375 188.468 82.333 188.395 82.5574C188.322 82.7817 188.322 83.0234 188.395 83.2477C188.468 83.4721 188.61 83.6676 188.801 83.8063L191.481 85.7537C191.837 86.0112 192.102 86.3749 192.237 86.7925C192.373 87.2101 192.373 87.66 192.236 88.0773L191.212 91.228C191.139 91.4523 191.139 91.694 191.212 91.9183C191.285 92.1427 191.427 92.3382 191.618 92.4768C191.809 92.6155 192.039 92.6901 192.275 92.6901C192.511 92.6901 192.74 92.6154 192.931 92.4767L195.612 90.5296C195.966 90.271 196.394 90.1316 196.833 90.1315Z" fill="#3F3D56"/>
<path d="M164.878 93.5817C164.439 93.5799 164.011 93.4384 163.657 93.1776C163.298 92.9228 163.031 92.5592 162.895 92.1406C162.759 91.722 162.761 91.2708 162.902 90.8537L163.926 87.703C163.999 87.4787 163.999 87.2369 163.926 87.0125C163.853 86.7881 163.711 86.5926 163.52 86.4542L160.84 84.5068C160.484 84.2488 160.22 83.8851 160.085 83.4677C159.949 83.0502 159.949 82.6006 160.085 82.1832C160.22 81.7658 160.484 81.402 160.84 81.144C161.195 80.8861 161.622 80.7471 162.061 80.7472H165.374C165.61 80.7476 165.84 80.6731 166.031 80.5344C166.222 80.3956 166.364 80.1998 166.436 79.9753L167.46 76.8246C167.596 76.4072 167.86 76.0434 168.215 75.7855C168.57 75.5275 168.998 75.3885 169.437 75.3885C169.876 75.3885 170.303 75.5275 170.658 75.7855C171.014 76.0434 171.278 76.4072 171.413 76.8246L172.437 79.9753C172.51 80.1998 172.652 80.3956 172.843 80.5343C173.033 80.6731 173.263 80.7476 173.499 80.7472H176.812C177.251 80.7472 177.679 80.8861 178.034 81.1441C178.389 81.4021 178.653 81.7658 178.789 82.1832C178.925 82.6006 178.925 83.0502 178.789 83.4677C178.653 83.8851 178.389 84.2488 178.034 84.5068L175.354 86.4543C175.163 86.5926 175.02 86.788 174.947 87.0125C174.874 87.2369 174.875 87.4787 174.948 87.703L175.972 90.8537C176.107 91.2711 176.107 91.7207 175.972 92.1382C175.836 92.5556 175.572 92.9193 175.217 93.1773C174.862 93.4353 174.434 93.5742 173.995 93.5742C173.556 93.5742 173.129 93.4353 172.773 93.1773L170.093 91.2301C169.903 91.091 169.673 91.0161 169.437 91.0161C169.201 91.0161 168.971 91.091 168.78 91.2301L166.1 93.1773C165.746 93.4384 165.318 93.58 164.878 93.5817ZM169.437 90.0543C169.876 90.0544 170.303 90.1938 170.658 90.4524L173.338 92.3996C173.529 92.5383 173.759 92.613 173.995 92.6131C174.231 92.6131 174.461 92.5384 174.652 92.3998C174.843 92.2611 174.985 92.0656 175.057 91.8412C175.13 91.6168 175.13 91.3752 175.057 91.1508L174.034 88.0001C173.897 87.5828 173.897 87.1329 174.033 86.7153C174.168 86.2977 174.433 85.9339 174.789 85.6765L177.469 83.7291C177.66 83.5904 177.802 83.3949 177.875 83.1706C177.948 82.9462 177.948 82.7046 177.875 82.4803C177.802 82.2559 177.66 82.0604 177.469 81.9218C177.278 81.7831 177.048 81.7084 176.812 81.7084H173.499C173.06 81.7092 172.632 81.5706 172.277 81.3125C171.922 81.0544 171.658 80.6902 171.523 80.2724L170.499 77.1217C170.426 76.8974 170.284 76.7018 170.093 76.5632C169.902 76.4245 169.673 76.3498 169.437 76.3498C169.201 76.3498 168.971 76.4245 168.78 76.5632C168.589 76.7018 168.447 76.8974 168.374 77.1217L167.351 80.2724C167.216 80.6902 166.952 81.0544 166.596 81.3125C166.241 81.5706 165.813 81.7093 165.374 81.7084H162.061C161.825 81.7084 161.595 81.7831 161.405 81.9217C161.214 82.0604 161.072 82.2559 160.999 82.4802C160.926 82.7046 160.926 82.9462 160.999 83.1706C161.072 83.3949 161.214 83.5904 161.405 83.7291L164.085 85.6765C164.441 85.934 164.705 86.2977 164.841 86.7153C164.977 87.1329 164.976 87.5828 164.84 88.0001L163.816 91.1508C163.743 91.3751 163.743 91.6168 163.816 91.8411C163.889 92.0655 164.031 92.261 164.222 92.3996C164.413 92.5383 164.642 92.613 164.878 92.6129C165.114 92.6129 165.344 92.5382 165.535 92.3996L168.215 90.4524C168.57 90.1938 168.998 90.0544 169.437 90.0543Z" fill="#3F3D56"/>
<path d="M26.4351 14.4191C25.6065 14.4191 24.8119 14.7483 24.226 15.3342C23.6401 15.9201 23.3109 16.7147 23.3109 17.5433C23.3109 18.3718 23.6401 19.1665 24.226 19.7524C24.8119 20.3383 25.6065 20.6674 26.4351 20.6674H184.565C185.393 20.6674 186.188 20.3383 186.774 19.7524C187.36 19.1665 187.689 18.3718 187.689 17.5433C187.689 16.7147 187.36 15.9201 186.774 15.3342C186.188 14.7483 185.393 14.4191 184.565 14.4191H26.4351Z" fill="#CCCCCC"/>
<path d="M26.4351 30.7608C25.6065 30.7608 24.8119 31.09 24.226 31.6758C23.6401 32.2617 23.3109 33.0564 23.3109 33.8849C23.3109 34.7135 23.6401 35.5082 24.226 36.094C24.8119 36.6799 25.6065 37.0091 26.4351 37.0091H184.565C185.393 37.0091 186.188 36.6799 186.774 36.094C187.36 35.5082 187.689 34.7135 187.689 33.8849C187.689 33.0564 187.36 32.2617 186.774 31.6758C186.188 31.09 185.393 30.7608 184.565 30.7608H26.4351Z" fill="#CCCCCC"/>
<path d="M26.4351 47.1025C25.6065 47.1025 24.8119 47.4316 24.226 48.0175C23.6401 48.6034 23.3109 49.398 23.3109 50.2266C23.3109 51.0552 23.6401 51.8498 24.226 52.4357C24.8119 53.0216 25.6065 53.3508 26.4351 53.3508H184.565C185.393 53.3508 186.188 53.0216 186.774 52.4357C187.36 51.8498 187.689 51.0552 187.689 50.2266C187.689 49.398 187.36 48.6034 186.774 48.0175C186.188 47.4316 185.393 47.1025 184.565 47.1025H26.4351Z" fill="#CCCCCC"/>
</g>
</svg>
