<svg width="211" height="113" viewBox="0 0 211 113" fill="none" xmlns="http://www.w3.org/2000/svg">
<g opacity="0.5" clip-path="url(#clip0)">
<path opacity="0.1" d="M8.94701 16.2201C9.28886 18.3889 10.1625 20.4837 10.1701 22.6773C10.1986 29.8447 1.50225 34.247 0.170927 41.2892C-0.619129 45.4673 1.42818 49.7367 4.31492 52.8532C7.20167 55.9698 10.8823 58.2165 14.2723 60.7804C23.6519 67.8872 30.8817 77.4512 35.1613 88.4133C36.0178 90.6164 36.7547 92.8878 36.9978 95.239C37.1744 96.9482 37.0909 98.6974 37.4916 100.367C39.0774 106.993 47.1185 109.564 53.9175 109.994C64.8679 110.673 75.8289 108.843 85.9642 104.642C88.2432 103.692 90.5963 102.613 93.0424 102.881C94.9985 103.096 96.7439 104.154 98.4607 105.117C103.517 107.954 108.898 110.169 114.486 111.714C117.582 112.569 120.831 113.218 123.993 112.664C133.489 110.989 138.535 99.4722 147.853 96.9539C154.298 95.2124 161.006 98.2548 166.787 101.595C172.568 104.936 178.536 108.784 185.209 108.793C194.113 108.805 201.432 102.066 207.471 95.5257C208.738 94.1526 210.026 92.7169 210.63 90.9487C211.855 87.3593 209.87 83.3274 206.936 80.9154C204.002 78.5035 200.302 77.307 196.768 75.9282C190.777 73.591 185.06 70.6054 179.719 67.0248C176.262 64.7079 172.914 62.087 170.55 58.6685C168.516 55.721 167.294 52.3044 165.931 48.9922C162.941 41.7393 158.714 34.3686 151.655 30.9653C145.891 28.1849 139.196 28.4963 132.798 28.4223C123.37 28.3178 113.703 27.184 105.345 22.8235C98.286 19.141 92.4878 13.3276 85.3242 9.84646C73.9291 4.31417 60.9027 5.3986 48.6245 5.60751C42.7238 5.70816 35.7102 6.29691 30.043 4.36355C25.8515 2.93347 23.6941 0.010646 18.8797 1.18813C12.2952 2.79293 7.89486 9.5293 8.94701 16.2201Z" fill="#9BAAF2"/>
<path d="M183.523 68.4265C183.225 67.4395 183.256 66.3822 183.612 65.4145C184.182 63.9407 185.57 62.8772 186.058 61.3711C186.966 58.5736 184.52 55.9547 183.019 53.4193C181.643 51.0669 181.02 48.3498 181.232 45.6327C181.466 42.7155 182.661 39.9257 182.752 37.0009C182.833 34.2756 181.95 31.6244 181.079 29.0415C180.359 26.9068 179.626 24.7475 178.408 22.8521C176.106 19.2683 172.018 17.0159 167.813 16.6437C165.828 16.4671 163.887 17.1128 161.937 16.8602C159.229 16.5107 156.668 15.808 153.907 15.7207C151.284 15.6428 148.384 15.9752 146.597 17.8971C145.232 19.369 144.795 21.4942 143.545 23.0667C141.771 25.2982 138.67 26.0636 136.708 28.1299C135.861 29.0431 135.265 30.1614 134.981 31.3745C134.697 32.5877 134.734 33.854 135.088 35.0486C135.36 35.9298 135.804 36.7483 136.093 37.6239C137.306 41.2817 135.713 45.194 134.75 48.9239C134.642 49.2287 134.622 49.558 134.693 49.8735C134.845 50.3293 135.324 50.5686 135.721 50.8383C137.02 51.7233 137.682 53.3262 137.81 54.893C137.937 56.4599 137.574 58.021 137.217 59.5517C136.307 63.4431 135.17 67.6118 132.171 70.2004C131.627 68.9018 130.983 67.6472 130.245 66.4476C128.411 63.4735 127.053 59.8005 127.03 56.2851C127.029 56.2744 127.029 56.2636 127.03 56.2528C127.03 56.0629 127.039 55.873 127.051 55.6831C127.288 51.5353 129.081 47.5337 129.041 43.4049C129.041 43.0707 129.032 42.7358 129.013 42.4003C128.779 38.8659 127.081 35.5974 125.135 32.6385C123.682 30.4298 122.045 28.297 119.948 26.6884C116.706 24.2214 112.587 23.1503 108.54 22.5843C104.492 22.0183 100.81 21.4866 96.7306 21.2131C92.3435 20.9187 87.5158 20.7535 84.0479 23.4541C79.526 26.9752 79.2753 33.7761 75.8283 38.3531C73.7772 41.0766 70.5106 43.1808 69.43 46.2746C69.1376 45.5154 68.894 44.7383 68.7007 43.9481C68.6893 43.8949 68.6779 43.8436 68.6665 43.7905C69.9698 40.0575 70.2729 36.0483 69.5458 32.1618C69.6316 31.5324 69.6754 30.8979 69.6769 30.2627C69.6981 29.5713 69.6233 28.8804 69.4547 28.2097C68.9666 26.3599 67.6201 24.8804 66.3191 23.4769C65.8455 22.9411 65.3312 22.4427 64.7808 21.9861C61.3763 17.8613 56.6163 15.081 51.3511 14.1419C46.0859 13.2027 40.6583 14.1658 36.0376 16.8592C31.4169 19.5525 27.9042 23.8007 26.1266 28.845C24.3491 33.8893 24.4226 39.4012 26.3339 44.3963C26.1668 45.6915 25.6654 46.9507 24.7443 47.8642C24.3246 48.2801 23.7814 48.8005 23.8726 49.3323C23.8443 49.4837 23.8656 49.6402 23.9334 49.7786C24.0267 49.9443 24.1566 50.0866 24.3132 50.1945C25.6419 51.2099 27.2966 51.7031 28.9643 51.5809C30.3716 55.7169 33.1305 59.2586 36.7965 61.6351C36.7965 61.7617 36.792 61.8845 36.7832 62.0035C36.7832 62.2144 36.7661 62.4233 36.7566 62.636C36.7566 62.6834 36.7566 62.7309 36.7566 62.7784C36.7566 62.7613 36.7566 62.7423 36.7566 62.7233C36.7566 62.7043 30.1437 71.3437 24.0321 71.6646C20.7694 71.8356 17.9225 74.0367 15.765 76.5531C13.1746 79.5728 11.5755 83.0445 11.4387 84.0055C11.1861 85.7679 9.4237 94.3332 9.4237 94.3332H60.1962C59.5961 97.4174 58.787 101.347 58.787 101.347H140.981C140.791 98.7051 140.581 96.2627 140.385 94.1945H150.718L150.707 94.2572H198.376L201.4 89.7201C200.649 76.4999 192.852 69.2318 183.523 68.4265ZM64.8435 53.6586C65.9158 54.2356 67.0679 54.6503 68.262 54.8892C68.7804 54.9956 69.3597 55.0621 69.8022 54.7715C70.0955 54.55 70.3125 54.2426 70.4232 53.8922L70.446 53.9492C71.728 57.1777 72.9149 60.5089 73.1447 63.9768C73.1656 64.3034 73.1789 64.6301 73.1808 64.9587C73.186 66.9368 72.7778 68.8943 71.9825 70.7056C67.6886 68.4475 63.5477 65.9098 59.5866 63.1089L59.3188 62.9949C59.3188 63.0158 59.4118 63.2532 59.522 63.6539C59.5486 63.7508 59.577 63.8571 59.6055 63.9711C59.334 63.0937 59.0871 62.1973 58.8706 61.2838C58.8459 61.1755 58.8212 61.0672 58.7965 60.959C61.3828 59.0608 63.46 56.553 64.8435 53.6586Z" fill="url(#paint0_linear)"/>
<path d="M153.145 16.3929C150.565 16.315 147.708 16.6436 145.951 18.5352C144.607 19.9823 144.178 22.0752 142.947 23.6231C141.202 25.8204 138.15 26.5725 136.216 28.6065C135.382 29.5053 134.796 30.6061 134.516 31.8003C134.236 32.9945 134.273 34.2409 134.621 35.4169C134.889 36.2829 135.326 37.0901 135.61 37.9504C136.805 41.5588 135.246 45.4009 134.281 49.072C134.173 49.373 134.154 49.6986 134.226 50.0102C134.374 50.4584 134.847 50.6939 135.236 50.9597C136.514 51.8315 137.168 53.4078 137.284 54.948C137.399 56.4882 137.052 58.0266 136.701 59.5326C135.768 63.5209 134.591 67.8149 131.352 70.3275C129.985 71.4005 128.158 72.2703 127.801 73.9796C127.383 75.9813 129.294 77.683 131.126 78.5889C136.507 81.2477 142.753 81.2857 148.639 82.4708C153.822 83.5153 158.991 85.4943 164.237 84.8182C166.575 84.5181 168.81 83.6958 171.022 82.881L184.799 77.8045C185.188 77.6856 185.554 77.5013 185.882 77.2595C186.711 76.5682 186.74 75.2539 186.288 74.2721C185.836 73.2902 185.015 72.5381 184.294 71.7329C182.721 69.9723 181.525 67.4863 182.383 65.2871C182.953 63.8361 184.311 62.7897 184.791 61.2988C185.684 58.545 183.272 55.966 181.81 53.4704C180.457 51.1575 179.843 48.4863 180.051 45.8149C180.281 42.9433 181.456 40.1971 181.542 37.318C181.622 34.6363 180.754 32.0269 179.895 29.4839C179.187 27.3834 178.465 25.2582 177.267 23.3914C175.001 19.8646 170.977 17.6483 166.837 17.2798C164.882 17.107 162.974 17.7413 161.054 17.4944C158.385 17.1659 155.863 16.4746 153.145 16.3929Z" fill="#F7D6C8"/>
<path d="M156.999 91.754C156.999 91.754 141.38 81.9619 147.454 70.6732C148.859 68.0638 149.48 65.5948 149.607 63.3405C149.641 62.7465 149.641 62.1511 149.607 61.5572C149.607 61.5287 149.607 61.5002 149.607 61.4717C149.587 61.1653 149.56 60.864 149.526 60.5677C148.802 54.6081 144.973 50.7243 144.973 50.7243C144.973 50.7243 170.88 43.1637 166.542 49.9798C164.529 53.1438 165.131 56.2471 166.48 59.4586C166.622 59.7966 166.774 60.1385 166.932 60.4784C168.489 63.8647 170.65 67.3724 171.254 71.1765C172.492 78.9859 156.999 91.754 156.999 91.754Z" fill="#EFB7B9"/>
<path opacity="0.1" d="M166.542 49.9797C164.529 53.1437 165.131 56.2469 166.48 59.4584C163.98 61.0698 161.112 62.0179 158.144 62.2133C155.177 62.4087 152.209 61.8449 149.52 60.5752C148.802 54.608 144.973 50.7242 144.973 50.7242C144.973 50.7242 170.882 43.1617 166.542 49.9797Z" fill="black"/>
<path d="M156.997 61.88C166.65 61.88 174.475 54.0548 174.475 44.4019C174.475 34.749 166.65 26.9238 156.997 26.9238C147.344 26.9238 139.519 34.749 139.519 44.4019C139.519 54.0548 147.344 61.88 156.997 61.88Z" fill="#EFB7B9"/>
<path opacity="0.1" d="M149.607 61.5647C149.607 61.5363 149.607 61.5078 149.607 61.4793L149.628 61.4451C149.617 61.4869 149.609 61.5268 149.607 61.5647Z" fill="black"/>
<path opacity="0.1" d="M156.999 91.7539C156.999 91.7539 141.38 81.9617 147.454 70.6731C148.859 68.0636 149.48 65.5947 149.607 63.3404C149.962 66.1283 151.886 69.5943 155.388 74.3916C156.908 76.4807 157.561 79.4017 157.768 82.3207L158.116 82.5733L159.825 81.5401C160.015 78.3115 160.668 75.0488 162.214 72.7356C166.276 66.6582 167.241 63.6195 166.941 60.4707C168.498 63.8569 170.66 67.3647 171.264 71.1687C172.492 78.9857 156.999 91.7539 156.999 91.7539Z" fill="black"/>
<path d="M182.038 68.2326C172.732 67.5565 166.844 60.332 166.844 60.332C167.34 63.7164 166.535 66.7455 162.195 73.2464C160.659 75.552 160.007 78.8091 159.817 82.0453L158.108 83.0784L157.76 82.8258C157.553 79.9087 156.902 76.984 155.381 74.8968C151.043 68.9467 149.114 65.042 149.617 61.9425C149.617 61.9425 144.844 69.6893 135.548 70.3103C126.251 70.9313 118.442 77.5005 117.696 89.5242L120.67 93.615H150.006L149.995 93.6777H196.904L199.89 89.209C199.143 76.0819 191.344 68.9087 182.038 68.2326Z" fill="#9BAAF2"/>
<path opacity="0.05" d="M182.038 68.2326C172.732 67.5565 166.844 60.332 166.844 60.332C167.34 63.7164 166.535 66.7455 162.195 73.2464C160.659 75.552 160.007 78.8091 159.817 82.0453L158.108 83.0784L157.76 82.8258C157.553 79.9087 156.902 76.984 155.381 74.8968C151.043 68.9467 149.114 65.042 149.617 61.9425C149.617 61.9425 144.844 69.6893 135.548 70.3103C126.251 70.9313 118.442 77.5005 117.696 89.5242L120.67 93.615H150.006L149.995 93.6777H196.904L199.89 89.209C199.143 76.0819 191.344 68.9087 182.038 68.2326Z" fill="black"/>
<path opacity="0.1" d="M168.814 35.9543C168.054 37.8345 166.706 39.4222 165.232 40.8162C163.196 42.7439 160.636 44.4417 157.836 44.3107C159.363 42.889 160.467 41.0739 161.029 39.0652C159.263 40.0945 157.928 41.724 156.241 42.8844C154.555 44.0448 152.171 44.6431 150.523 43.4314C153.517 41.9261 156.004 39.5762 157.677 36.6722C153.673 37.7111 151.619 42.2197 148.012 44.2442C146.322 45.1938 144.345 45.5509 142.408 45.5091C141.031 45.4806 139.496 45.1596 138.729 44.0163C138.281 43.3516 138.176 42.516 138.159 41.7126C138.076 38.07 139.559 34.4958 141.844 31.6603C144.128 28.8248 147.161 26.6693 150.405 24.9961C151.56 24.3998 152.764 23.8566 154.049 23.6667C155.649 23.435 157.278 23.7749 158.847 24.1358C160.887 24.603 162.938 25.1157 164.816 26.0349C168.825 28.0196 170.576 31.6166 168.814 35.9543Z" fill="black"/>
<path d="M168.814 35.7056C168.054 37.5857 166.706 39.1734 165.232 40.5674C163.196 42.4951 160.636 44.193 157.836 44.0619C159.363 42.6402 160.467 40.8252 161.029 38.8164C159.263 39.8457 157.928 41.4752 156.241 42.6356C154.555 43.796 152.171 44.3943 150.523 43.1826C153.517 41.6773 156.004 39.3274 157.677 36.4234C153.673 37.4623 151.619 41.9709 148.012 43.9954C146.322 44.945 144.345 45.3021 142.408 45.2603C141.031 45.2318 139.496 44.9108 138.729 43.7675C138.281 43.1028 138.176 42.2672 138.159 41.4638C138.076 37.8212 139.559 34.247 141.844 31.4115C144.128 28.5761 147.161 26.4205 150.405 24.7473C151.56 24.151 152.764 23.6078 154.049 23.4179C155.649 23.1862 157.278 23.5262 158.847 23.887C160.887 24.3542 162.938 24.867 164.816 25.7862C168.825 27.767 170.576 31.3678 168.814 35.7056Z" fill="#F7D6C8"/>
<path d="M48.2998 58.8565C60.5539 58.8565 70.4878 48.9226 70.4878 36.6685C70.4878 24.4144 60.5539 14.4805 48.2998 14.4805C36.0457 14.4805 26.1117 24.4144 26.1117 36.6685C26.1117 48.9226 36.0457 58.8565 48.2998 58.8565Z" fill="#C3705A"/>
<path d="M68.1955 79.3713C68.1955 79.3713 47.8743 84.5769 47.3711 85.0688C46.8678 85.5607 30.2652 86.4324 35.0986 76.268C36.8743 72.5361 37.6131 67.4672 37.8372 62.5465C37.8467 62.3376 37.8562 62.1306 37.8638 61.9236C38.1696 53.6754 37.0832 46.0218 37.0832 46.0218C37.0832 46.0218 60.633 36.7158 58.899 50.8571C58.466 54.3743 58.825 57.9087 59.6112 61.2323C59.8733 62.3414 60.181 63.4258 60.5228 64.4779C63.2728 72.9559 68.1955 79.3713 68.1955 79.3713Z" fill="#ECB4B6"/>
<path opacity="0.1" d="M59.6093 61.2362C56.4859 63.5519 52.73 64.859 48.8437 64.9825C44.9574 65.1061 41.1261 64.0402 37.8619 61.9275C38.1677 53.6794 37.0813 46.0257 37.0813 46.0257C37.0813 46.0257 60.6311 36.7197 58.8971 50.861C58.466 54.3802 58.825 57.9145 59.6093 61.2362Z" fill="black"/>
<path d="M48.2371 64.6186C58.7794 64.6186 67.3257 56.0723 67.3257 45.53C67.3257 34.9877 58.7794 26.4414 48.2371 26.4414C37.6948 26.4414 29.1485 34.9877 29.1485 45.53C29.1485 56.0723 37.6948 64.6186 48.2371 64.6186Z" fill="#ECB4B6"/>
<path opacity="0.1" d="M68.1955 79.3714C68.1955 79.3714 47.8743 84.577 47.3711 85.0689C46.8678 85.5608 30.2652 86.4325 35.0986 76.2681C36.8743 72.5363 37.6131 67.4674 37.8372 62.5466C38.0271 65.1181 39.4971 71.3455 39.6851 73.4175C39.6971 73.5386 39.7213 73.6582 39.7573 73.7745C40.0327 74.6956 41.0145 75.7572 42.1977 76.7638L42.268 76.8227C43.7397 78.0572 45.566 78.7915 47.4827 78.9196C49.3994 79.0476 51.3071 78.5626 52.9299 77.5349C54.6191 76.4707 56.2403 75.3023 57.7842 74.0366C59.9949 72.2115 60.6843 69.7521 60.7697 67.5794C60.8051 66.5365 60.7223 65.4929 60.5228 64.4686C63.2728 72.956 68.1955 79.3714 68.1955 79.3714Z" fill="black"/>
<path d="M93.8552 93.7519H10.9221C10.9221 93.7519 12.658 85.3233 12.9049 83.5875C13.0397 82.6379 14.6141 79.2194 17.1647 76.251C19.288 73.7821 22.0893 71.6075 25.3008 71.4385C31.3117 71.1232 37.8201 62.6377 37.8201 62.6377C37.9645 65.1066 39.4876 71.5543 39.6794 73.67C39.6914 73.7911 39.7156 73.9108 39.7516 74.027C40.027 74.9481 41.0088 76.0098 42.192 77.0163L42.2623 77.0752C43.7337 78.3103 45.5599 79.0451 47.4766 79.1735C49.3934 79.3019 51.3013 78.8171 52.9242 77.7893C54.6131 76.7247 56.2343 75.5564 57.7785 74.291C59.9892 72.4659 60.6786 70.0065 60.764 67.8338C60.8076 66.3921 60.6328 64.9521 60.2455 63.5626C60.1373 63.1676 60.0556 62.9359 60.0442 62.915L60.3082 63.027C60.3082 63.027 71.538 71.1935 81.8258 74.5322C83.0315 74.9248 84.1693 75.5013 85.1988 76.2415C86.0327 76.8443 86.8004 77.5338 87.4892 78.2983C88.8817 79.8731 90.0337 81.6452 90.9077 83.5571C93.293 88.6127 93.8552 93.7519 93.8552 93.7519Z" fill="#9BAAF2"/>
<path opacity="0.05" d="M93.8552 93.7519H10.9221C10.9221 93.7519 12.658 85.3233 12.9049 83.5875C13.0397 82.6379 14.6141 79.2194 17.1647 76.251C19.288 73.7821 22.0893 71.6075 25.3008 71.4385C31.3117 71.1232 37.8201 62.6377 37.8201 62.6377C37.9645 65.1066 39.4876 71.5543 39.6794 73.67C39.6914 73.7911 39.7156 73.9108 39.7516 74.027C40.027 74.9481 41.0088 76.0098 42.192 77.0163L42.2623 77.0752C43.7337 78.3103 45.5599 79.0451 47.4766 79.1735C49.3934 79.3019 51.3013 78.8171 52.9242 77.7893C54.6131 76.7247 56.2343 75.5564 57.7785 74.291C59.9892 72.4659 60.6786 70.0065 60.764 67.8338C60.8076 66.3921 60.6328 64.9521 60.2455 63.5626C60.1373 63.1676 60.0556 62.9359 60.0442 62.915L60.3082 63.027C60.3082 63.027 71.538 71.1935 81.8258 74.5322C83.0315 74.9248 84.1693 75.5013 85.1988 76.2415C86.0327 76.8443 86.8004 77.5338 87.4892 78.2983C88.8817 79.8731 90.0337 81.6452 90.9077 83.5571C93.293 88.6127 93.8552 93.7519 93.8552 93.7519Z" fill="black"/>
<path opacity="0.1" d="M57.4139 39.1203C57.9077 41.0195 58.5534 43.1294 60.2494 44.1189C60.4766 44.2278 60.686 44.3706 60.8704 44.5424C61.2882 44.9963 61.161 45.7047 61.0983 46.32C60.8818 48.4319 61.7896 50.5723 63.2785 52.0859C64.7675 53.5996 66.7825 54.5245 68.8621 54.9499C69.3711 55.0543 69.9427 55.1208 70.3815 54.834C70.6779 54.6087 70.8959 54.2957 71.0044 53.9395C71.5836 52.3993 71.3386 50.6692 70.8544 49.0966C70.3701 47.5241 69.656 46.0238 69.2894 44.419C68.4177 40.6111 69.5724 36.6761 70.0928 32.8036C70.2656 31.516 70.3663 30.1885 70.0339 28.9331C69.5534 27.1137 68.2278 25.6552 66.9478 24.2745C66.2584 23.5319 65.5538 22.776 64.6687 22.2898C62.0593 20.8635 58.6996 22.1303 55.9136 21.0914C54.7987 20.6755 53.8511 19.9159 52.7894 19.3822C50.5351 18.2427 47.863 18.18 45.3921 18.6985C42.9213 19.217 40.6062 20.2824 38.3139 21.3383L36.561 22.1322C34.0921 23.2717 31.4465 24.5593 30.1171 26.9428C28.7022 29.4801 29.0953 32.7277 27.6805 35.265C27.2512 36.0246 26.653 36.7539 26.541 37.6275C26.465 38.2581 26.6587 38.8886 26.8391 39.4982C27.2797 40.9815 27.6634 42.5065 27.6292 44.0562C27.595 45.606 27.1012 47.1937 26.0035 48.2838C25.5401 48.7434 24.921 49.3321 25.2058 49.919C25.2993 50.083 25.4293 50.2234 25.5857 50.3292C26.4872 51.0139 27.547 51.4599 28.6668 51.6258C29.7866 51.7918 30.9302 51.6725 31.9916 51.2788C32.8234 50.9616 33.6097 50.4527 34.0807 49.7025C34.3938 49.1529 34.6205 48.5585 34.753 47.94C35.3531 45.7047 35.9571 43.4314 35.9096 41.1163C35.883 39.7869 35.6399 38.4461 35.8336 37.1281C36.0273 35.81 36.7965 34.4521 38.0784 34.0894C39.028 33.8178 40.0441 34.1464 41.0354 34.1369C42.4636 34.1255 44.2147 32.5416 45.5384 33.0069C46.6779 33.4095 47.58 35.5897 48.522 36.4254C50.9111 38.5581 54.2461 39.673 57.4139 39.1203Z" fill="black"/>
<path d="M57.4139 38.8715C57.9077 40.7707 58.5534 42.8806 60.2493 43.8701C60.4733 43.9768 60.6801 44.1163 60.8628 44.2841C61.2806 44.738 61.1533 45.4464 61.0907 46.0618C60.8742 48.1736 61.782 50.314 63.2709 51.8277C64.7599 53.3413 66.7749 54.2662 68.8545 54.6916C69.3635 54.7961 69.9351 54.8625 70.3738 54.5758C70.6703 54.3504 70.8883 54.0375 70.9967 53.6812C71.576 52.141 71.331 50.4109 70.8467 48.8384C70.3624 47.2658 69.6483 45.7655 69.2818 44.1607C68.4101 40.3528 69.5648 36.4178 70.0851 32.5453C70.258 31.2577 70.3586 29.9302 70.0263 28.6748C69.5458 26.8554 68.2202 25.3969 66.9401 24.0162C66.2507 23.2736 65.5461 22.5177 64.6611 22.0315C62.0516 20.6052 58.692 21.872 55.9059 20.8331C54.7911 20.4172 53.8434 19.6576 52.7818 19.1239C50.5275 17.9844 47.8553 17.9217 45.3845 18.4402C42.9137 18.9587 40.5986 20.0241 38.3063 21.08L36.5762 21.8777C34.1072 23.0172 31.4617 24.3048 30.1323 26.6883C28.7174 29.2256 29.1105 32.4732 27.6956 35.0105C27.2664 35.7701 26.6682 36.4994 26.5561 37.373C26.4802 38.0036 26.6739 38.6341 26.8543 39.2437C27.2949 40.727 27.6785 42.252 27.6443 43.8018C27.6102 45.3515 27.1164 46.9392 26.0187 48.0293C25.5553 48.4889 24.9361 49.0777 25.221 49.6645C25.3145 49.8286 25.4444 49.9689 25.6008 50.0747C26.5024 50.7594 27.5622 51.2054 28.682 51.3714C29.8018 51.5374 30.9454 51.418 32.0067 51.0243C32.8386 50.7071 33.6248 50.1982 34.0958 49.448C34.4089 48.8984 34.6357 48.304 34.7681 47.6856C35.3683 45.4502 35.9722 43.1769 35.9247 40.8618C35.8981 39.5324 35.6551 38.1916 35.8488 36.8736C36.0425 35.5555 36.8117 34.1976 38.0936 33.8349C39.0432 33.5633 40.0592 33.8919 41.0506 33.8824C42.4788 33.871 44.2298 32.2871 45.5535 32.7524C46.693 33.155 47.5951 35.3352 48.5371 36.1709C50.9111 38.3112 54.246 39.4261 57.4139 38.8715Z" fill="#C3705A"/>
<path d="M121.002 46.979H77.4919V84.2901H121.002V46.979Z" fill="#463A3E"/>
<path opacity="0.05" d="M121.002 46.979H77.4919V84.2901H121.002V46.979Z" fill="black"/>
<path d="M114.763 100.653H77.5394C78.0199 97.9433 79.4253 94.973 82.1639 91.771C84.3263 89.2538 86.0948 86.4236 87.4094 83.3767C87.7626 82.5625 88.0792 81.7465 88.359 80.9286C89.1816 78.5 89.7413 75.9901 90.0284 73.4421C90.0284 73.3699 90.0454 73.2978 90.053 73.2256C90.245 71.465 90.3224 69.6937 90.2847 67.9231C90.2847 67.7958 90.2847 67.6724 90.2847 67.5433C90.1517 63.1985 89.4331 58.8916 88.1482 54.739L88.1007 54.5909C87.6962 53.3166 87.3999 52.6006 87.3999 52.6006C87.3999 52.6006 88.1387 52.1998 89.358 51.6092L89.4605 51.5598C93.9444 49.4062 104.559 44.9127 109.238 48.1147L109.314 48.166C110.952 49.3321 111.833 51.4725 111.419 55.0372C111.419 55.0505 111.419 55.0657 111.419 55.079C111.419 55.1455 111.404 55.21 111.398 55.2689C111.147 57.7259 111.029 60.1946 111.043 62.6643C111.043 62.7877 111.043 62.9112 111.043 63.0441C111.043 63.6227 111.049 64.2089 111.062 64.8028C111.062 64.8825 111.062 64.9623 111.062 65.042C111.1 66.9602 111.185 68.941 111.305 70.9504C111.47 73.7365 111.705 76.5738 111.977 79.358C112.093 80.5488 112.218 81.732 112.357 82.8962C112.372 83.0329 112.387 83.1734 112.403 83.3083C112.562 84.727 112.727 86.1172 112.896 87.4656L112.908 87.5529C113.553 92.9086 114.267 97.5844 114.763 100.653Z" fill="#C17174"/>
<path opacity="0.1" d="M111.404 55.0448C111.404 55.0581 111.404 55.0733 111.404 55.0866C111.136 57.6098 111.009 60.146 111.024 62.6833C111.024 62.8067 111.024 62.9302 111.024 63.0631C108.524 65.9641 105.17 67.9987 101.442 68.8749C97.7148 69.7511 93.8054 69.4239 90.2753 67.9402C90.2753 67.813 90.2753 67.6895 90.2753 67.5604C90.1414 63.1635 89.4066 58.8056 88.0912 54.608C87.6867 53.3337 87.3904 52.6177 87.3904 52.6177C87.3904 52.6177 88.1292 52.2169 89.3485 51.6263C93.7888 49.4802 104.624 44.8462 109.299 48.1736C110.934 49.3397 111.816 51.4801 111.404 55.0448Z" fill="black"/>
<path d="M97.3041 68.9695C107.302 68.9695 115.407 60.8645 115.407 50.8666C115.407 40.8686 107.302 32.7637 97.3041 32.7637C87.3061 32.7637 79.2012 40.8686 79.2012 50.8666C79.2012 60.8645 87.3061 68.9695 97.3041 68.9695Z" fill="#C17174"/>
<path opacity="0.1" d="M98.2632 100.53H59.6435C59.6435 100.53 61.3794 92.1015 61.6263 90.3657C61.7611 89.4161 63.3355 85.9976 65.8861 83.0292C69.1622 80.4158 73.2197 78.9761 77.4103 78.9402C84.7962 78.8301 86.946 81.3731 87.5291 83.2533C87.7328 83.8837 87.7848 84.5532 87.681 85.2075L89.0788 87.232L98.2632 100.53Z" fill="black"/>
<path d="M98.1398 100.654H59.5201C59.5201 100.654 61.2559 92.225 61.5028 90.4892C61.6377 89.5396 63.2121 86.1211 65.7627 83.1527C69.0387 80.5393 73.0963 79.0997 77.2868 79.0638C84.6727 78.9536 86.8226 81.4966 87.4056 83.3768C87.6093 84.0072 87.6614 84.6767 87.5576 85.331L88.9554 87.3556L98.1398 100.654Z" fill="#9BAAF2"/>
<path opacity="0.1" d="M140.298 100.53H99.8338C101.763 96.4241 106.821 85.4772 107.102 82.9456C107.21 81.9657 108.255 81.0465 109.637 80.2659C110.074 80.0159 110.523 79.789 110.984 79.586L111.067 79.548C111.321 79.4366 111.577 79.3334 111.837 79.2385C115.337 77.9572 119.182 77.9875 122.662 79.3239C125.984 80.5869 130.259 82.2885 133.586 83.8819L133.613 83.8952C134.467 84.3055 135.263 84.7062 135.964 85.0917C137.365 85.8609 138.389 86.5636 138.782 87.1257C138.962 87.384 139.162 88.5482 139.38 90.3543C139.671 92.7966 139.988 96.4203 140.298 100.53Z" fill="black"/>
<path d="M140.421 100.654H99.9573C101.887 96.5476 106.944 85.6008 107.225 83.0692C107.334 82.0892 108.378 81.17 109.761 80.3894C110.197 80.1395 110.647 79.9125 111.107 79.7095L111.191 79.6716C111.444 79.5601 111.7 79.457 111.96 79.362C115.46 78.0807 119.306 78.1111 122.785 79.4475C126.107 80.7104 130.382 82.4121 133.709 84.0055L133.736 84.0188C134.591 84.429 135.386 84.8297 136.087 85.2152C137.489 85.9844 138.512 86.6871 138.905 87.2493C139.086 87.5075 139.285 88.6717 139.504 90.4779C139.796 92.9202 140.111 96.5457 140.421 100.654Z" fill="#9BAAF2"/>
<path opacity="0.1" d="M133.909 80.7977C133.909 81.3813 133.893 81.9657 133.861 82.5506C133.844 82.8355 133.822 83.1203 133.797 83.4052C133.78 83.6103 133.759 83.8135 133.738 84.0168L133.711 84.2523C133.402 87.0137 132.83 89.7599 132.762 92.5345C132.762 92.6656 132.762 92.7966 132.762 92.9277C132.748 95.5333 133.17 98.0991 133.742 100.654H110.439C110.401 100.181 110.382 99.7039 110.388 99.2348C110.388 98.8113 110.414 98.3878 110.458 97.9624C110.817 94.466 112.604 91.1937 112.874 87.7201L112.885 87.5606C112.902 87.3004 112.912 87.0383 112.908 86.7763C112.908 86.7535 112.908 86.7307 112.908 86.706C112.878 85.5575 112.701 84.4175 112.382 83.3141C112.366 83.259 112.351 83.2039 112.336 83.1488C112.01 82.0543 111.63 80.9767 111.197 79.9202L111.113 79.7094C110.481 78.1293 109.816 76.5625 109.366 74.9919C109.008 73.8223 108.823 72.6066 108.817 71.3835C108.817 71.1651 108.83 70.9467 108.847 70.7282C108.862 70.5497 108.883 70.3712 108.91 70.1908C108.951 69.909 109.007 69.6294 109.077 69.3532C109.457 67.8567 110.268 66.4532 111.045 65.063C111.909 63.5152 112.733 61.9845 112.881 60.3569C112.9 60.1511 112.907 59.9443 112.902 59.7377C112.896 59.4716 112.871 59.2063 112.826 58.9439C112.627 57.7892 112.032 56.7503 111.544 55.6849C111.495 55.5767 111.445 55.4684 111.398 55.3582C111.398 55.3412 111.383 55.3241 111.377 55.307C110.427 53.1134 109.877 50.7736 109.297 48.4453C109.273 48.3446 109.248 48.2439 109.221 48.1452C109.079 47.5754 108.933 47.0057 108.777 46.4359C107.926 43.3289 106.715 40.1896 104.409 37.9466C102.103 35.7037 98.4265 34.568 95.5398 35.9962C93.0424 37.2401 91.6902 40.0243 91.0805 42.7439C90.4709 45.4636 90.4215 48.3028 89.6296 50.9769C89.5726 51.1718 89.5093 51.3662 89.4396 51.5599C89.4055 51.6587 89.3713 51.7498 89.3371 51.8581C88.9971 52.8266 88.5774 53.7857 88.1254 54.7391L88.0779 54.8398C86.6346 57.9107 84.9576 60.9285 84.9044 64.0147V64.0546C84.9044 64.1381 84.9044 64.2198 84.9044 64.3033C84.9143 65.0368 85.0255 65.7654 85.2349 66.4684C85.6147 67.7333 86.3022 68.8367 87.1037 69.8869C87.2619 70.0933 87.424 70.2978 87.5899 70.5003C88.3875 71.4803 89.2535 72.4299 90.0113 73.4403L90.036 73.4726C90.6122 74.2188 91.0986 75.0302 91.4851 75.8902C91.9432 76.9673 92.1825 78.1249 92.189 79.2954C92.1956 80.4659 91.9692 81.626 91.523 82.7082C91.308 83.2084 91.0612 83.6943 90.7843 84.163C90.2962 85.0062 89.7587 85.8267 89.3352 86.7041C89.1928 86.9985 89.0655 87.2985 88.9554 87.6024C88.0058 90.0485 87.8007 92.7549 87.0258 95.2789C86.4257 97.2167 85.4918 99.0349 84.2663 100.652H59.5771C59.8638 99.2481 61.2863 92.2952 61.5104 90.7341C61.6453 89.7845 63.2197 86.366 65.7703 83.3976C65.5556 83.5667 65.3486 83.7376 65.1492 83.9085C63.5408 85.2792 62.1471 86.8835 61.0147 88.6678C61.0698 88.4969 61.1268 88.3241 61.1838 88.1532C61.5313 87.1162 61.9073 86.0888 62.2891 85.0746C63.3944 82.1537 64.6251 79.1739 66.8281 76.9594C68.0721 75.7098 69.5857 74.7469 70.7708 73.4422C72.8599 71.1461 73.724 67.965 73.6993 64.8465C73.6993 64.5237 73.686 64.2027 73.6651 63.8817C73.4391 60.4632 72.2711 57.1909 71.0063 54.006C70.3264 52.2968 69.6047 50.5002 69.637 48.6883C69.639 48.4342 69.6574 48.1805 69.692 47.9287C70.2143 44.174 74.0127 41.9254 76.2936 38.8962C79.6855 34.3895 79.9324 27.6911 84.3821 24.2308C87.8007 21.572 92.5486 21.7353 96.8654 22.024C100.88 22.2936 104.504 22.8159 108.488 23.3743C112.473 23.9326 116.516 24.981 119.712 27.4366C121.777 29.0205 123.387 31.1191 124.817 33.2937C126.732 36.207 128.405 39.4242 128.635 42.9016C128.652 43.1504 128.661 43.3973 128.661 43.6423C128.701 47.7065 126.937 51.6454 126.703 55.7267C126.694 55.9166 126.686 56.1065 126.684 56.2964C126.683 56.3065 126.683 56.3167 126.684 56.3268C126.643 59.865 128 63.5798 129.848 66.5824C132.474 70.8614 133.878 75.7775 133.909 80.7977Z" fill="black"/>
<path d="M133.909 80.7976C133.909 81.299 133.89 81.8023 133.861 82.3018C133.844 82.5867 133.822 82.8715 133.797 83.1564C133.771 83.4413 133.743 83.7236 133.711 84.0034C133.402 86.7648 132.83 89.511 132.762 92.2857C132.762 92.4984 132.762 92.713 132.762 92.9258C132.775 95.5295 133.216 98.0972 133.797 100.652H110.46C110.416 100.179 110.389 99.702 110.386 99.2329C110.381 98.7255 110.404 98.2183 110.456 97.7136C110.815 94.2172 112.602 90.9449 112.872 87.4713C112.891 87.2168 112.904 86.9623 112.906 86.7116C112.906 86.6528 112.906 86.592 112.906 86.5331C112.882 85.3039 112.691 84.0836 112.338 82.9057C112.012 81.8111 111.632 80.7336 111.198 79.6771C110.541 78.0267 109.837 76.3878 109.366 74.7393C109.034 73.6463 108.849 72.5139 108.817 71.372C108.812 71.0704 108.822 70.7687 108.847 70.468C108.862 70.2895 108.883 70.111 108.91 69.9306C108.951 69.6487 109.007 69.3692 109.077 69.093C109.457 67.5965 110.268 66.193 111.045 64.8028C111.911 63.2531 112.739 61.7185 112.885 60.0891C112.896 59.9656 112.902 59.8403 112.906 59.7092C112.915 59.36 112.889 59.0108 112.83 58.6666C112.63 57.5119 112.036 56.473 111.548 55.4076C111.499 55.2993 111.449 55.1911 111.402 55.0809C110.439 52.8741 109.882 50.5229 109.301 48.168C109.134 47.4956 108.963 46.8233 108.783 46.1567C107.932 43.0497 106.72 39.9104 104.415 37.6674C102.109 35.4245 98.4379 34.3116 95.5531 35.7474C93.0557 36.9913 91.7035 39.7755 91.0938 42.4951C90.4842 45.2147 90.4348 48.054 89.6429 50.728C89.5555 51.0224 89.4529 51.3168 89.3561 51.6093C89.0028 52.6101 88.5622 53.6034 88.0988 54.591C86.6156 57.7417 84.8892 60.8411 84.9253 64.0146V64.0545C84.9352 64.788 85.0464 65.5166 85.2558 66.2196C85.6356 67.4844 86.3231 68.5879 87.1246 69.6381C87.2828 69.8445 87.4449 70.0489 87.6107 70.2515C88.4179 71.2429 89.2934 72.202 90.0569 73.2237C90.6331 73.97 91.1195 74.7814 91.5059 75.6414C91.9641 76.7185 92.2034 77.8761 92.2099 79.0466C92.2165 80.2171 91.9901 81.3772 91.5439 82.4594C91.3288 82.9595 91.0821 83.4454 90.8052 83.9142C90.3171 84.7574 89.7796 85.5779 89.3561 86.4553C89.2136 86.7496 89.0864 87.0497 88.9762 87.3536C88.0267 89.7997 87.8216 92.506 87.0467 95.03C86.4149 97.0676 85.4152 98.9722 84.0973 100.65H59.5201C59.5201 100.65 61.2559 92.2211 61.5028 90.4853C61.6263 89.6174 62.9576 86.687 65.1416 83.9085C65.3315 83.654 65.5481 83.3995 65.7627 83.1488C63.9767 84.5603 62.4289 86.2493 61.1781 88.1512L61.009 88.4171C61.4041 87.2035 61.839 86.0052 62.2853 84.8239C63.3906 81.9029 64.6213 78.9231 66.8243 76.7087C68.0683 75.4591 69.5819 74.4962 70.767 73.1914C72.7953 70.9561 73.6727 67.8738 73.6955 64.8351C73.6955 64.4287 73.6955 64.0241 73.6613 63.6215C73.4353 60.203 72.2673 56.9307 71.0025 53.7458C70.3549 52.1087 69.6731 50.4033 69.6332 48.6674C69.6244 48.3329 69.6428 47.9981 69.6882 47.6666C70.2124 43.9328 74.0108 41.6937 76.2917 38.655C79.6836 34.1483 79.9305 27.4499 84.3803 23.9896C87.7988 21.3307 92.5467 21.4941 96.8635 21.7828C100.878 22.0524 104.502 22.5747 108.486 23.1331C112.471 23.6914 116.52 24.7379 119.712 27.1859C121.777 28.7793 123.387 30.8684 124.817 33.0448C126.732 35.9582 128.405 39.1754 128.635 42.6528C128.658 42.9832 128.666 43.313 128.661 43.6422C128.629 47.6172 126.931 51.4801 126.703 55.4798C126.688 55.7495 126.681 56.0172 126.684 56.2888C126.683 56.2989 126.683 56.3091 126.684 56.3192C126.707 59.7833 128.044 63.3955 129.848 66.3221C132.52 70.6766 133.926 75.689 133.909 80.7976Z" fill="#463A3E"/>
</g>
<defs>
<linearGradient id="paint0_linear" x1="105.408" y1="101.343" x2="105.408" y2="13.7911" gradientUnits="userSpaceOnUse">
<stop stop-color="#808080" stop-opacity="0.25"/>
<stop offset="0.54" stop-color="#808080" stop-opacity="0.12"/>
<stop offset="1" stop-color="#808080" stop-opacity="0.1"/>
</linearGradient>
<clipPath id="clip0">
<rect width="211" height="111.962" fill="white" transform="translate(0 0.905151)"/>
</clipPath>
</defs>
</svg>
