<svg width="211" height="168" viewBox="0 0 211 168" fill="none" xmlns="http://www.w3.org/2000/svg">
<g opacity="0.5" clip-path="url(#clip0)">
<path opacity="0.1" d="M123.744 28.3912C110.393 27.9263 97.6755 23.6104 85.5333 18.8875C73.3912 14.1646 61.3646 8.93138 48.3334 6.42944C39.9519 4.82001 30.3657 4.59275 23.6138 9.09253C17.1137 13.4312 15.0137 20.8998 13.8853 27.8375C13.0354 33.0562 12.5361 38.5477 14.8651 43.4338C16.4804 46.8262 19.3499 49.6773 21.3323 52.9375C28.2368 64.2427 23.358 78.1842 15.876 89.2229C12.3691 94.4024 8.29486 99.3464 5.58836 104.854C2.88185 110.362 1.62762 116.682 3.99581 122.306C6.34543 127.884 11.942 132.066 18.0028 135.01C30.3161 140.991 44.8203 142.702 58.9737 143.671C90.2945 145.817 121.78 144.887 153.184 143.958C164.806 143.613 176.478 143.264 187.91 141.464C194.26 140.464 200.813 138.88 205.424 135.049C211.274 130.188 212.725 121.955 208.805 115.86C202.227 105.635 184.05 103.096 179.446 92.1215C176.917 86.0825 179.516 79.3556 183.192 73.7526C191.081 61.7366 204.302 51.1938 204.999 37.4589C205.478 28.0234 199.12 18.5776 189.292 14.1129C178.992 9.4169 164.705 10.0119 157.109 17.7574C149.283 25.7384 135.531 28.8002 123.744 28.3912Z" fill="#9BAAF2"/>
<path d="M89.8283 142.658L19.2199 142.313L12.204 125.833L37.0123 124.029L32.6885 105.96L81.7562 99.5902L34.7699 83.2315L38.9204 82.2439L114.474 94.5883L110.313 122.787L104.365 138.285L89.8283 142.658Z" fill="#9BAAF2"/>
<path d="M20.3029 135.411C20.3029 135.411 24.635 134.717 27.2342 137.782C27.2342 137.782 25.3281 139.287 21.2271 137.204L20.3029 135.411Z" fill="#9BAAF2"/>
<path d="M19.8491 135.343C19.8491 135.343 17.0848 138.749 18.4463 142.543C18.4463 142.543 20.699 141.64 20.9445 137.041L19.8491 135.343Z" fill="#9BAAF2"/>
<path d="M17.3654 129.742C17.3654 129.742 19.0982 126.558 26.0295 131.014C26.0295 131.014 25.1053 133.155 22.044 132.981C18.9827 132.808 18.174 131.419 17.3654 129.742Z" fill="#9BAAF2"/>
<path d="M16.9177 129.512C16.9177 129.512 13.3221 129.099 12.9735 137.342C12.9735 137.342 15.253 137.816 16.8723 135.208C18.4917 132.601 17.8274 131.138 16.9177 129.512Z" fill="#9BAAF2"/>
<path d="M14.8239 122.936C14.8239 122.936 16.8455 117.325 24.1811 121.316C24.1811 121.316 22.5061 126.465 15.5748 124.845L14.8239 122.936Z" fill="#9BAAF2"/>
<path d="M12.5712 114.548C12.5712 114.548 16.3834 108.879 23.1414 114.135C23.1414 114.135 20.7732 119.457 13.1488 116.565L12.5712 114.548Z" fill="#9BAAF2"/>
<path d="M11.7626 106.565C11.7626 106.565 16.2101 101.357 22.9021 106.565C22.9021 106.565 18.6856 111.135 11.7626 107.896V106.565Z" fill="#9BAAF2"/>
<path d="M11.0694 98.8112C11.0694 98.8112 15.5748 93.3735 21.9862 98.522C21.9862 98.522 16.9033 103.323 11.0694 100.084V98.8112Z" fill="#9BAAF2"/>
<path d="M11.4738 91.9272C11.4738 91.9272 16.2184 84.9276 22.2173 89.6712C22.2173 89.6712 17.1343 95.6874 11.4738 93.2578V91.9272Z" fill="#9BAAF2"/>
<path d="M12.5712 83.8863C12.5712 83.8863 17.5964 76.9445 23.4302 82.2666C23.4302 82.2666 17.4809 88.2828 12.5712 85.159V83.8863Z" fill="#9BAAF2"/>
<path d="M14.2463 76.6987C14.2463 76.6987 20.1956 70.1743 25.3859 72.7733C25.3859 72.7733 19.1869 79.7027 13.9864 78.4301L14.2463 76.6987Z" fill="#9BAAF2"/>
<path d="M16.3256 69.8849C16.3256 69.8849 23.1909 61.8936 27.1847 64.5629C27.1847 64.5629 22.1265 70.7609 15.8388 71.3807L16.3256 69.8849Z" fill="#9BAAF2"/>
<path d="M19.3272 61.9825C19.3272 61.9825 25.3363 55.458 29.7261 57.0777C29.7261 57.0777 24.5854 63.846 18.5206 64.0196L19.3272 61.9825Z" fill="#9BAAF2"/>
<path d="M22.044 54.5903C22.044 54.5903 28.6865 48.3427 31.5745 49.4418C31.5745 49.4418 26.7804 56.3836 21.7552 55.9786L22.044 54.5903Z" fill="#9BAAF2"/>
<path d="M24.701 47.7642C24.701 47.7642 30.4193 40.2997 33.5404 40.8782C33.5404 40.8782 30.0727 47.5328 24.701 48.5224V47.7642Z" fill="#9BAAF2"/>
<path d="M27.5849 38.5601C27.5849 38.5601 32.639 32.8393 35.3702 32.8517C35.3702 32.8517 31.3806 40.496 27.3765 40.4257L27.5849 38.5601Z" fill="#9BAAF2"/>
<path d="M29.2929 32.4323L34.1758 20.5155C34.1758 20.5155 34.4192 31.2877 28.672 34.6429L29.2929 32.4323Z" fill="#9BAAF2"/>
<path d="M31.2754 19.2904C31.2754 19.2904 32.084 9.33838 31.5642 8.5285C31.5642 8.5285 35.0546 16.8029 31.2424 23.6868L31.2754 19.2904Z" fill="#9BAAF2"/>
<path d="M14.6341 122.804C14.6341 122.804 9.57178 119.661 6.29386 127.349C6.29386 127.349 10.7992 130.345 15.2303 124.765L14.6341 122.804Z" fill="#9BAAF2"/>
<path d="M12.4082 114.228C12.4082 114.228 6.19896 111.391 3.18715 119.418C3.18715 119.418 7.98335 122.723 12.9735 116.257L12.4082 114.228Z" fill="#9BAAF2"/>
<path d="M11.4738 107.042C11.4738 107.042 7.02618 101.834 0.334187 107.042C0.334187 107.042 4.55072 111.612 11.4738 108.373V107.042Z" fill="#9BAAF2"/>
<path d="M10.9168 98.8112C10.9168 98.8112 6.41144 93.3735 0 98.522C0 98.522 5.08295 103.323 10.9168 100.084V98.8112Z" fill="#9BAAF2"/>
<path d="M11.4738 92.1256C11.4738 92.1256 8.31342 84.2851 1.44402 87.6569C1.44402 87.6569 5.15721 94.609 11.1932 93.4272L11.4738 92.1256Z" fill="#9BAAF2"/>
<path d="M12.9694 83.8472C12.9694 83.8472 9.82758 75.8703 2.86122 79.5684C2.86122 79.5684 7.12726 86.8801 12.6599 85.0785L12.9694 83.8472Z" fill="#9BAAF2"/>
<path d="M14.9167 76.7379C14.9167 76.7379 13.679 67.9925 7.90291 67.2095C7.90291 67.2095 9.12826 76.4322 14.139 78.3143L14.9167 76.7379Z" fill="#9BAAF2"/>
<path d="M16.4721 69.9015C16.4721 69.9015 15.9894 59.3648 11.2138 58.9971C11.2138 58.9971 11.3747 66.9946 15.9337 71.3932L16.4721 69.9015Z" fill="#9BAAF2"/>
<path d="M19.8222 61.6871C19.8222 61.6871 18.3989 52.9251 13.8399 51.8549C13.8399 51.8549 14.4051 60.34 19.3705 63.8378L19.8222 61.6871Z" fill="#9BAAF2"/>
<path d="M22.5844 54.6626C22.5844 54.6626 22.537 45.5349 19.7521 44.1941C19.7521 44.1941 18.0255 52.4582 21.7779 55.8278L22.5844 54.6626Z" fill="#9BAAF2"/>
<path d="M24.9134 47.6608C24.9134 47.6608 24.5236 38.2625 21.6396 36.9382C21.6396 36.9382 20.6536 44.3759 24.4823 48.2765L24.9134 47.6608Z" fill="#9BAAF2"/>
<path d="M27.9871 39.3101C27.9871 39.3101 27.9706 31.6658 25.9119 29.8725C25.9119 29.8725 23.8655 38.2461 26.9124 40.8472L27.9871 39.3101Z" fill="#9BAAF2"/>
<path d="M29.0516 32.0563L27.0485 19.3337C27.0485 19.3337 24.3276 29.7588 29.1465 34.3537L29.0516 32.0563Z" fill="#9BAAF2"/>
<path d="M29.4415 19.4102C29.4415 19.4102 24.3008 10.8569 24.406 9.90652C24.406 9.90652 24.9526 18.871 31.4198 23.3356L29.4415 19.4102Z" fill="#9BAAF2"/>
<path d="M30.0438 16.8835C30.0438 16.8835 25.1919 4.73532 22.997 3.75189C22.997 3.75189 29.9283 7.28064 30.4482 16.5364L30.0438 16.8835Z" fill="#9BAAF2"/>
<path d="M27.3518 40.498L27.0197 40.3967C31.1145 27.0234 32.1356 18.497 29.8974 16.3587L30.1346 16.1066C32.509 18.3627 31.5456 26.7962 27.3518 40.498Z" fill="#444053"/>
<path d="M16.0761 71.8105L15.5851 71.6349C16.0204 70.4097 16.4886 69.166 16.9796 67.9408C21.2539 57.2719 24.8928 47.3468 27.2259 39.7274L27.653 39.5208C25.3157 47.1547 21.7407 57.4599 17.4623 68.1433C16.9734 69.3457 16.5072 70.5833 16.0761 71.8105Z" fill="#444053"/>
<path d="M26.407 145.418C26.341 145.346 19.7047 137.861 15.0776 125.083C12.3664 117.602 10.8576 109.737 10.6074 101.782C10.2897 91.8385 12.3732 80.7357 15.942 70.6494L16.3298 71.1039C8.31755 93.7412 11.5006 113.139 15.7233 124.82C20.3008 137.483 26.8629 144.885 26.9268 144.96L26.407 145.418Z" fill="#444053"/>
<path d="M130.112 129.527C130.112 129.527 125.436 135.243 129.149 143.886L91.8107 160.104L88.2275 160.856L86.5772 153.625L87.6808 144.499V139.512L130.112 129.527Z" fill="#D5D6DB"/>
<path d="M12.204 125.833L63.8834 116.397L132.361 127.322L89.8283 142.658L12.204 125.833Z" fill="#9BAAF2"/>
<path d="M12.204 125.833L63.8834 116.397L132.361 127.322L89.8283 142.658L12.204 125.833Z" fill="#9BAAF2"/>
<path d="M12.204 125.831C12.204 125.831 7.37068 135.002 12.9405 143.472L89.5766 160.104C89.5766 160.104 84.8196 152.798 89.8221 142.658L12.204 125.831Z" fill="#9BAAF2"/>
<path opacity="0.1" d="M12.204 125.831C12.204 125.831 7.37068 135.002 12.9405 143.472L89.5766 160.104C89.5766 160.104 84.8196 152.798 89.8221 142.658L12.204 125.831Z" fill="black"/>
<path opacity="0.1" d="M14.4876 129.01C14.4876 129.01 11.7254 135.721 14.4876 140.063V129.01Z" fill="black"/>
<path d="M89.5766 160.104L132.361 141.819C132.361 141.819 134.754 142.336 133.207 144.092C131.659 145.848 90.4018 161.86 90.4018 161.86L12.9405 143.472L89.5766 160.104Z" fill="#9BAAF2"/>
<path opacity="0.1" d="M89.5766 160.104L132.361 141.819C132.361 141.819 134.754 142.336 133.207 144.092C131.659 145.848 90.4018 161.86 90.4018 161.86L12.9405 143.472L89.5766 160.104Z" fill="black"/>
<path opacity="0.1" d="M86.0697 144.505C86.0697 144.505 81.9439 149.464 86.0697 156.901V144.505Z" fill="black"/>
<path opacity="0.1" d="M106.044 144.421L87.5381 150.605L87.6034 150.801L106.109 144.617L106.044 144.421Z" fill="black"/>
<path opacity="0.1" d="M109.751 143.806L87.5322 152.268L87.6055 152.461L109.824 143.999L109.751 143.806Z" fill="black"/>
<path opacity="0.1" d="M113.155 143.777L87.6562 154.229L87.7344 154.42L113.233 143.968L113.155 143.777Z" fill="black"/>
<path opacity="0.1" d="M116.857 142.881L87.9538 155.957L88.0388 156.146L116.941 143.07L116.857 142.881Z" fill="black"/>
<path opacity="0.1" d="M119.966 142.886L88.1826 156.799L88.2653 156.989L120.049 143.075L119.966 142.886Z" fill="black"/>
<path opacity="0.1" d="M126.769 141.729L88.6619 158.212L88.7437 158.402L126.851 141.918L126.769 141.729Z" fill="black"/>
<path opacity="0.3" d="M31.4033 126.841L67.71 119.197L89.8283 123.432L60.0774 133.039L31.4033 126.841Z" fill="white"/>
<path d="M132.361 127.322C132.361 127.322 134.238 128.08 133.136 129.252C132.035 130.423 89.8221 142.658 89.8221 142.658L132.361 127.322Z" fill="#9BAAF2"/>
<path d="M150.595 109.656C150.595 109.656 145.92 115.37 149.633 124.015L112.295 140.233L108.712 140.989L107.062 133.758L108.182 124.634V119.641L150.595 109.656Z" fill="#D5D6DB"/>
<path d="M32.6884 105.96L84.3657 96.5262L152.845 107.451L110.313 122.787L32.6884 105.96Z" fill="#3A3768"/>
<path d="M32.6802 105.96C32.6802 105.96 27.8448 115.131 33.4146 123.601L110.051 140.233C110.051 140.233 105.296 132.921 110.304 122.785L32.6802 105.96Z" fill="#3A3768"/>
<path opacity="0.1" d="M32.6802 105.96C32.6802 105.96 27.8448 115.131 33.4146 123.601L110.051 140.233C110.051 140.233 105.296 132.921 110.304 122.785L86.0697 117.531L32.6802 105.96Z" fill="black"/>
<path opacity="0.1" d="M34.97 109.139C34.97 109.139 32.2098 115.848 34.97 120.192V109.139Z" fill="black"/>
<path d="M110.059 140.233L152.845 121.949C152.845 121.949 155.236 122.465 153.689 124.221C152.142 125.977 110.884 141.989 110.884 141.989L33.4228 123.601L110.059 140.233Z" fill="#3A3768"/>
<path opacity="0.1" d="M110.059 140.233L152.845 121.949C152.845 121.949 155.236 122.465 153.689 124.221C152.142 125.977 110.884 141.989 110.884 141.989L33.4228 123.601L110.059 140.233Z" fill="black"/>
<path opacity="0.1" d="M106.552 124.634C106.552 124.634 102.426 129.593 106.552 137.03V124.634Z" fill="black"/>
<path opacity="0.1" d="M126.528 124.553L108.022 130.736L108.087 130.932L126.593 124.749L126.528 124.553Z" fill="black"/>
<path opacity="0.1" d="M130.237 123.936L108.019 132.398L108.092 132.591L130.311 124.129L130.237 123.936Z" fill="black"/>
<path opacity="0.1" d="M133.638 123.904L108.14 134.357L108.218 134.548L133.716 124.095L133.638 123.904Z" fill="black"/>
<path opacity="0.1" d="M137.342 123.009L108.44 136.085L108.525 136.273L137.427 123.197L137.342 123.009Z" fill="black"/>
<path opacity="0.1" d="M140.449 123.011L108.666 136.925L108.748 137.114L140.532 123.2L140.449 123.011Z" fill="black"/>
<path opacity="0.1" d="M147.253 121.854L109.147 138.338L109.228 138.527L147.335 122.044L147.253 121.854Z" fill="black"/>
<path opacity="0.45" d="M51.8877 106.97L88.1945 99.3257L110.313 103.561L80.5618 113.168L51.8877 106.97Z" fill="white"/>
<path d="M152.845 107.451C152.845 107.451 154.72 108.21 153.621 109.379C152.521 110.548 110.313 122.785 110.313 122.785L152.845 107.451Z" fill="#3A3768"/>
<path d="M152.534 86.9234C152.534 86.9234 147.857 97.1853 151.57 105.827L114.232 117.5L110.657 118.259L109.007 111.028L110.111 101.902V96.9084L152.534 86.9234Z" fill="#D5D6DB"/>
<path d="M34.6338 83.2294L86.3131 73.7939L154.793 84.719L112.258 100.055L34.6338 83.2294Z" fill="#9BAAF2"/>
<path d="M34.6338 83.2273C34.6338 83.2273 29.7922 92.3983 35.362 100.869L111.998 117.5C111.998 117.5 107.241 110.189 112.25 100.055L34.6338 83.2273Z" fill="#9BAAF2"/>
<path opacity="0.1" d="M34.6338 83.2273C34.6338 83.2273 29.7922 92.3983 35.362 100.869L111.998 117.5C111.998 117.5 107.241 110.189 112.25 100.055L34.6338 83.2273Z" fill="black"/>
<path opacity="0.1" d="M36.9174 86.4069C36.9174 86.4069 34.1552 93.1174 36.9174 97.4601V86.4069Z" fill="black"/>
<path d="M112.006 117.5L154.791 103.761C154.791 103.761 157.184 104.278 155.636 106.034C154.089 107.79 112.831 119.257 112.831 119.257L35.3702 100.869L112.006 117.5Z" fill="#9BAAF2"/>
<path opacity="0.1" d="M112.006 117.5L154.791 103.761C154.791 103.761 157.184 104.278 155.636 106.034C154.089 107.79 112.831 119.257 112.831 119.257L35.3702 100.869L112.006 117.5Z" fill="black"/>
<path opacity="0.1" d="M108.499 101.902C108.499 101.902 104.374 106.86 108.499 114.298V101.902Z" fill="black"/>
<path opacity="0.1" d="M128.476 101.82L109.97 108.003L110.035 108.199L128.541 102.016L128.476 101.82Z" fill="black"/>
<path opacity="0.1" d="M132.184 101.205L109.965 109.666L110.039 109.859L132.257 101.398L132.184 101.205Z" fill="black"/>
<path opacity="0.1" d="M135.583 101.173L110.084 111.626L110.163 111.817L135.661 101.364L135.583 101.173Z" fill="black"/>
<path opacity="0.1" d="M139.29 100.277L110.387 113.353L110.472 113.541L139.375 100.465L139.29 100.277Z" fill="black"/>
<path opacity="0.1" d="M142.398 100.28L110.614 114.194L110.697 114.383L142.481 100.47L142.398 100.28Z" fill="black"/>
<path opacity="0.1" d="M149.201 99.1247L111.094 115.608L111.176 115.798L149.283 99.3143L149.201 99.1247Z" fill="black"/>
<path opacity="0.3" d="M53.833 84.2376L90.1398 76.5934L112.258 80.8287L82.5071 90.4357L53.833 84.2376Z" fill="white"/>
<path d="M154.791 84.7189C154.791 84.7189 156.668 85.4772 155.566 86.6486C154.465 87.82 112.258 100.055 112.258 100.055L154.791 84.7189Z" fill="#9BAAF2"/>
<path d="M64.0361 22.003C64.0361 22.003 56.1971 21.5299 57.113 27.0379C57.113 27.0379 56.9294 28.011 57.8103 28.4531C57.8103 28.4531 57.8247 28.0399 58.6148 28.1825C58.8967 28.231 59.1835 28.2449 59.4688 28.2238C59.8534 28.1974 60.219 28.0466 60.5106 27.7941C60.5106 27.7941 62.7158 26.8809 63.574 23.2695C63.574 23.2695 64.2093 22.4823 64.1928 22.2799L62.8643 22.846C62.8643 22.846 63.3161 23.8025 62.9613 24.5979C62.9613 24.5979 62.918 22.8811 62.6622 22.9203C62.6106 22.9203 61.9752 23.253 61.9752 23.253C61.9752 23.253 62.7529 24.9202 62.165 26.1309C62.165 26.1309 62.3878 24.0773 61.7318 23.3728L60.7994 23.9182C60.7994 23.9182 61.7091 25.6392 61.0923 27.0441C61.0923 27.0441 61.2512 24.8892 60.6034 24.0504L59.7576 24.7116C59.7576 24.7116 60.6137 26.4078 60.0918 27.573C60.0918 27.573 60.0237 25.0649 59.5761 24.8748C59.5761 24.8748 58.8355 25.5276 58.7241 25.7962C58.7241 25.7962 59.31 27.0358 58.9449 27.6784C58.9449 27.6784 58.7241 26.007 58.5323 25.9987C58.5323 25.9987 57.7958 27.1061 57.7195 27.8581C57.7552 27.157 57.9735 26.4775 58.3528 25.8871C57.9284 25.9676 57.5368 26.1708 57.2265 26.4718C57.2265 26.4718 57.3399 25.6888 58.5364 25.6206C58.5364 25.6206 59.145 24.7797 59.3079 24.7302C59.3079 24.7302 58.1176 24.6289 57.3977 24.9492C57.3977 24.9492 58.0331 24.2116 59.5245 24.536L60.3497 23.8542C60.3497 23.8542 58.786 23.6476 58.1218 23.8769C58.1218 23.8769 58.8871 23.224 60.5745 23.6992L61.4843 23.1559C61.4843 23.1559 60.1496 22.8687 59.3554 22.972C59.3554 22.972 60.1929 22.5195 61.7504 23.0092L62.3981 22.7179C62.3981 22.7179 61.4224 22.5257 61.1356 22.4947C60.8489 22.4637 60.8345 22.3852 60.8345 22.3852C61.4538 22.2834 62.0891 22.3549 62.6704 22.5918C62.6704 22.5918 64.0629 22.0898 64.0361 22.003Z" fill="#9BAAF2"/>
<path opacity="0.1" d="M174.318 44.6424C174.318 44.6424 166.479 44.1693 167.395 49.6773C167.395 49.6773 167.211 50.6504 168.092 51.0925C168.092 51.0925 168.106 50.6793 168.897 50.8219C169.179 50.8692 169.465 50.8831 169.751 50.8632C170.132 50.8351 170.493 50.6843 170.782 50.4335C170.782 50.4335 172.989 49.5203 173.845 45.9089C173.845 45.9089 174.481 45.1217 174.464 44.9193L173.14 45.4854C173.14 45.4854 173.592 46.4419 173.237 47.2373C173.237 47.2373 173.194 45.5205 172.94 45.5597C172.888 45.5597 172.251 45.8924 172.251 45.8924C172.251 45.8924 173.028 47.5596 172.443 48.7703C172.443 48.7703 172.665 46.7167 172.007 46.0122L171.075 46.5576C171.075 46.5576 171.985 48.2786 171.368 49.6835C171.368 49.6835 171.527 47.5287 170.879 46.6898L170.035 47.351C170.035 47.351 170.889 49.0472 170.367 50.2124C170.367 50.2124 170.299 47.7043 169.852 47.5142C169.852 47.5142 169.113 48.167 169 48.4356C169 48.4356 169.586 49.6752 169.222 50.3178C169.222 50.3178 169 48.6464 168.81 48.6381C168.81 48.6381 168.073 49.7455 167.997 50.4975C168.033 49.7961 168.252 49.1164 168.632 48.5265C168.208 48.6072 167.815 48.8104 167.504 49.1112C167.504 49.1112 167.62 48.3282 168.814 48.26C168.814 48.26 169.423 47.4192 169.586 47.3675C169.586 47.3675 168.397 47.2683 167.675 47.5886C167.675 47.5886 168.311 46.851 169.802 47.1754L170.627 46.4936C170.627 46.4936 169.062 46.287 168.399 46.5163C168.399 46.5163 169.163 45.8634 170.852 46.3386L171.76 45.7953C171.76 45.7953 170.425 45.5081 169.631 45.6114C169.631 45.6114 170.468 45.1589 172.026 45.6486L172.676 45.3573C172.676 45.3573 171.698 45.1651 171.411 45.1341C171.124 45.1032 171.11 45.0246 171.11 45.0246C171.729 44.9215 172.365 44.993 172.946 45.2312C172.946 45.2312 174.343 44.7292 174.318 44.6424Z" fill="#9BAAF2"/>
<path opacity="0.1" d="M77.2385 56.0303C77.2385 56.0303 73.8224 48.9377 69.4738 52.4334C69.4738 52.4334 68.5352 52.7474 68.5806 53.7329C68.5806 53.7329 68.9416 53.5449 69.1994 54.3052C69.2958 54.574 69.4232 54.8305 69.579 55.0697C69.7901 55.3938 70.1007 55.6403 70.464 55.7721C70.464 55.7721 72.335 57.2555 75.9018 56.2431C75.9018 56.2431 76.8981 56.4146 77.0611 56.2948L75.9224 55.4126C75.9224 55.4126 75.3035 56.2741 74.4412 56.3506C74.4412 56.3506 75.9183 55.4767 75.7594 55.2742C75.7264 55.2329 75.1405 54.8341 75.1405 54.8341C75.1405 54.8341 74.0658 56.3279 72.7249 56.4043C72.7249 56.4043 74.6228 55.5985 74.9157 54.6792L73.9874 54.1296C73.9874 54.1296 72.9291 55.7659 71.4047 55.9105C71.4047 55.9105 73.3603 54.9994 73.7749 54.0242L72.7889 53.611C72.7889 53.611 71.7265 55.1853 70.4557 55.299C70.4557 55.299 72.6094 54.016 72.5558 53.5305C72.5558 53.5305 71.6254 53.204 71.3366 53.235C71.3366 53.235 70.5486 54.3486 69.8059 54.3486C69.8059 54.3486 71.153 53.3383 71.0705 53.1751C71.0705 53.1751 69.7461 53.0718 69.0489 53.3817C69.6772 53.069 70.3763 52.9265 71.0767 52.9685C70.7988 52.6367 70.4303 52.3933 70.0163 52.2681C70.0163 52.2681 70.7549 51.9871 71.3964 52.9974C71.3964 52.9974 72.4279 53.1193 72.5496 53.2371C72.5496 53.2371 72.0565 52.1504 71.4274 51.6772C71.4274 51.6772 72.3804 51.8694 72.8157 53.3301L73.8162 53.7267C73.8162 53.7267 73.2406 52.2557 72.7105 51.7909C72.7105 51.7909 73.6511 52.14 74.0617 53.8569L74.9776 54.3858C74.9776 54.3858 74.5794 53.078 74.1009 52.4355C74.1009 52.4355 74.9033 52.9478 75.2354 54.5469L75.8069 54.9725C75.8069 54.9725 75.4974 54.0242 75.3943 53.7598C75.2911 53.4953 75.3427 53.4416 75.3427 53.4416C75.7351 53.9321 75.9837 54.5223 76.0606 55.1461C76.0606 55.1461 77.1642 56.0923 77.2385 56.0303Z" fill="#9BAAF2"/>
<path opacity="0.1" d="M156.408 34.6223C156.408 34.6223 152.994 27.5296 148.643 31.0253C148.643 31.0253 147.707 31.3394 147.75 32.3248C147.75 32.3248 148.113 32.1389 148.369 32.8971C148.465 33.167 148.593 33.4243 148.75 33.6636C148.961 33.9871 149.271 34.2331 149.633 34.364C149.633 34.364 151.506 35.8474 155.071 34.8371C155.071 34.8371 156.067 35.0065 156.232 34.8867L155.1 34.0024C155.1 34.0024 154.481 34.866 153.621 34.9425C153.621 34.9425 155.096 34.0665 154.937 33.864C154.904 33.8227 154.318 33.424 154.318 33.424C154.318 33.424 153.245 34.9177 151.902 34.9941C151.902 34.9941 153.802 34.1884 154.095 33.2711L153.153 32.7257C153.153 32.7257 152.096 34.3599 150.57 34.5066C150.57 34.5066 152.525 33.5934 152.942 32.6182L151.954 32.205C151.954 32.205 150.892 33.7814 149.623 33.893C149.623 33.893 151.775 32.61 151.721 32.1265C151.721 32.1265 150.793 31.798 150.504 31.8311C150.504 31.8311 149.716 32.9426 148.971 32.9426C148.971 32.9426 150.32 31.9323 150.238 31.7691C150.238 31.7691 148.913 31.6658 148.214 31.9757C148.842 31.6628 149.541 31.5204 150.242 31.5625C149.965 31.2305 149.597 30.987 149.184 30.8621C149.184 30.8621 149.922 30.5811 150.564 31.5914C150.564 31.5914 151.595 31.7154 151.717 31.8331C151.717 31.8331 151.224 30.7443 150.593 30.2712C150.593 30.2712 151.546 30.4654 151.981 31.9344L152.983 32.331C152.983 32.331 152.408 30.858 151.878 30.3931C151.878 30.3931 152.818 30.7423 153.227 32.4591L154.145 32.988C154.145 32.988 153.745 31.6823 153.266 31.0377C153.266 31.0377 154.071 31.5501 154.401 33.1492L154.972 33.5748C154.972 33.5748 154.665 32.6265 154.559 32.362C154.454 32.0976 154.508 32.0459 154.508 32.0459C154.899 32.5369 155.147 33.1269 155.224 33.7504C155.224 33.7504 156.344 34.6884 156.408 34.6223Z" fill="#9BAAF2"/>
<path opacity="0.1" d="M167.318 69.7053C167.318 69.7053 163.904 62.6106 159.548 66.1063C159.548 66.1063 158.611 66.4203 158.654 67.4058C158.654 67.4058 159.017 67.2199 159.273 67.9781C159.369 68.2479 159.496 68.5052 159.653 68.7446C159.863 69.0681 160.173 69.314 160.536 69.445C160.536 69.445 162.409 70.9304 165.976 69.9181C165.976 69.9181 166.97 70.0896 167.135 69.9677L165.996 69.0855C165.996 69.0855 165.377 69.9491 164.515 70.0255C164.515 70.0255 165.99 69.1495 165.831 68.9471C165.798 68.9057 165.212 68.507 165.212 68.507C165.212 68.507 164.14 70.0007 162.797 70.0792C162.797 70.0792 164.697 69.2714 164.989 68.3541L164.059 67.8045C164.059 67.8045 163.003 69.4408 161.476 69.5855C161.476 69.5855 163.432 68.6723 163.849 67.6971L162.861 67.2839C162.861 67.2839 161.798 68.8582 160.529 68.9718C160.529 68.9718 162.683 67.6889 162.63 67.2033C162.63 67.2033 161.699 66.8748 161.41 66.9079C161.41 66.9079 160.622 68.0194 159.878 68.0194C159.878 68.0194 161.227 67.0091 161.144 66.8459C161.144 66.8459 159.82 66.7426 159.121 67.0525C159.75 66.7399 160.449 66.5974 161.15 66.6393C160.873 66.3068 160.504 66.0632 160.09 65.9389C160.09 65.9389 160.829 65.6559 161.47 66.6682C161.47 66.6682 162.502 66.7901 162.623 66.9079C162.623 66.9079 162.13 65.8212 161.501 65.346C161.501 65.346 162.454 65.5402 162.889 67.0091L163.89 67.4058C163.89 67.4058 163.314 65.9327 162.784 65.47C162.784 65.47 163.725 65.817 164.133 67.536L165.051 68.0628C165.051 68.0628 164.651 66.7571 164.173 66.1125C164.173 66.1125 164.977 66.6249 165.309 68.226L165.881 68.6392C165.881 68.6392 165.571 67.6909 165.468 67.4265C165.365 67.162 165.416 67.1104 165.416 67.1104C165.809 67.6008 166.057 68.1911 166.132 68.8148C166.132 68.8148 167.255 69.7673 167.318 69.7053Z" fill="#9BAAF2"/>
<path opacity="0.1" d="M41.6599 162.009C44.2792 162.009 46.4025 161.771 46.4025 161.478C46.4025 161.184 44.2792 160.947 41.6599 160.947C39.0407 160.947 36.9174 161.184 36.9174 161.478C36.9174 161.771 39.0407 162.009 41.6599 162.009Z" fill="#9BAAF2"/>
<path opacity="0.1" d="M10.5702 152.984C13.1895 152.984 15.3128 152.746 15.3128 152.453C15.3128 152.16 13.1895 151.922 10.5702 151.922C7.95097 151.922 5.82765 152.16 5.82765 152.453C5.82765 152.746 7.95097 152.984 10.5702 152.984Z" fill="#9BAAF2"/>
<path opacity="0.1" d="M65.3584 168.002C67.9776 168.002 70.1009 167.764 70.1009 167.471C70.1009 167.178 67.9776 166.94 65.3584 166.94C62.7391 166.94 60.6158 167.178 60.6158 167.471C60.6158 167.764 62.7391 168.002 65.3584 168.002Z" fill="#9BAAF2"/>
<path opacity="0.1" d="M186.8 154.947C189.42 154.947 191.543 154.709 191.543 154.416C191.543 154.123 189.42 153.885 186.8 153.885C184.181 153.885 182.058 154.123 182.058 154.416C182.058 154.709 184.181 154.947 186.8 154.947Z" fill="#9BAAF2"/>
<path opacity="0.1" d="M147.335 152.371C149.955 152.371 152.078 152.133 152.078 151.84C152.078 151.546 149.955 151.309 147.335 151.309C144.716 151.309 142.593 151.546 142.593 151.84C142.593 152.133 144.716 152.371 147.335 152.371Z" fill="#9BAAF2"/>
<path opacity="0.1" d="M121.805 164.936C124.903 164.936 127.414 164.504 127.414 163.971C127.414 163.438 124.903 163.006 121.805 163.006C118.707 163.006 116.196 163.438 116.196 163.971C116.196 164.504 118.707 164.936 121.805 164.936Z" fill="#9BAAF2"/>
<path d="M124.307 154.273C124.307 154.273 116.497 158.315 120.532 163.075C120.532 163.075 120.912 164.108 122.009 164.035C122.009 164.035 121.791 163.635 122.628 163.314C122.926 163.199 123.209 163.048 123.472 162.866C123.827 162.62 124.092 162.266 124.227 161.856C124.227 161.856 125.824 159.715 124.586 155.755C124.586 155.755 124.747 154.635 124.606 154.453L123.658 155.757C123.658 155.757 124.637 156.416 124.751 157.385C124.751 157.385 123.719 155.759 123.513 155.939C123.468 155.976 123.043 156.651 123.043 156.651C123.043 156.651 124.743 157.806 124.868 159.306C124.868 159.306 123.911 157.205 122.878 156.906L122.286 157.963C122.286 157.963 124.142 159.095 124.349 160.798C124.349 160.798 123.27 158.639 122.168 158.203L121.733 159.321C121.733 159.321 123.523 160.461 123.688 161.878C123.688 161.878 122.191 159.509 121.652 159.583C121.652 159.583 121.314 160.633 121.359 160.957C121.359 160.957 122.624 161.804 122.647 162.637C122.647 162.637 121.479 161.159 121.3 161.257C121.3 161.257 121.225 162.742 121.584 163.515C121.584 163.515 120.965 162.411 121.067 161.257C120.705 161.577 120.444 161.996 120.318 162.463C120.318 162.463 119.981 161.647 121.089 160.895C121.089 160.895 121.194 159.74 121.322 159.598C121.322 159.598 120.124 160.184 119.614 160.903C119.614 160.903 119.802 159.831 121.428 159.298L121.84 158.166C121.84 158.166 120.215 158.856 119.713 159.463C119.713 159.463 120.074 158.399 121.968 157.889L122.529 156.856C122.529 156.856 121.085 157.344 120.38 157.889C120.38 157.889 120.926 156.974 122.702 156.552L123.158 155.901C123.158 155.901 122.11 156.275 121.817 156.41C121.524 156.544 121.467 156.478 121.467 156.478C122.002 156.024 122.653 155.728 123.346 155.623C123.346 155.623 124.38 154.344 124.307 154.273Z" fill="#9BAAF2"/>
<path d="M147.488 77.9486C146.139 74.2773 138.712 73.9323 135.49 74.8682C133.2 75.5355 128.373 76.2876 125.795 76.6656L125.628 76.5066C125.962 76.4074 125.97 76.1636 125.929 75.8021C125.905 75.3255 125.912 74.848 125.949 74.3724C127.53 74.8641 128.936 73.7009 128.936 73.7009C130.793 72.8745 130.294 69.3375 130.649 68.3706C130.915 67.6475 131.201 63.3874 131.329 61.2635H131.356L131.371 60.5507C131.389 60.2429 131.397 60.0632 131.397 60.0632C131.397 60.0632 131.579 54.8692 131.934 53.8176C132.264 52.8507 132.532 47.979 132.573 47.2064C132.573 47.1402 132.573 47.1051 132.573 47.1051L132.546 46.6547C132.565 46.3262 132.573 45.9605 132.571 45.5763C132.571 43.8098 132.388 41.5847 132.365 41.2252C132.365 41.1736 132.365 41.1116 132.365 41.0372C132.379 40.2831 132.285 36.5065 129.077 35.0789C127.895 34.55 126.473 33.9198 125.097 33.3062C124.743 30.2382 123.932 27.1867 124.002 24.0959C124.002 23.6311 124.043 23.1662 124.089 22.7034C124.089 22.8377 124.074 22.9741 124.072 23.1166C124.072 23.4162 124.072 23.7178 124.072 24.0174C124.194 20.1519 125.652 16.2657 125.516 12.4829C125.504 12.8527 125.477 13.2246 125.442 13.5964C125.513 12.3169 125.379 11.0342 125.046 9.79704C124.922 9.36111 124.755 8.91072 124.398 8.61941C124.061 8.3848 123.674 8.23137 123.268 8.17109C122.291 7.92084 121.3 7.73587 120.299 7.61739C120.147 7.15125 119.921 6.71251 119.631 6.31787C117.539 3.44198 114.441 0.739632 110.777 0.119828C108.939 -0.190074 106.824 0.0681777 105.574 1.38423C105.444 1.49984 105.321 1.62408 105.207 1.75611C104.535 2.55979 104.246 3.61552 103.557 4.41714C103.511 4.47085 103.46 4.52044 103.41 4.57209C102.061 5.78071 99.9591 6.03276 98.4594 7.11742C98.1951 7.31213 97.9474 7.52842 97.7188 7.76408C97.1145 8.36383 96.5726 9.02352 96.1015 9.73299C95.427 10.6834 94.7338 11.673 94.5193 12.8072C94.0881 15.0798 95.6332 17.2347 95.92 19.5218C96.5595 24.6393 90.9051 29.1804 91.9757 34.2297C92.2614 35.4702 92.8923 36.6042 93.7952 37.5002C91.59 39.5001 89.7128 41.4401 89.7128 41.4401V41.5558H89.3641L89.3992 41.969H89.3641L89.556 44.2106L89.3641 47.4749C89.3641 47.4749 89.3641 47.5101 89.3641 47.5762V47.5927V47.6815C89.3641 47.6815 89.3641 47.7167 89.3641 47.7828H89.3765C89.4405 48.979 89.6942 53.2804 89.9954 54.1874C90.3502 55.239 90.5297 60.433 90.5297 60.433C90.5297 60.433 90.9216 67.7735 91.2806 68.7446C91.6395 69.7156 91.13 73.2423 92.9927 74.0749C93.5377 74.4935 94.1829 74.7614 94.8638 74.8517C94.7689 75.6244 94.8287 76.1843 95.1361 76.3599C95.2677 76.4373 95.4167 76.48 95.5693 76.4838C95.4429 76.6716 95.3305 76.8684 95.233 77.0727C94.4937 76.9953 93.7672 76.8239 93.0711 76.5623C91.0701 75.7359 84.4297 73.8765 82.5009 75.1843C80.5721 76.4921 75.9306 77.678 78.074 82.9422C80.2173 88.2064 81.2157 88.3386 81.2157 88.3386C81.8755 88.8183 82.4542 89.4007 82.93 90.0638C83.5736 91.0327 89.5704 93.2495 91.0701 93.2495C91.7076 93.2397 92.345 93.2715 92.9783 93.3446C92.9783 93.3446 91.3507 94.7743 91.5673 95.6048C91.7839 96.4353 91.0722 103.084 91.0722 103.084C91.0722 103.084 92.7225 104.749 93.428 102.565L93.4528 102.598C93.5848 102.778 94.2986 103.59 95.6415 102.565C96.1911 102.148 96.7749 101.777 97.3867 101.458L103.889 100.536C104.567 100.494 105.247 100.489 105.925 100.522C106.956 100.607 107.969 99.9951 108.607 99.522C109.954 100.034 111.468 100.594 112.188 100.799C113.648 101.212 120.361 103.016 121.931 102.452C122.257 102.322 122.547 102.115 122.777 101.848L124.274 101.896L123.573 102.036C123.573 102.036 124.939 102.059 126.795 102.084L126.717 102.129L129.046 102.109C132.454 102.14 136.282 102.15 136.786 102.036C137.574 101.861 141.669 101.985 142.875 102.036H143.212C143.212 102.036 147.711 101.138 145.854 96.5655C144.427 93.0533 140.039 92.0327 138.092 91.7517C138.64 91.6422 139.113 91.5575 139.426 91.5079C140.786 91.3013 143.426 90.0617 143.641 89.6382C143.855 89.2146 146.069 87.9853 146.64 87.285C147.212 86.5846 148.843 81.6199 147.488 77.9486ZM110.222 88.2229L110.001 88.2952L109.853 88.3448L109.568 88.6258C109.341 88.4729 109.098 88.3118 108.844 88.1465C109.292 88.1733 109.752 88.2002 110.222 88.2229Z" fill="url(#paint0_linear)"/>
<path d="M123.375 66.4389C123.375 66.4389 126.531 74.7029 128.326 73.8765C130.12 73.0501 129.634 69.5379 129.976 68.5751C130.319 67.6124 130.698 60.3111 130.698 60.3111C130.698 60.3111 130.871 55.1461 131.214 54.1007C131.532 53.14 131.789 48.2952 131.833 47.5328C131.833 47.4667 131.833 47.4316 131.833 47.4316L131.492 41.4401L129.566 40.9587L125.097 42.6116L124.479 46.1506L124.237 47.5328L124.134 48.1216L123.375 66.4389Z" fill="#BE6F72"/>
<path opacity="0.1" d="M124.415 65.0546C124.415 65.0546 127.426 67.5235 128.334 67.7404C129.242 67.9574 129.799 69.8829 129.799 69.8829" fill="black"/>
<path d="M98.6925 66.8005C98.6925 66.8005 95.5363 75.0645 93.7416 74.2381C91.9468 73.4117 92.4337 69.8995 92.0913 68.9367C91.7488 67.974 91.3692 60.6727 91.3692 60.6727C91.3692 60.6727 91.196 55.5076 90.8535 54.4622C90.5358 53.5015 90.278 48.6567 90.2347 47.8944C90.2347 47.8283 90.2347 47.7931 90.2347 47.7931L90.5771 41.8017L92.5038 41.3203L96.972 42.9731L97.5909 46.5122L97.8323 47.8944L97.9354 48.4832L98.6925 66.8005Z" fill="#BE6F72"/>
<path d="M119.245 22.5753H112.2V33.5727H119.245V22.5753Z" fill="#3E373A"/>
<path opacity="0.1" d="M119.245 22.5753H112.2V33.5727H119.245V22.5753Z" fill="black"/>
<path d="M97.4548 75.0314C97.4548 75.0314 95.0474 77.6821 95.9406 78.1635C96.8338 78.6449 102.612 87.6672 102.612 87.6672C102.612 87.6672 121.59 90.0079 125.17 86.4957C128.749 82.9835 128.676 76.709 128.676 76.709C128.676 76.709 125.801 77.3288 125.487 76.9921C125.174 76.6553 123.451 75.0314 123.451 75.0314C123.451 75.0314 99.1051 73.5521 97.4548 75.0314Z" fill="#4B4B5B"/>
<path opacity="0.02" d="M97.4548 75.0314C97.4548 75.0314 95.0474 77.6821 95.9406 78.1635C96.8338 78.6449 102.612 87.6672 102.612 87.6672C102.612 87.6672 121.59 90.0079 125.17 86.4957C128.749 82.9835 128.676 76.709 128.676 76.709C128.676 76.709 125.801 77.3288 125.487 76.9921C125.174 76.6553 123.451 75.0314 123.451 75.0314C123.451 75.0314 99.1051 73.5521 97.4548 75.0314Z" fill="black"/>
<path d="M131.62 41.5269L125.432 46.4853L123.561 46.6216L122.874 46.6712L111.336 47.5183L99.3712 46.6423L97.5909 46.5121L95.3217 46.3469L90.5771 41.8016C90.5771 41.8016 93.9355 38.1985 96.8772 35.7668C98.0365 34.8061 99.1319 34.0293 99.9302 33.7235L100.066 33.676C100.569 33.4799 101.017 33.1669 101.374 32.7628C103.697 30.3642 105.845 24.4451 105.845 24.4451C105.845 24.4451 116.091 19.1437 114.853 26.0979C113.615 33.0521 119.46 31.3332 119.46 31.3332L121.386 32.2133L122.147 32.5624L124.089 33.4529L128.468 35.4652C131.905 37.0498 131.62 41.5269 131.62 41.5269Z" fill="#BE6F72"/>
<path opacity="0.1" d="M110.855 30.108C115.945 30.108 120.07 25.9761 120.07 20.8791C120.07 15.7822 115.945 11.6502 110.855 11.6502C105.766 11.6502 101.64 15.7822 101.64 20.8791C101.64 25.9761 105.766 30.108 110.855 30.108Z" fill="black"/>
<path opacity="0.1" d="M131.635 48.101H90.2347C90.2347 48.0348 90.2347 47.9997 90.2347 47.9997L90.5771 42.0083C90.5771 42.0083 93.9355 38.4052 96.8771 35.9735L122.869 34.9405L124.078 33.6637L128.458 35.676C131.897 37.2585 131.62 41.7356 131.62 41.7356C131.62 41.7356 132.091 46.9233 131.635 48.101Z" fill="black"/>
<path d="M131.635 47.8944H90.2347C90.2347 47.8283 90.2347 47.7931 90.2347 47.7931L90.5771 41.8017C90.5771 41.8017 93.9355 38.1986 96.8771 35.7669L122.869 34.7339L124.078 33.4571L128.458 35.4694C131.897 37.0519 131.62 41.529 131.62 41.529C131.62 41.529 132.091 46.7167 131.635 47.8944Z" fill="#E7C7CA"/>
<path opacity="0.1" d="M104.219 31.0935C104.219 31.0935 110.75 39.4278 119.449 30.922C128.148 22.4163 120.413 49.8943 120.413 49.8943L101.64 52.1255L104.219 31.0935Z" fill="black"/>
<path d="M104.219 31.5067C104.219 31.5067 110.75 39.841 119.449 31.3352C128.148 22.8294 120.413 50.3074 120.413 50.3074L101.64 52.5387L104.219 31.5067Z" fill="#E7C7CA"/>
<path opacity="0.1" d="M122.137 32.9694L122.828 43.5247L123.569 47.0369L124.134 49.7227C124.134 49.7227 125.578 70.3829 125.165 71.4159C124.753 72.4489 125.372 73.2753 125.458 73.8249C125.545 74.3744 125.372 75.7545 125.44 76.3743C125.508 76.9941 125.44 77.2689 123.86 77.0478C122.279 76.8268 120.076 76.4425 120.076 76.4425C120.076 76.4425 114.507 76.8557 112.582 76.1677C110.657 75.4797 107.012 75.4777 107.012 75.4777C107.012 75.4777 101.51 75.6161 99.7239 75.4095C97.9375 75.2029 96.972 77.6139 95.8045 76.9239C94.6369 76.2338 97.1783 69.5565 98.0035 67.6268C98.8286 65.6972 96.904 60.809 96.904 60.809L99.3794 47.0555L99.9302 43.9379V34.1367L100.066 34.0892C100.569 33.8931 101.017 33.5801 101.374 33.176L101.993 43.0392L121.384 43.7292V32.6285" fill="black"/>
<path d="M122.137 32.5562L122.828 43.1115L123.569 46.6237L124.134 49.3095C124.134 49.3095 125.578 69.9697 125.165 71.0027C124.753 72.0357 125.372 72.8621 125.458 73.4117C125.545 73.9612 125.372 75.3413 125.44 75.9611C125.508 76.5809 125.44 76.8557 123.86 76.6346C122.279 76.4136 120.076 76.0293 120.076 76.0293C120.076 76.0293 114.507 76.4425 112.582 75.7545C110.657 75.0665 107.012 75.0645 107.012 75.0645C107.012 75.0645 101.51 75.2029 99.7239 74.9963C97.9375 74.7897 96.972 77.2007 95.8045 76.5107C94.6369 75.8206 97.1783 69.1433 98.0035 67.2136C98.8286 65.284 96.904 60.3958 96.904 60.3958L99.3794 46.6423L99.9302 43.5247V33.7235L100.066 33.676C100.569 33.4799 101.017 33.1669 101.374 32.7628L101.993 42.626L121.384 43.316V32.2153" fill="#E7C7CA"/>
<path opacity="0.1" d="M124.367 10.5284C124.25 10.0966 124.087 9.6483 123.748 9.35905C123.425 9.12673 123.052 8.97385 122.659 8.91279C121.718 8.665 120.762 8.48139 119.796 8.36324C119.658 7.90448 119.449 7.47018 119.177 7.07611C117.155 4.21674 114.164 1.5206 110.645 0.911124C108.803 0.590891 106.668 0.878067 105.488 2.33254C104.84 3.13209 104.561 4.19195 103.907 4.97704C102.647 6.50176 100.372 6.68976 98.7833 7.86946C97.9354 8.48926 97.3207 9.38798 96.7204 10.2598C96.0706 11.204 95.4022 12.1874 95.1959 13.3155C94.7833 15.5695 96.2707 17.7181 96.545 19.9928C97.1639 25.0814 91.7179 29.5957 92.7473 34.6161C93.3476 37.5436 96.0479 39.6055 98.841 40.6509C99.825 41.0207 100.949 41.3885 101.409 42.3347C101.616 42.7479 101.651 43.2252 101.845 43.6425C102.496 45.035 104.64 45.0887 105.791 44.0743C106.942 43.0599 107.305 41.4195 107.441 39.8885C107.994 33.2029 105.321 26.5979 105.632 19.8957C105.725 17.869 106.294 15.5695 108.108 14.6522C110.548 13.4126 113.483 15.4786 116.169 15.084C117.44 18.1812 117.71 21.5995 116.941 24.8583C116.514 26.6413 115.775 28.3705 115.722 30.2093C115.641 33.0087 117.149 35.5664 118.453 38.0415C118.733 38.5044 118.92 39.0173 119.004 39.5518C119.024 40.094 118.923 40.6341 118.709 41.1323C117.972 43.1177 116.701 44.9606 116.557 47.0741C116.515 47.3209 116.57 47.5744 116.712 47.7807C116.857 47.9184 117.045 48.0029 117.244 48.0204C119.472 48.4026 121.399 46.4254 122.486 44.44C123.698 42.2471 124.404 39.8101 124.553 37.3081C124.778 33.1017 123.272 28.9635 123.365 24.7529C123.472 19.966 125.632 15.146 124.367 10.5284Z" fill="black"/>
<path d="M124.573 10.3218C124.456 9.89002 124.293 9.44169 123.955 9.15245C123.632 8.92013 123.258 8.76725 122.865 8.70619C121.924 8.45839 120.968 8.27479 120.002 8.15663C119.864 7.69788 119.655 7.26358 119.383 6.8695C117.362 4.01014 114.37 1.31399 110.851 0.70452C109.009 0.384287 106.874 0.671463 105.694 2.12594C105.046 2.92548 104.768 3.98535 104.114 4.77044C102.853 6.29515 100.578 6.48316 98.9896 7.66286C98.1417 8.28266 97.527 9.18138 96.9267 10.0532C96.2769 10.9974 95.6085 11.9808 95.4022 13.1089C94.9896 15.3629 96.477 17.5115 96.7513 19.7862C97.3702 24.8748 91.9242 29.3891 92.9536 34.4095C93.5539 37.337 96.2542 39.3989 99.0473 40.4443C100.031 40.8141 101.156 41.1819 101.616 42.1281C101.822 42.5413 101.857 43.0186 102.051 43.4359C102.703 44.8284 104.846 44.8821 105.997 43.8677C107.148 42.8533 107.511 41.2129 107.647 39.6819C108.2 32.9963 105.527 26.3913 105.838 19.6891C105.931 17.6624 106.501 15.3629 108.314 14.4456C110.754 13.206 113.69 15.272 116.376 14.8774C117.647 17.9746 117.916 21.3929 117.147 24.6517C116.72 26.4347 115.982 28.1639 115.928 30.0027C115.847 32.8021 117.355 35.3598 118.659 37.8349C118.939 38.2978 119.126 38.8107 119.21 39.3452C119.23 39.8875 119.13 40.4275 118.915 40.9257C118.179 42.9111 116.908 44.754 116.763 46.8675C116.721 47.1143 116.777 47.3678 116.918 47.5741C117.063 47.7118 117.251 47.7963 117.45 47.8138C119.678 48.196 121.605 46.2188 122.692 44.2334C123.904 42.0405 124.61 39.6035 124.759 37.1015C124.984 32.8951 123.478 28.7569 123.571 24.5463C123.678 19.7594 125.838 14.9394 124.573 10.3218Z" fill="#3E373A"/>
<path d="M120.017 101.799L128.2 102.061L127.026 95.9829L120.757 96.58L120.017 101.799Z" fill="#C3C7D9"/>
<path d="M145.373 87.3924C144.823 88.0804 142.692 89.32 142.485 89.7332C142.279 90.1464 139.736 91.386 138.428 91.5926C137.12 91.7992 132.996 92.6959 132.239 93.1773C131.697 93.5243 127.342 94.6235 124.481 95.2329C123.706 95.4166 122.921 95.5579 122.131 95.6565C120.893 95.7246 107.348 91.1112 107.348 91.1112L109.96 88.4254L110.104 88.3758C110.843 88.1258 114.255 86.9709 116.149 86.4214C118.282 85.8016 120.757 83.2542 120.757 83.2542C120.757 83.2542 124.4 82.0146 124.883 81.8762C125.366 81.7377 123.645 77.0561 123.645 77.0561C123.645 77.0561 131.552 75.957 134.646 75.0253C137.741 74.0935 144.893 74.4385 146.199 78.0892C147.504 81.7398 145.932 86.7044 145.373 87.3924Z" fill="#4B4B5B"/>
<path d="M109.341 99.0302C109.341 99.0302 107.761 100.683 106.179 100.547C104.596 100.41 99.0638 100.96 99.0638 100.96C98.0612 101.36 97.1223 101.905 96.2769 102.578C94.9834 103.598 94.2965 102.784 94.1686 102.611L94.1459 102.578C93.4569 104.749 91.8767 103.094 91.8767 103.094C91.8767 103.094 92.5637 96.4828 92.3533 95.6564C92.1428 94.83 93.7127 93.4107 93.7127 93.4107L95.5693 92.9376L100.273 91.731L107.012 94.0718L109.341 99.0302Z" fill="#E7C7CA"/>
<path opacity="0.1" d="M95.5611 92.9376L94.1686 102.611L94.1459 102.578C93.4569 104.749 91.8767 103.094 91.8767 103.094C91.8767 103.094 92.5637 96.4829 92.3533 95.6565C92.1428 94.8301 93.7127 93.4107 93.7127 93.4107L95.5611 92.9376Z" fill="black"/>
<path opacity="0.1" d="M105.294 65.4224C105.294 65.4224 108.937 66.662 112.101 65.4224H105.294Z" fill="black"/>
<path opacity="0.1" d="M117.731 67.7653C117.731 67.7653 119.243 68.5214 120.413 67.7653H117.731Z" fill="black"/>
<path opacity="0.1" d="M117.731 69.5585C117.731 69.5585 120.274 69.8994 120.757 69.2114L117.731 69.5585Z" fill="black"/>
<path opacity="0.1" d="M116.906 73.4117C116.906 73.4117 121.683 72.7919 122.869 71.9655L116.906 73.4117Z" fill="black"/>
<path opacity="0.1" d="M102.327 71.9655C102.327 71.9655 105.009 73.4798 107.004 73.4117L102.327 71.9655Z" fill="black"/>
<path opacity="0.1" d="M124.479 95.2329C123.704 95.4165 122.919 95.5579 122.129 95.6564C120.891 95.7246 107.346 91.1112 107.346 91.1112L109.958 88.4254L110.102 88.3758C110.515 88.6671 110.853 88.9171 111.095 89.1072C112.231 90.0038 113.329 88.8324 113.741 88.8324C114.154 88.8324 117.729 91.793 117.729 91.793C117.729 91.793 121.029 92.5512 121.58 93.2392C122.131 93.9272 124.056 93.7908 124.398 94.2722C124.501 94.4209 124.514 94.7866 124.479 95.2329Z" fill="black"/>
<path d="M99.0638 77.3371C99.0638 77.3371 95.726 77.5292 93.8014 76.7173C91.8767 75.9053 85.4818 74.0315 83.6252 75.3475C81.7686 76.6636 77.2983 77.8267 79.3612 83.062C81.4241 88.2973 82.3874 88.4336 82.3874 88.4336C83.0257 88.913 83.5829 89.492 84.0377 90.1484C84.6566 91.1133 90.4327 93.3156 91.8767 93.3156C93.3207 93.3156 95.8643 93.3156 99.4392 95.7948C103.014 98.2741 106.247 98.5509 106.247 98.5509C106.247 98.5509 110.785 100.41 112.198 100.824C113.611 101.237 120.068 103.026 121.582 102.476C123.096 101.927 124.058 98.4807 124.058 98.4807C124.058 98.4807 124.745 95.3816 124.4 94.9003C124.056 94.4189 122.131 94.5552 121.582 93.8673C121.034 93.1793 117.731 92.421 117.731 92.421C117.731 92.421 114.164 89.4584 113.752 89.4584C113.339 89.4584 112.242 90.6277 111.105 89.7332C108.841 88.0536 106.462 86.5348 103.986 85.1879C101.374 83.8099 99.0638 77.3371 99.0638 77.3371Z" fill="#4B4B5B"/>
<path opacity="0.1" d="M92.3532 79.3349C92.9475 79.2133 93.5618 79.2308 94.1483 79.386C94.7347 79.5411 95.2775 79.8298 95.7343 80.2295C97.3846 81.6075 102.938 84.3739 102.938 84.3739" fill="black"/>
<path opacity="0.1" d="M133.615 79.2482C133.615 79.2482 126.257 80.3638 124.883 81.8782L133.615 79.2482Z" fill="black"/>
<path d="M142.073 102.061H141.749C140.585 102.02 136.643 101.896 135.884 102.061C134.991 102.268 123.162 102.061 123.162 102.061L125.475 101.58C125.475 101.58 124.617 98.5675 125.161 98.3175C125.161 98.3175 122.067 96.2762 124.4 94.8982C126.733 93.5202 129.248 94.1007 129.248 94.1007L135.104 92.1132L136.229 91.731C136.229 91.731 142.83 92.076 144.616 96.6213C146.403 101.166 142.073 102.061 142.073 102.061Z" fill="#E7C7CA"/>
<path opacity="0.1" d="M142.073 102.061H141.749C143.67 100.474 148.014 95.644 135.104 92.1235L136.229 91.7413C136.229 91.7413 142.83 92.0864 144.616 96.6316C146.403 101.177 142.073 102.061 142.073 102.061Z" fill="black"/>
<path d="M129.937 96.706C130.136 96.706 130.298 96.5441 130.298 96.3445C130.298 96.1448 130.136 95.9829 129.937 95.9829C129.738 95.9829 129.576 96.1448 129.576 96.3445C129.576 96.5441 129.738 96.706 129.937 96.706Z" fill="#4B4B5B"/>
<path d="M127.839 97.3031C128.038 97.3031 128.2 97.1412 128.2 96.9415C128.2 96.7418 128.038 96.58 127.839 96.58C127.64 96.58 127.478 96.7418 127.478 96.9415C127.478 97.1412 127.64 97.3031 127.839 97.3031Z" fill="#4B4B5B"/>
<g opacity="0.1">
<path opacity="0.1" d="M117.617 20.5383C117.697 18.2658 117.294 16.0023 116.433 13.8981C113.752 14.2989 110.814 12.2267 108.372 13.4663C106.564 14.3836 105.997 16.6831 105.896 18.7098C105.871 19.2449 105.867 19.78 105.877 20.3151C105.877 20.1251 105.877 19.9329 105.896 19.7428C105.991 17.7161 106.558 15.4166 108.372 14.4993C110.814 13.2597 113.747 15.3257 116.433 14.9311C117.162 16.7135 117.563 18.613 117.617 20.5383Z" fill="black"/>
<path opacity="0.1" d="M96.8359 20.1602C96.8712 19.71 96.8622 19.2574 96.8091 18.809C96.5904 16.9909 95.5981 15.2534 95.4187 13.4807C95.1876 15.6191 96.5471 17.6727 96.8091 19.842C96.8359 19.9536 96.8359 20.0527 96.8359 20.1602Z" fill="black"/>
<path opacity="0.1" d="M107.705 38.7006C107.577 40.2336 107.216 41.8719 106.055 42.8884C104.894 43.9049 102.754 43.8491 102.109 42.4566C101.902 42.0434 101.871 41.562 101.671 41.1488C101.213 40.2026 100.087 39.8348 99.103 39.465C96.3078 38.4175 93.6116 36.366 93.0113 33.4302C92.9577 33.1642 92.9211 32.8951 92.902 32.6244C92.8512 33.2394 92.888 33.8585 93.0113 34.4632C93.6116 37.3907 96.3119 39.4505 99.103 40.498C100.087 40.8678 101.213 41.2356 101.671 42.1818C101.878 42.595 101.913 43.0723 102.109 43.4896C102.758 44.8821 104.902 44.9358 106.055 43.9214C107.208 42.907 107.567 41.2666 107.705 39.7336C107.768 38.9267 107.789 38.1171 107.769 37.3081C107.769 37.7771 107.742 38.2398 107.705 38.7006Z" fill="black"/>
<path opacity="0.1" d="M123.639 23.567C123.639 23.8666 123.639 24.1641 123.639 24.4616C123.754 20.6188 125.161 16.7554 125.023 12.9932C124.916 16.4723 123.717 20.03 123.639 23.567Z" fill="black"/>
<path opacity="0.1" d="M119.212 39.1117C119.263 38.8666 119.279 38.6155 119.259 38.3659C119.176 37.8312 118.989 37.3181 118.709 36.8556C117.516 34.583 116.157 32.2567 115.996 29.7341C115.996 29.8415 115.981 29.9407 115.979 30.0564C115.897 32.8538 117.405 35.4135 118.709 37.8886C118.93 38.272 119.099 38.6833 119.212 39.1117Z" fill="black"/>
<path opacity="0.1" d="M124.825 36.1222C124.671 38.6252 123.96 41.062 122.744 43.2541C121.654 45.2395 119.73 47.2167 117.5 46.8345C117.3 46.8172 117.112 46.7319 116.968 46.5927C116.926 46.5454 116.893 46.4908 116.871 46.4316C116.846 46.5927 116.825 46.756 116.813 46.9212C116.77 47.1673 116.826 47.4203 116.968 47.6258C117.112 47.7649 117.3 47.8502 117.5 47.8675C119.73 48.2497 121.654 46.2725 122.744 44.2871C123.96 42.095 124.671 39.6582 124.825 37.1552C124.85 36.6717 124.852 36.1904 124.837 35.709C124.833 35.8474 124.833 35.9838 124.825 36.1222Z" fill="black"/>
</g>
<path opacity="0.1" d="M125.161 98.3175C125.161 98.3175 130.383 100.512 133.825 95.6564" stroke="black" stroke-miterlimit="10"/>
<path opacity="0.1" d="M126.189 102.152C126.189 102.152 130.453 99.3753 135.884 102.061" stroke="black" stroke-miterlimit="10"/>
<path opacity="0.1" d="M97.6466 101.522C97.6466 101.522 99.4372 97.4767 104.219 100.561" stroke="black" stroke-miterlimit="10"/>
<path opacity="0.1" d="M91.8417 41.6984L95.493 38.3928C95.493 38.3928 109.651 37.4631 110.236 42.2831C110.236 42.2831 115.255 36.5685 125.811 37.8411L130.277 41.4029L117.933 46.8283L105.937 50.9955L97.102 47.0349L91.8417 41.6984Z" fill="black"/>
<path d="M91.8417 41.9049L95.493 38.5993C95.493 38.5993 109.651 37.6696 110.236 42.4896C110.236 42.4896 115.255 36.775 125.811 38.0477L130.277 41.6095L117.933 47.0348L105.937 51.202L97.102 47.2414L91.8417 41.9049Z" fill="#D5D6DB"/>
<path opacity="0.1" d="M90.2264 42.3182L91.8416 61.6705L108.964 62.5321L108.221 43.2623L108.206 42.938L90.2264 42.3182Z" fill="black"/>
<path d="M90.2264 41.905L91.8416 61.2573L108.964 62.1189L108.221 42.8491L108.206 42.5248L90.2264 41.905Z" fill="#9BAAF2"/>
<path opacity="0.1" d="M131.061 41.905L113.399 44.5577V63.9969L130.659 61.499L131.061 41.905Z" fill="black"/>
<path d="M131.061 41.4918L113.399 44.1445V63.5836L130.659 61.0858L131.061 41.4918Z" fill="#9BAAF2"/>
<path opacity="0.3" d="M126.896 46.2353L117.355 47.2972L117.564 50.5533L126.89 49.5326L126.896 46.2353Z" fill="white"/>
<path d="M92.77 71.6205L93.7416 74.2381C93.7416 74.2381 95.1856 75.4777 96.7658 74.8579C98.3459 74.2381 99.724 73.9303 100.411 73.327C101.098 72.7237 102.061 69.6929 102.061 69.6929C102.061 69.6929 103.025 66.3872 103.986 65.5608C104.947 64.7344 107.493 53.3486 103.986 54.4622C100.479 55.5758 97.7972 65.9059 97.7972 65.9059C97.7972 65.9059 97.1784 66.662 96.2851 66.7323C95.3919 66.8025 93.6034 66.5939 93.2589 67.3521C92.9144 68.1103 91.7385 70.1061 92.77 71.6205Z" fill="#BE6F72"/>
<path opacity="0.1" d="M113.399 44.5556C112.494 44.7597 111.555 44.7491 110.656 44.5245C109.756 44.2999 108.922 43.8677 108.219 43.2623L108.964 62.53C108.964 62.53 110.717 64.4307 113.399 63.9968V44.5556Z" fill="black"/>
<path d="M113.399 44.1424C112.494 44.3465 111.555 44.3359 110.656 44.1113C109.756 43.8867 108.922 43.4545 108.219 42.8491L108.964 62.1168C108.964 62.1168 110.717 64.0175 113.399 63.5836V44.1424Z" fill="#9BAAF2"/>
<path opacity="0.1" d="M113.399 44.1424C112.494 44.3465 111.555 44.3359 110.656 44.1113C109.756 43.8867 108.922 43.4545 108.219 42.8491L108.964 62.1168C108.964 62.1168 110.717 64.0175 113.399 63.5836V44.1424Z" fill="black"/>
<path opacity="0.1" d="M113.811 41.9711C113.811 41.9711 120.996 39.7708 122.869 40.0807L113.811 41.9711Z" fill="black"/>
<path opacity="0.1" d="M105.774 41.0104C105.774 41.0104 98.8101 39.3576 97.6466 39.8266L105.774 41.0104Z" fill="black"/>
<path opacity="0.1" d="M118.341 42.2459C118.341 42.2459 123.146 40.4815 124.883 41.3203L118.341 42.2459Z" fill="black"/>
<path opacity="0.1" d="M115.922 86.5061C116.666 85.9461 117.459 85.4532 118.29 85.033C119.528 84.4359 121.797 82.8864 121.797 82.8864" fill="black"/>
<path opacity="0.1" d="M97.6466 65.4224C97.6466 65.4224 94.6327 67.8913 93.7271 68.1082C92.8215 68.3252 92.2625 70.2507 92.2625 70.2507" fill="black"/>
<path d="M129.289 71.2527L128.328 73.8765C128.328 73.8765 126.884 75.1161 125.302 74.4963C123.719 73.8765 122.345 73.5687 121.656 72.9654C120.967 72.3621 120.006 69.3313 120.006 69.3313C120.006 69.3313 119.045 66.0256 118.082 65.1992C117.118 64.3728 114.575 52.9871 118.082 54.1006C121.588 55.2142 124.27 65.5443 124.27 65.5443C124.27 65.5443 124.889 66.3004 125.782 66.3707C126.675 66.4409 128.464 66.2323 128.809 66.9905C129.153 67.7487 130.321 69.7445 129.289 71.2527Z" fill="#BE6F72"/>
<path opacity="0.1" d="M127.604 66.4265C127.604 66.4265 129.574 67.6951 129.566 69.2115L127.604 66.4265Z" fill="black"/>
<path d="M110.888 29.6556C115.977 29.6556 120.103 25.5236 120.103 20.4267C120.103 15.3297 115.977 11.1978 110.888 11.1978C105.799 11.1978 101.673 15.3297 101.673 20.4267C101.673 25.5236 105.799 29.6556 110.888 29.6556Z" fill="#BE6F72"/>
<path d="M105.102 17.9495C106.22 17.7739 107.2 17.1231 108.268 16.7492C110.659 15.9083 113.304 16.4847 115.724 17.243C116.652 17.5343 117.595 17.8628 118.568 17.8628C119.542 17.8628 120.576 17.464 121.073 16.6231C121.531 15.8505 121.442 14.8464 121.056 14.0344C120.67 13.2225 120.025 12.5696 119.373 11.954C117.227 9.92513 114.566 8.02853 111.623 8.23513C110.439 8.31984 109.306 8.74337 108.217 9.21235C106.845 9.80427 105.51 10.4776 104.219 11.2288C103.227 11.8052 101.389 12.5758 100.817 13.6295C99.5176 16.0033 103.08 18.2677 105.102 17.9495Z" fill="#3E373A"/>
<path opacity="0.1" d="M121.073 15.7554C120.576 16.5963 119.542 16.995 118.568 16.995C117.595 16.995 116.652 16.6789 115.722 16.3876C113.302 15.6294 110.659 15.0509 108.266 15.8938C107.2 16.2678 106.218 16.9269 105.1 17.0921C103.47 17.3483 100.846 15.9269 100.561 14.1191C100.242 16.2079 103.284 17.997 105.1 17.7119C106.218 17.5363 107.2 16.8855 108.266 16.5137C110.659 15.6707 113.302 16.2492 115.722 17.0074C116.652 17.2987 117.593 17.6272 118.568 17.6148C119.544 17.6024 120.576 17.2182 121.073 16.3752C121.33 15.9167 121.432 15.3865 121.362 14.865C121.329 15.1789 121.231 15.4825 121.073 15.7554Z" fill="black"/>
<path d="M195.854 127.723C195.854 127.723 197.078 129.324 195.289 131.744C193.501 134.163 192.028 136.204 192.622 137.712C192.622 137.712 195.32 133.221 197.515 133.157C199.71 133.093 198.266 130.423 195.854 127.723Z" fill="#9BAAF2"/>
<path opacity="0.1" d="M195.854 127.723C195.961 127.878 196.045 128.047 196.104 128.225C198.245 130.746 199.388 133.099 197.327 133.157C195.409 133.212 193.109 136.648 192.558 137.514C192.575 137.584 192.597 137.653 192.622 137.721C192.622 137.721 195.32 133.229 197.515 133.165C199.71 133.101 198.266 130.423 195.854 127.723Z" fill="black"/>
<path d="M198.123 129.764C198.123 130.328 198.059 130.785 197.983 130.785C197.907 130.785 197.841 130.328 197.841 129.764C197.841 129.2 197.919 129.467 197.998 129.467C198.076 129.467 198.123 129.2 198.123 129.764Z" fill="#FFD037"/>
<path d="M198.905 130.438C198.412 130.706 197.981 130.87 197.944 130.801C197.907 130.733 198.276 130.458 198.769 130.182C199.262 129.905 199.068 130.107 199.105 130.182C199.143 130.256 199.4 130.167 198.905 130.438Z" fill="#FFD037"/>
<path d="M189.389 127.723C189.389 127.723 188.166 129.324 189.954 131.744C191.743 134.163 193.216 136.204 192.62 137.712C192.62 137.712 189.923 133.221 187.727 133.157C185.53 133.093 186.984 130.423 189.389 127.723Z" fill="#9BAAF2"/>
<path opacity="0.1" d="M189.389 127.723C189.283 127.878 189.199 128.047 189.14 128.225C186.998 130.746 185.856 133.099 187.916 133.157C189.833 133.212 192.135 136.648 192.686 137.514C192.668 137.584 192.646 137.653 192.62 137.721C192.62 137.721 189.923 133.229 187.727 133.165C185.53 133.101 186.984 130.423 189.389 127.723Z" fill="black"/>
<path d="M187.116 129.764C187.116 130.328 187.178 130.785 187.256 130.785C187.335 130.785 187.399 130.328 187.399 129.764C187.399 129.2 187.318 129.467 187.242 129.467C187.165 129.467 187.116 129.2 187.116 129.764Z" fill="#FFD037"/>
<path d="M186.336 130.438C186.829 130.706 187.26 130.87 187.297 130.801C187.335 130.733 186.965 130.458 186.472 130.182C185.979 129.905 186.173 130.107 186.136 130.182C186.099 130.256 185.841 130.167 186.336 130.438Z" fill="#FFD037"/>
<path opacity="0.1" d="M192.622 149.968C199.685 149.968 205.412 149.088 205.412 148.003C205.412 146.918 199.685 146.038 192.622 146.038C185.558 146.038 179.832 146.918 179.832 148.003C179.832 149.088 185.558 149.968 192.622 149.968Z" fill="#9BAAF2"/>
<path d="M199.204 135.553L199.143 136.053L199.056 136.76L199.021 137.055L198.934 137.762L198.897 138.057L198.812 138.762L197.833 146.799C197.746 147.516 196.576 148.075 195.163 148.075H190.078C188.665 148.075 187.498 147.516 187.409 146.799L186.429 138.762L186.342 138.057L186.307 137.762L186.221 137.055L186.183 136.76L186.099 136.053L186.037 135.553C185.99 135.14 186.621 134.805 187.421 134.805H197.822C198.621 134.805 199.254 135.146 199.204 135.553Z" fill="#65617D"/>
<path d="M199.143 136.053L199.058 136.76H186.186L186.099 136.053H199.143Z" fill="#9D9CB5"/>
<path d="M199.021 137.055L198.936 137.762H186.307L186.221 137.055H199.021Z" fill="#9D9CB5"/>
<path d="M198.899 138.057L198.812 138.764H186.429L186.344 138.057H198.899Z" fill="#9D9CB5"/>
</g>
<defs>
<linearGradient id="paint0_linear" x1="112.765" y1="103.697" x2="112.765" y2="-1.17654e-06" gradientUnits="userSpaceOnUse">
<stop stop-color="#808080" stop-opacity="0.25"/>
<stop offset="0.54" stop-color="#808080" stop-opacity="0.12"/>
<stop offset="1" stop-color="#808080" stop-opacity="0.1"/>
</linearGradient>
<clipPath id="clip0">
<rect width="211" height="168" fill="white"/>
</clipPath>
</defs>
</svg>
